<?xml version="1.0" standalone="no"?>
<!DOCTYPE svg PUBLIC "-//W3C//DTD SVG 1.1//EN" "http://www.w3.org/Graphics/SVG/1.1/DTD/svg11.dtd" >
<svg>
<metadata>
Created by FontForge 20120731 at Mon Mar 15 20:51:34 2021
 By ffonts
Copyright 2011 - 2016 The Montserrat Project Authors (julieta.ulanovsky@gmail.com)
</metadata>
<defs>
<font id="ArgentumNovus-Black" horiz-adv-x="0" >
  <font-face 
    font-family="Argentum Novus Black"
    font-weight="900"
    font-stretch="normal"
    units-per-em="2000"
    panose-1="0 0 10 0 0 0 0 0 0 0"
    ascent="1600"
    descent="-400"
    x-height="1094"
    cap-height="1402"
    bbox="-1060 -586 3126 2354"
    underline-thickness="100"
    underline-position="-410"
    unicode-range="U+001D-A78C"
  />
<missing-glyph horiz-adv-x="1174" 
d="M1094 0h-1014v1400h1014v-1400zM934 140v1120h-694v-1120h694z" />
    <glyph glyph-name=".notdef" horiz-adv-x="1174" 
d="M1094 0h-1014v1400h1014v-1400zM934 140v1120h-694v-1120h694z" />
    <glyph glyph-name="uni0000" horiz-adv-x="600" 
d="M0 0z" />
    <glyph glyph-name="uni0000" horiz-adv-x="600" 
d="M0 0z" />
    <glyph glyph-name="nonmarkingreturn" horiz-adv-x="666" 
 />
    <glyph glyph-name="space" unicode=" " horiz-adv-x="600" 
d="M0 0z" />
    <glyph glyph-name="exclam" unicode="!" horiz-adv-x="588" 
d="M284 -16q-84 0 -144 54t-60 152q0 70 29 115.5t75.5 67t99.5 21.5q98 0 152 -60t54 -144q0 -71 -28.5 -116.5t-75.5 -67.5t-102 -22zM428 516h-268l-80 518v368h428v-368z" />
    <glyph glyph-name="quotedbl" unicode="&#x22;" horiz-adv-x="1018" 
d="M456 798h-336v604h336v-604zM898 798h-336v604h336v-604z" />
    <glyph glyph-name="numbersign" unicode="#" horiz-adv-x="1490" 
d="M1084 0h-320l34 276h-210l-34 -276h-320l34 276h-260l38 306h260l28 220h-258l36 306h260l36 294h320l-36 -294h210l36 294h320l-36 -294h260l-36 -306h-262l-28 -220h260l-38 -306h-260zM836 582l28 220h-210l-28 -220h210z" />
    <glyph glyph-name="dollar" unicode="$" horiz-adv-x="1328" 
d="M858 -330h-332v320q-292 52 -510 212l172 350q152 -114 295 -168t239 -54q112 0 112 78q0 43 -54 73.5t-178 54.5q-128 28 -249 78t-197 168q-48 74 -48 194q0 194 115 303t303 143v306h332v-300q270 -36 460 -158l-168 -354q-112 67 -241 116.5t-241 49.5q-86 0 -86 -62
q0 -50 56 -76t168 -54q126 -26 252 -82t204 -176q46 -82 46 -200q0 -260 -225 -378q-102 -53 -225 -70v-314z" />
    <glyph glyph-name="percent" unicode="%" horiz-adv-x="2032" 
d="M434 550q-200 0 -305 123t-105 309q0 210 116 319t294 109q176 0 292 -109t116 -319q0 -186 -105 -309t-303 -123zM434 788q120 0 128 194q0 88 -35 140t-93 52q-116 0 -128 -192q0 -50 12.5 -94.5t41 -72t74.5 -27.5zM678 0h-298l974 1402h298zM1600 -10
q-200 0 -305 123t-105 309q0 210 116 319t294 109q176 0 292 -109t116 -319q0 -186 -105 -309t-303 -123zM1600 228q120 0 128 194q0 88 -35 140t-93 52q-116 0 -128 -192q0 -50 12.5 -94.5t41 -72t74.5 -27.5z" />
    <glyph glyph-name="ampersand" unicode="&#x26;" horiz-adv-x="1412" 
d="M1172 -80l-182 174q-170 -114 -374 -114q-93 0 -184 24t-164.5 75t-117.5 130.5t-44 190.5q0 222 256 364q-102 152 -102 300q0 124 58 203q66 84 165 119.5t209 35.5q82 0 161 -19.5t142 -60t101 -104t38 -150.5q0 -236 -318 -384l150 -156q46 90 70 196l282 -202
q-42 -122 -112 -226l192 -178zM634 290q64 0 124 30q-154 156 -222 230q-64 -46 -64 -116q0 -132 162 -144zM654 914q130 76 130 170q0 80 -88 90q-84 0 -88 -108q0 -66 46 -152z" />
    <glyph glyph-name="quotesingle" unicode="'" horiz-adv-x="576" 
d="M456 798h-336v604h336v-604z" />
    <glyph glyph-name="parenleft" unicode="(" horiz-adv-x="740" 
d="M762 -248h-402q-266 386 -266 866t266 866h402q-246 -388 -246 -866t246 -866z" />
    <glyph glyph-name="parenright" unicode=")" horiz-adv-x="740" 
d="M380 -248h-402q246 388 246 866t-246 866h402q266 -386 266 -866t-266 -866z" />
    <glyph glyph-name="asterisk" unicode="*" horiz-adv-x="812" 
d="M516 718h-220l6 178l-152 -92l-110 188l156 86l-156 82l110 194l150 -94l-4 176h220l-4 -176l150 90l110 -190l-158 -82l158 -86l-110 -192l-152 94z" />
    <glyph glyph-name="plus" unicode="+" horiz-adv-x="1040" 
d="M660 198h-280v320h-320v280h320v320h280v-320h320v-280h-320v-320z" />
    <glyph glyph-name="comma" unicode="," horiz-adv-x="530" 
d="M224 -260h-208l122 294q-76 64 -76 156q0 98 61 151t145 53q76 0 140 -47t64 -155q0 -80 -54 -160z" />
    <glyph glyph-name="hyphen" unicode="-" horiz-adv-x="760" 
d="M660 478h-560v280h560v-280z" />
    <glyph glyph-name="period" unicode="." horiz-adv-x="530" 
d="M264 -16q-84 0 -144 54t-60 152q0 70 29 115.5t75.5 67t99.5 21.5q98 0 152 -60t54 -144q0 -71 -28.5 -116.5t-75.5 -67.5t-102 -22z" />
    <glyph glyph-name="slash" unicode="/" horiz-adv-x="746" 
d="M276 -208h-376l658 1820h376z" />
    <glyph glyph-name="zero" unicode="0" horiz-adv-x="1200" 
d="M600 -14q-195 0 -323 86.5t-191.5 247.5t-63.5 382q0 214 62 376.5t196 252.5q129 85 320 85q197 0 325 -88t190.5 -248.5t62.5 -377.5q0 -341 -147 -528.5t-431 -187.5zM600 324q64 0 85 84.5t21 293.5t-21 292.5t-85 83.5q-63 0 -84.5 -82.5t-21.5 -293.5
q0 -212 21.5 -295t84.5 -83z" />
    <glyph glyph-name="one" unicode="1" horiz-adv-x="1200" 
d="M1056 0h-926l-2 356h284v680h-284v366h748v-1046h180v-356z" />
    <glyph glyph-name="two" unicode="2" horiz-adv-x="1200" 
d="M1152 0h-1098v292l488 508q104 110 104 178q0 72 -94 74q-87 0 -186.5 -50.5t-195.5 -129.5l-172 334q317 218 626 218q227 0 367.5 -106.5t140.5 -271.5q0 -207 -274 -476l-216 -214h510v-356z" />
    <glyph glyph-name="three" unicode="3" horiz-adv-x="1200" 
d="M588 -20q-179 0 -331 52.5t-255 133.5l164 312q189 -156 384 -156q168 0 168 124q0 56 -39.5 91t-128.5 35h-262v240l272 258h-482v334h1026v-262l-330 -290l66 -14q96 -21 171 -71.5t118 -130.5t43 -190q0 -209 -159.5 -337.5t-424.5 -128.5z" />
    <glyph glyph-name="four" unicode="4" horiz-adv-x="1200" 
d="M1038 0h-422v270h-598v302l340 830h436l-318 -800h140v268h422v-268h160v-332h-160v-270z" />
    <glyph glyph-name="five" unicode="5" horiz-adv-x="1200" 
d="M572 -20q-164 0 -316 52t-266 132l166 318q190 -162 362 -162q150 0 150 122q0 117 -152 118h-396v842h982v-356h-558v-148h64q255 0 407.5 -115t152.5 -307q0 -225 -162 -360.5t-434 -135.5z" />
    <glyph glyph-name="six" unicode="6" horiz-adv-x="1200" 
d="M632 -20q-199 0 -335 88.5t-207 242.5q-74 158 -74 373q0 234 85 397q91 173 240.5 257t336.5 84q116 0 240 -29.5t228 -92.5l-168 -308q-112 92 -274 92q-264 0 -268 -264q101 114 286 114q200 0 321 -127.5t121 -334.5q0 -159 -69.5 -267.5t-184.5 -164.5
q-120 -60 -278 -60zM616 332q135 0 138 142q0 140 -136 140q-76 0 -109 -40t-33 -102q0 -61 32.5 -100.5t107.5 -39.5z" />
    <glyph glyph-name="seven" unicode="7" horiz-adv-x="1200" 
d="M704 0h-490l462 1046h-240v-196h-408v552h1158v-308z" />
    <glyph glyph-name="eight" unicode="8" horiz-adv-x="1200" 
d="M598 -20q-265 0 -425.5 112t-160.5 296q0 122 66 215.5t170 146.5q-71 55 -116.5 132t-45.5 162q0 120 65 204.5t180.5 129t264.5 44.5q150 0 266.5 -45.5t183 -133t66.5 -213.5q0 -74 -35 -149t-105 -131q100 -56 157 -149t57 -205q0 -189 -160.5 -302.5t-427.5 -113.5z
M598 898q129 0 130 108q0 114 -130 116q-126 0 -128 -116q0 -108 128 -108zM598 310q153 0 156 126q0 129 -154 132q-153 0 -154 -132q0 -123 152 -126z" />
    <glyph glyph-name="nine" unicode="9" horiz-adv-x="1200" 
d="M520 -20q-114 0 -237 30t-229 94l168 308q113 -92 272 -92q141 0 205.5 70.5t64.5 193.5q-103 -116 -286 -116q-199 0 -319.5 128.5t-120.5 335.5q0 153 67.5 263t187 168.5t277.5 58.5q200 0 334.5 -88.5t205.5 -240.5q74 -158 74 -373q0 -234 -84 -397
q-89 -170 -238 -256.5t-342 -86.5zM582 790q76 0 109 40t33 102q0 140 -140 140q-135 0 -136 -142q0 -63 31.5 -101.5t102.5 -38.5z" />
    <glyph glyph-name="colon" unicode=":" horiz-adv-x="530" 
d="M264 -16q-84 0 -144 54t-60 152q0 70 29 115.5t75.5 67t99.5 21.5q98 0 152 -60t54 -144q0 -71 -28.5 -116.5t-75.5 -67.5t-102 -22zM264 578q-84 0 -144 54t-60 152q0 70 29 115.5t75.5 67t99.5 21.5q98 0 152 -60t54 -144q0 -53 -20 -100t-65.5 -76.5t-120.5 -29.5z
" />
    <glyph glyph-name="semicolon" unicode=";" horiz-adv-x="530" 
d="M224 -260h-208l122 294q-76 64 -76 156q0 98 61 151t145 53q76 0 140 -47t64 -155q0 -80 -54 -160zM264 578q-84 0 -144 54t-60 152q0 70 29 115.5t75.5 67t99.5 21.5q98 0 152 -60t54 -144q0 -53 -20 -100t-65.5 -76.5t-120.5 -29.5z" />
    <glyph glyph-name="less" unicode="&#x3c;" horiz-adv-x="1040" 
d="M980 98l-920 370v356l920 370v-312l-632 -236l632 -236v-312z" />
    <glyph glyph-name="equal" unicode="=" horiz-adv-x="1040" 
d="M980 298h-920v280h920v-280zM980 738h-920v280h920v-280z" />
    <glyph glyph-name="greater" unicode="&#x3e;" horiz-adv-x="1040" 
d="M60 118v312l632 236l-632 236v312l920 -370v-356z" />
    <glyph glyph-name="question" unicode="?" horiz-adv-x="996" 
d="M658 500h-334q0 180 166 338l8 6q78 76 78 137q0 87 -76 87q-114 0 -114 -140v-18h-344q0 142 50.5 258t162.5 187q109 67 281 67q202 0 331 -89t129 -275q0 -88 -45 -163.5t-141 -154.5q-152 -119 -152 -240zM482 -16q-84 0 -144 54t-60 152q0 70 29 115.5t75.5 67
t99.5 21.5q98 0 152 -60t54 -144q0 -71 -28.5 -116.5t-75.5 -67.5t-102 -22z" />
    <glyph glyph-name="at" unicode="@" horiz-adv-x="1730" 
d="M854 -290q-356 0 -590 238.5t-234 595.5q0 360 250 606q128 127 277 186.5t321 59.5q360 0 591 -240t231 -604q0 -230 -111 -358t-273 -128q-188 0 -240 162q-104 -142 -264 -142q-168 0 -291 128t-123 328q0 196 104 330t280 134q136 0 214 -90l16 -16v82h270v-650
q0 -86 60 -88q54 0 99 84t45 218q0 254 -145 452q-65 89 -177 145q-62 30 -130.5 42.5t-155.5 12.5q-260 0 -446 -194t-186 -468q0 -266 175 -447t433 -181q196 0 368 126l102 -172q-208 -152 -470 -152zM840 328q82 0 118 66t36 156q0 86 -37 147t-119 61q-68 0 -106 -62
t-38 -144q0 -90 38 -157t108 -67z" />
    <glyph glyph-name="A" unicode="A" horiz-adv-x="1598" 
d="M1618 0h-494l-70 198h-526l-72 -198h-476l592 1402h476zM940 530l-144 410l-148 -410h292z" />
    <glyph glyph-name="B" unicode="B" horiz-adv-x="1448" 
d="M844 0h-744v1402h710q237 0 388 -83q168 -92 168 -271q0 -96 -57 -176t-179 -124q146 -47 212 -141.5t66 -212.5q0 -133 -75 -220q-85 -94 -214.5 -134t-274.5 -40zM784 340q64 0 103 31t39 81q0 92 -142 102h-222v-214h222zM784 862q98 0 106 102q0 88 -106 98h-222
v-200h222z" />
    <glyph glyph-name="C" unicode="C" horiz-adv-x="1376" 
d="M772 -32q-322 0 -532 207t-210 531q0 316 214 521t546 205q143 0 298 -61.5t294 -198.5l-268 -318q-150 192 -318 192q-138 0 -214 -99t-76 -235t76 -237t214 -101q160 0 318 164l268 -286q-114 -126 -272 -205t-338 -79z" />
    <glyph glyph-name="D" unicode="D" horiz-adv-x="1518" 
d="M708 0h-608v1402h626q338 0 550 -184t212 -516q0 -172 -58 -303t-163 -220t-247.5 -134t-311.5 -45zM738 360q136 0 206 98t70 240q0 146 -76 245t-222 99h-152v-682h174z" />
    <glyph glyph-name="E" unicode="E" horiz-adv-x="1380" 
d="M1304 0h-1204v1402h1186v-352h-722v-172h656v-352h-656v-174h740v-352z" />
    <glyph glyph-name="F" unicode="F" horiz-adv-x="1262" 
d="M564 0h-464v1402h1128v-352h-664v-242h622v-352h-622v-456z" />
    <glyph glyph-name="G" unicode="G" horiz-adv-x="1476" 
d="M790 -20q-330 0 -545 204t-215 516q0 310 224 513t566 203q147 0 306.5 -51.5t299.5 -164.5l-262 -318q-172 148 -346 148q-132 0 -222 -91t-90 -239q0 -158 94 -246t222 -88q74 0 186 48l2 86h-210v302h600l4 -642q-165 -97 -325.5 -138.5t-288.5 -41.5z" />
    <glyph glyph-name="H" unicode="H" horiz-adv-x="1562" 
d="M1462 0h-464v506h-434v-506h-464v1402h464v-544h434v544h464v-1402z" />
    <glyph glyph-name="I" unicode="I" horiz-adv-x="664" 
d="M564 0h-464v1402h464v-1402z" />
    <glyph glyph-name="J" unicode="J" horiz-adv-x="1138" 
d="M530 -20q-326 0 -546 244l210 300q170 -158 292 -158q106 0 106 118v552h-476v366h942v-928q0 -167 -69 -276q-74 -114 -194 -166t-265 -52z" />
    <glyph glyph-name="K" unicode="K" horiz-adv-x="1546" 
d="M1546 0h-554l-296 488l-132 -148v-340h-464v1402h464v-512l418 512h534l-502 -560z" />
    <glyph glyph-name="L" unicode="L" horiz-adv-x="1168" 
d="M1148 0h-1048v1402h464v-1016h584v-386z" />
    <glyph glyph-name="M" unicode="M" horiz-adv-x="1878" 
d="M1778 0h-406v768l-282 -632h-302l-282 632v-768h-406v1402h492l348 -732l346 732h492v-1402z" />
    <glyph glyph-name="N" unicode="N" horiz-adv-x="1562" 
d="M1462 0h-388l-552 716v-716h-422v1402h388l554 -720v720h420v-1402z" />
    <glyph glyph-name="O" unicode="O" horiz-adv-x="1600" 
d="M800 -32q-332 0 -551 207t-219 529q0 318 218 523t552 205t552 -206t218 -522q0 -322 -218 -529t-552 -207zM806 354q112 0 200 90t88 258q0 160 -87 252t-201 92q-116 0 -208 -91t-92 -253q0 -160 92 -254t208 -94z" />
    <glyph glyph-name="P" unicode="P" horiz-adv-x="1372" 
d="M564 0h-464v1402h658q257 0 408 -116q166 -127 166 -386q0 -150 -59 -272t-190 -195q-127 -69 -325 -69h-194v-364zM734 716q150 0 158 170q0 156 -158 164h-170v-334h170z" />
    <glyph glyph-name="Q" unicode="Q" horiz-adv-x="1602" 
d="M1202 -354q-172 0 -285 90t-167 234q-318 28 -519 222t-201 512t218 523t552 205t552 -206t218 -522q0 -254 -119 -419t-309 -247q48 -58 110 -58q84 0 224 96l154 -274q-190 -156 -428 -156zM806 354q112 0 200 90t88 258q0 160 -87 252t-201 92q-116 0 -208 -91
t-92 -253q0 -160 92 -254t208 -94z" />
    <glyph glyph-name="R" unicode="R" horiz-adv-x="1450" 
d="M1430 0h-524l-168 364h-174v-364h-464v1402h678q168 0 304.5 -51t217.5 -166q76 -111 76 -285q0 -306 -222 -444zM778 716q150 0 158 170q0 156 -158 164h-214v-334h214z" />
    <glyph glyph-name="S" unicode="S" horiz-adv-x="1328" 
d="M718 -26q-168 0 -352 55t-350 173l172 350q152 -114 295 -168t239 -54q112 0 112 78q0 43 -54 73.5t-178 54.5q-128 28 -249 78t-197 168q-48 74 -48 194q0 224 170 343t430 119q334 0 610 -168l-168 -354q-112 67 -241 116.5t-241 49.5q-86 0 -86 -62q0 -50 56 -76
t168 -54q126 -26 252 -82t204 -176q46 -82 46 -200q0 -224 -168 -341t-422 -117z" />
    <glyph glyph-name="T" unicode="T" horiz-adv-x="1282" 
d="M872 0h-464v1036h-398v366h1262v-366h-400v-1036z" />
    <glyph glyph-name="U" unicode="U" horiz-adv-x="1482" 
d="M746 -32q-179 0 -331 67t-247 210q-88 137 -88 337v820h464v-820q0 -116 65 -172t139 -56t132 57t58 171v820h464v-820q0 -272 -172 -443t-484 -171z" />
    <glyph glyph-name="V" unicode="V" horiz-adv-x="1528" 
d="M1002 0h-480l-532 1402h496l290 -920l288 920h474z" />
    <glyph glyph-name="W" unicode="W" horiz-adv-x="2302" 
d="M1838 0h-476l-210 838l-216 -838h-476l-470 1402h496l226 -920l224 920h452l228 -920l222 920h474z" />
    <glyph glyph-name="X" unicode="X" horiz-adv-x="1546" 
d="M1556 0h-556l-236 362l-232 -362h-542l492 712l-462 690h540l204 -330l204 330h546l-454 -668z" />
    <glyph glyph-name="Y" unicode="Y" horiz-adv-x="1438" 
d="M956 0h-464v426l-512 976h462l282 -540l272 540h462l-502 -966v-436z" />
    <glyph glyph-name="Z" unicode="Z" horiz-adv-x="1366" 
d="M1326 0h-1286v290l654 756h-630v356h1248v-290l-654 -756h668v-356z" />
    <glyph glyph-name="bracketleft" unicode="[" horiz-adv-x="762" 
d="M742 -248h-634v1732h634v-332h-234v-1068h234v-332z" />
    <glyph glyph-name="backslash" unicode="\" horiz-adv-x="746" 
d="M846 -208h-376l-658 1820h376z" />
    <glyph glyph-name="bracketright" unicode="]" horiz-adv-x="762" 
d="M654 -248h-634v332h234v1068h-234v332h634v-1732z" />
    <glyph glyph-name="asciicircum" unicode="^" horiz-adv-x="1216" 
d="M1156 286h-312l-236 522l-236 -522h-312l370 760h356z" />
    <glyph glyph-name="underscore" unicode="_" horiz-adv-x="1198" 
d="M1198 -408h-1198v240h1198v-240z" />
    <glyph glyph-name="grave" unicode="`" horiz-adv-x="774" 
d="M340 1182l-276 258l340 120l222 -358z" />
    <glyph glyph-name="a" unicode="a" horiz-adv-x="1226" 
d="M396 -20q-192 0 -279 99t-87 245q0 324 424 334h250q-4 120 -170 120q-118 0 -332 -70l-100 300q300 106 540 106q139 0 254.5 -40.5t184.5 -132.5q65 -89 65 -233v-708h-442v118q-100 -138 -308 -138zM552 266q88 0 152 84v100h-156q-92 0 -96 -88q0 -90 100 -96z" />
    <glyph glyph-name="b" unicode="b" horiz-adv-x="1380" 
d="M860 -16q-176 0 -290 128v-112h-450v1484h450v-500q110 126 278 126q234 0 368 -155t134 -415q0 -104 -26.5 -203.5t-84.5 -179t-151.5 -126.5t-227.5 -47zM732 340q84 0 124 61t40 151t-40 151t-124 61q-82 0 -122 -61t-40 -151t40 -151t122 -61z" />
    <glyph glyph-name="c" unicode="c" horiz-adv-x="1122" 
d="M604 -16q-154 0 -285 60.5t-213 190.5q-76 125 -76 307q0 266 159 417t419 151q362 0 518 -316l-358 -152q-44 104 -140 104q-132 0 -144 -202q0 -84 35 -144t109 -60q94 0 134 118l364 -168q-142 -306 -522 -306z" />
    <glyph glyph-name="d" unicode="d" horiz-adv-x="1380" 
d="M532 -16q-234 0 -368 155t-134 415q0 104 26 203t83.5 178.5t151 127t229.5 47.5q180 0 290 -128v502h450v-1484h-450v110q-110 -126 -278 -126zM648 330q82 0 122 61t40 151t-40 151t-122 61q-80 0 -122 -61.5t-42 -150.5t42 -150.5t122 -61.5z" />
    <glyph glyph-name="e" unicode="e" horiz-adv-x="1228" 
d="M626 -16q-201 0 -333 73q-138 79 -200.5 207t-62.5 278q0 272 163 420t421 148q199 0 329 -79q134 -86 194.5 -225t60.5 -304l-2 -56h-712q52 -130 182 -130q116 0 222 98l234 -230q-176 -200 -496 -200zM746 654q0 148 -128 156q-114 0 -144 -156h272z" />
    <glyph glyph-name="f" unicode="f" horiz-adv-x="852" 
d="M638 0h-448v750h-150v284h150v98q0 184 129 278t325 94q128 0 254 -38l-44 -332q-66 22 -112 22q-104 -2 -104 -92v-30h212v-284h-212v-750z" />
    <glyph glyph-name="g" unicode="g" horiz-adv-x="1308" 
d="M590 -408q-312 0 -516 142l142 302q176 -96 334 -96q198 0 204 138v104q-102 -116 -274 -116q-82 0 -162 29t-145 91.5t-104 163.5t-39 244q0 173 60 287q68 121 168.5 175t213.5 54q176 0 282 -118v102h448v-1004q0 -238 -176 -368t-436 -130zM602 386q78 0 115 58
t37 138q0 84 -37 141t-115 57q-40 0 -74.5 -20t-56 -64t-21.5 -114q0 -82 38 -139t114 -57z" />
    <glyph glyph-name="h" unicode="h" horiz-adv-x="1374" 
d="M1294 0h-450v568q0 138 -130 150q-132 0 -144 -176v-542h-450v1484h450v-546q116 176 332 176q69 0 138.5 -22t126.5 -71t92 -128.5t35 -194.5v-698z" />
    <glyph glyph-name="i" unicode="i" horiz-adv-x="670" 
d="M336 1178q-108 0 -168 66t-60 162t60 162t168 66t168 -66t60 -162t-60 -162t-168 -66zM560 0h-450v1094h450v-1094z" />
    <glyph glyph-name="j" unicode="j" horiz-adv-x="680" 
d="M136 -406q-146 0 -266 46l86 314q38 -12 76 -12q88 0 88 92v1060h450v-1128q0 -184 -124 -278t-310 -94zM342 1178q-108 0 -168 66t-60 162q0 108 66 168t162 60q108 0 168 -66t60 -162t-60 -162t-168 -66z" />
    <glyph glyph-name="k" unicode="k" horiz-adv-x="1324" 
d="M1326 0h-534l-168 344l-54 -56v-288h-450v1484h450v-674l254 284h508l-398 -422z" />
    <glyph glyph-name="l" unicode="l" horiz-adv-x="748" 
d="M546 -22q-118 0 -222 48t-169 152t-65 276v1030h450v-1020q0 -100 92 -100q50 0 100 26l26 -374q-102 -38 -212 -38z" />
    <glyph glyph-name="m" unicode="m" horiz-adv-x="2064" 
d="M1984 0h-450v568q0 138 -124 150q-126 0 -138 -176v-542h-450v568q0 138 -124 150q-126 0 -138 -176v-542h-450v1094h450v-154q114 174 326 174q250 0 354 -234q112 234 358 234q96 0 184.5 -42t147.5 -138q54 -92 54 -236v-698z" />
    <glyph glyph-name="n" unicode="n" horiz-adv-x="1364" 
d="M1284 0h-450v568q0 138 -130 150q-132 0 -144 -176v-542h-450v1094h450v-156q116 176 332 176q69 0 138.5 -22t126.5 -71t92 -128.5t35 -194.5v-698z" />
    <glyph glyph-name="o" unicode="o" horiz-adv-x="1296" 
d="M648 -16q-208 0 -344 75q-142 79 -208 208t-66 281q0 266 171 414t447 148t447 -148t171 -414q0 -150 -65 -279t-208 -210q-138 -75 -345 -75zM648 330q84 0 124 61t40 151t-40 151t-124 61q-80 0 -122 -61.5t-42 -150.5t42 -150.5t122 -61.5z" />
    <glyph glyph-name="p" unicode="p" horiz-adv-x="1380" 
d="M570 -388h-450v1482h450v-110q110 126 278 126q234 0 368 -155t134 -415q0 -104 -26.5 -203.5t-84.5 -179t-151.5 -126.5t-227.5 -47q-176 0 -290 128v-500zM732 340q84 0 124 61t40 151t-40 151t-124 61q-82 0 -122 -61t-40 -151t40 -151t122 -61z" />
    <glyph glyph-name="q" unicode="q" horiz-adv-x="1380" 
d="M1260 -388h-450v498q-110 -126 -278 -126q-234 0 -368 155t-134 415q0 104 26 203t83.5 178.5t151 127t229.5 47.5q180 0 290 -128v112h450v-1482zM648 330q82 0 122 61t40 151t-40 151t-122 61q-80 0 -122 -61.5t-42 -150.5t42 -150.5t122 -61.5z" />
    <glyph glyph-name="r" unicode="r" horiz-adv-x="914" 
d="M560 0h-450v1094h450v-160q124 180 334 180v-406q-48 6 -88 6q-94 0 -170 -42t-76 -150v-522z" />
    <glyph glyph-name="s" unicode="s" horiz-adv-x="1104" 
d="M558 -20q-302 0 -534 156l136 280q224 -136 404 -136q66 0 68 32q0 20 -32 35.5t-104 32.5q-202 54 -290 112q-130 90 -130 244q0 184 138 281t344 97q262 0 508 -138l-148 -278q-244 120 -370 120q-56 0 -62 -36q0 -38 156 -78q208 -38 340 -164q72 -68 72 -188
q0 -182 -141 -277t-355 -95z" />
    <glyph glyph-name="t" unicode="t" horiz-adv-x="920" 
d="M578 -20q-140 0 -231.5 49.5t-136 134t-44.5 188.5v398h-150v284h150v306h448v-306h256v-284h-256v-330q0 -86 88 -92q38 0 112 28l76 -308q-136 -68 -312 -68z" />
    <glyph glyph-name="u" unicode="u" horiz-adv-x="1344" 
d="M462 -20q-94 0 -181.5 42t-145.5 138q-55 92 -55 236v698h450v-568q0 -138 120 -150q126 0 134 176v542h450v-1094h-450v152q-112 -172 -322 -172z" />
    <glyph glyph-name="v" unicode="v" horiz-adv-x="1224" 
d="M840 0h-460l-400 1094h462l174 -686l178 686h450z" />
    <glyph glyph-name="w" unicode="w" horiz-adv-x="1954" 
d="M1574 0h-440l-156 576l-162 -576h-440l-396 1094h456l174 -652l168 652h416l174 -652l172 652h434z" />
    <glyph glyph-name="x" unicode="x" horiz-adv-x="1308" 
d="M1318 0h-518l-146 284l-170 -284h-494l362 560l-340 534h516l126 -256l148 256h492l-340 -532z" />
    <glyph glyph-name="y" unicode="y" horiz-adv-x="1248" 
d="M338 -408q-218 0 -378 128l188 296q68 -64 146 -64q49 0 77 19.5t47 62.5l-454 1060h462l216 -624l178 624h448l-450 -1170q-128 -332 -480 -332z" />
    <glyph glyph-name="z" unicode="z" horiz-adv-x="1136" 
d="M1094 0h-1044v262l456 496h-436v336h1004v-262l-456 -496h476v-336z" />
    <glyph glyph-name="braceleft" unicode="{" horiz-adv-x="754" 
d="M732 -252h-176q-212 0 -299 67t-87 239v326q0 68 -50 68h-102v340h90q62 0 62 58v336q0 172 87 239t299 67h176v-330q-90 0 -126 -24.5t-36 -93.5v-154q0 -116 -45.5 -182.5t-146.5 -85.5q101 -19 146.5 -85.5t45.5 -182.5v-154q0 -69 36 -93.5t126 -24.5v-330z" />
    <glyph glyph-name="bar" unicode="|" horiz-adv-x="652" 
d="M492 -206h-332v1798h332v-1798z" />
    <glyph glyph-name="braceright" unicode="}" horiz-adv-x="754" 
d="M198 -252h-176v330q90 0 126 24.5t36 93.5v154q0 116 45.5 182.5t146.5 85.5q-101 19 -146.5 85.5t-45.5 182.5v154q0 69 -36 93.5t-126 24.5v330h176q212 0 299 -67t87 -239v-326q0 -68 50 -68h102v-340h-90q-62 0 -62 -54v-340q0 -172 -87 -239t-299 -67z" />
    <glyph glyph-name="asciitilde" unicode="~" horiz-adv-x="1040" 
d="M702 452q-110 0 -192 60q-38 28 -66 28q-52 0 -52 -82h-298q0 402 248 402q110 0 190 -60q38 -28 66 -28q52 0 52 82h296q0 -402 -244 -402z" />
    <glyph glyph-name="uni00A0" unicode="&#xa0;" horiz-adv-x="600" 
d="M0 0z" />
    <glyph glyph-name="exclamdown" unicode="&#xa1;" horiz-adv-x="588" 
d="M508 -310h-428v368l80 518h268l80 -518v-368zM304 698q-98 0 -152 60t-54 144q0 53 20 100t65.5 76.5t120.5 29.5q84 0 144 -54t60 -152q0 -70 -29 -115.5t-75.5 -67t-99.5 -21.5z" />
    <glyph glyph-name="cent" unicode="&#xa2;" horiz-adv-x="1200" 
d="M790 -330h-332v328q-117 22 -212 88q-216 150 -216 456q0 240 120 378t308 176v332h332v-342q230 -68 336 -292l-358 -152q-44 104 -140 104q-132 0 -144 -202q0 -84 35 -144t109 -60q94 0 134 118l364 -168q-94 -216 -336 -282v-338z" />
    <glyph glyph-name="sterling" unicode="&#xa3;" horiz-adv-x="1152" 
d="M1122 0h-1082v346h140v260h-140v140h140v182q0 172 67 281q71 113 190 163t265 50q256 0 450 -164l-168 -340q-130 118 -232 118t-106 -118v-172h318v-140h-318v-260h476v-346z" />
    <glyph glyph-name="currency" unicode="&#xa4;" horiz-adv-x="1386" 
d="M1106 -28l-210 210q-94 -44 -204 -44q-108 0 -204 42l-208 -208l-250 250l204 204q-50 102 -50 220q0 110 44 204l-198 198l250 250l194 -194q100 50 218 50q122 0 220 -50l194 194l250 -250l-198 -198q42 -96 42 -204q0 -118 -50 -218l206 -206zM692 488q62 0 111 42.5
t49 115.5q0 70 -47.5 115t-112.5 45q-73 0 -115.5 -49t-42.5 -111q0 -66 46 -112t112 -46z" />
    <glyph glyph-name="yen" unicode="&#xa5;" horiz-adv-x="1478" 
d="M976 0h-464v320h-370v140h352l-48 90h-304v140h232l-374 712h462l282 -540l272 540h462l-370 -712h230v-140h-302l-48 -90h350v-140h-362v-320z" />
    <glyph glyph-name="brokenbar" unicode="&#xa6;" horiz-adv-x="652" 
d="M492 -206h-332v678h332v-678zM492 914h-332v678h332v-678z" />
    <glyph glyph-name="section" unicode="&#xa7;" horiz-adv-x="1172" 
d="M556 -180q-286 0 -532 156l122 280q238 -136 400 -136q76 0 76 30q0 38 -158 80q-202 44 -348 172q-72 70 -72 184q0 184 182 276q-92 68 -92 176q0 144 120 247t352 103q246 0 508 -138l-134 -278q-254 120 -370 120q-66 0 -66 -30q0 -52 168 -90q192 -39 348 -174
q74 -68 74 -182q0 -182 -182 -274q92 -66 92 -178q0 -90 -48.5 -168.5t-157.5 -127t-282 -48.5zM608 554q106 0 106 38q0 35 -50 50.5t-116 15.5q-96 0 -96 -40q0 -35 46 -49.5t110 -14.5z" />
    <glyph glyph-name="dieresis" unicode="&#xa8;" horiz-adv-x="940" 
d="M268 1210q-84 0 -130 53t-46 123q0 46 18 86.5t56.5 66t101.5 25.5q60 0 99 -25t58 -65.5t19 -87.5q0 -70 -46 -123t-130 -53zM672 1210q-84 0 -130 53t-46 123q0 46 18 86.5t56.5 66t101.5 25.5q60 0 99 -25t58 -65.5t19 -87.5q0 -70 -46 -123t-130 -53z" />
    <glyph glyph-name="copyright" unicode="&#xa9;" horiz-adv-x="1414" 
d="M712 18h-16q-282 0 -474 199t-192 471v16q0 286 199 480t471 194h16q280 0 474 -199t194 -471v-16q0 -286 -199 -480t-473 -194zM704 218q216 0 348 146t132 336q0 92 -32 177.5t-93 153t-149.5 107.5t-201.5 40q-101 0 -182 -32t-141 -87.5t-97 -127.5
q-58 -110 -58 -235q0 -194 133 -336t341 -142zM714 374q-160 0 -247 98t-87 226q0 152 103 237t239 85q144 0 266 -116l-120 -144q-68 86 -142 86q-51 0 -91.5 -36.5t-40.5 -107.5t40.5 -108.5t91.5 -37.5q66 0 142 72l120 -128q-126 -126 -274 -126z" />
    <glyph glyph-name="ordfeminine" unicode="&#xaa;" horiz-adv-x="800" 
d="M256 902q-122 0 -178 61t-56 149q0 198 272 204h154q-8 56 -102 56q-78 0 -210 -38l-68 194q198 60 350 60q142 0 235 -57t93 -189v-426h-298v66q-60 -80 -192 -80zM362 1088q46 0 86 40v54h-90q-46 0 -50 -46q0 -44 54 -48z" />
    <glyph glyph-name="guillemotleft" unicode="&#xab;" horiz-adv-x="1088" 
d="M574 156h-360l-248 390l248 386h360l-212 -386zM1092 156h-360l-248 390l248 386h360l-212 -386z" />
    <glyph glyph-name="logicalnot" unicode="&#xac;" horiz-adv-x="1190" 
d="M1080 258h-320v360h-700v280h1020v-640z" />
    <glyph glyph-name="uni00AD" unicode="&#xad;" horiz-adv-x="760" 
d="M660 478h-560v280h560v-280z" />
    <glyph glyph-name="registered" unicode="&#xae;" horiz-adv-x="1414" 
d="M712 18h-16q-282 0 -474 199t-192 471v16q0 286 199 480t471 194h16q280 0 474 -199t194 -471v-16q0 -286 -199 -480t-473 -194zM704 218q216 0 348 146t132 336q0 92 -32 177.5t-93 153t-149.5 107.5t-201.5 40q-101 0 -182 -32t-141 -87.5t-97 -127.5
q-58 -110 -58 -235q0 -194 133 -336t341 -142zM1012 422h-226l-72 156h-66v-156h-200v602h282q136 0 197 -58t61 -156q0 -132 -96 -192zM730 730q66 0 68 72q0 70 -68 72h-82v-144h82z" />
    <glyph glyph-name="macron" unicode="&#xaf;" horiz-adv-x="680" 
d="M670 1268h-640v256h640v-256z" />
    <glyph glyph-name="degree" unicode="&#xb0;" horiz-adv-x="800" 
d="M414 1164q-105 0 -173.5 68.5t-68.5 173.5q0 77 36 131.5t91.5 82.5t114.5 28q102 0 170 -72q72 -68 72 -170q0 -98 -68 -170t-174 -72zM414 1330q32 0 54 22t22 54q0 42 -23.5 59t-52.5 17t-52.5 -17t-23.5 -59q0 -32 22 -54t54 -22z" />
    <glyph glyph-name="plusminus" unicode="&#xb1;" horiz-adv-x="1040" 
d="M980 -32h-920v280h920v-280zM660 386h-280v304h-320v266h320v304h280v-304h320v-266h-320v-304z" />
    <glyph glyph-name="uni00B2" unicode="&#xb2;" horiz-adv-x="792" 
d="M742 720h-698v186l304 298q58 58 58 96q0 32 -42 32q-100 0 -242 -108l-116 216q206 134 404 134q126 0 225 -57t99 -173q0 -126 -174 -286l-116 -108h298v-230z" />
    <glyph glyph-name="uni00B3" unicode="&#xb3;" horiz-adv-x="764" 
d="M374 710q-206 0 -364 116l124 228q98 -122 214 -122q78 0 78 60q0 62 -74 62h-168v156l156 136h-284v216h636v-168l-182 -158q222 -52 222 -244q0 -112 -88 -197t-270 -85z" />
    <glyph glyph-name="acute" unicode="&#xb4;" horiz-adv-x="700" 
d="M328 1182l-284 20l270 358l338 -120z" />
    <glyph glyph-name="mu" unicode="&#xb5;" horiz-adv-x="1384" 
d="M570 -388h-450v1482h450v-568q0 -138 120 -150q126 0 134 176v542h450v-1094h-450v152q-90 -140 -254 -166v-374z" />
    <glyph glyph-name="paragraph" unicode="&#xb6;" horiz-adv-x="1364" 
d="M1264 -210h-332v1446h-144v-1446h-332v796h-44q-232 0 -344 156q-88 124 -88 284q0 188 125 323t393 135h766v-1694z" />
    <glyph glyph-name="periodcentered" unicode="&#xb7;" horiz-adv-x="484" 
d="M242 360q-96 0 -162 60t-66 168q0 96 60 162t168 66t168 -66t60 -162q0 -108 -66 -168t-162 -60z" />
    <glyph glyph-name="cedilla" unicode="&#xb8;" horiz-adv-x="684" 
d="M354 -488q-124 0 -238 38l60 180q42 -14 90 -14q80 0 80 38q0 46 -148 46l72 220l236 -20l-44 -118q166 -46 166 -166q0 -108 -82 -156t-192 -48z" />
    <glyph glyph-name="uni00B9" unicode="&#xb9;" horiz-adv-x="556" 
d="M462 720h-312v604h-152v238h464v-842z" />
    <glyph glyph-name="ordmasculine" unicode="&#xba;" horiz-adv-x="838" 
d="M418 906q-192 0 -293 97t-101 243q0 117 54 192q61 80 151.5 114t188.5 34q172 0 284 -86t112 -254q0 -146 -98 -243t-298 -97zM418 1130q82 0 88 112q0 104 -88 114q-78 0 -88 -114q0 -102 88 -112z" />
    <glyph glyph-name="guillemotright" unicode="&#xbb;" horiz-adv-x="1088" 
d="M356 156h-360l212 386l-212 390h360l248 -390zM874 156h-360l212 386l-212 390h360l248 -390z" />
    <glyph glyph-name="onequarter" unicode="&#xbc;" horiz-adv-x="1814" 
d="M462 560h-312v604h-152v238h464v-842zM508 0h-298l974 1402h298zM1710 0h-290v154h-416v196l252 492h298l-232 -474h98v152h290v-152h110v-214h-110v-154z" />
    <glyph glyph-name="onehalf" unicode="&#xbd;" horiz-adv-x="1908" 
d="M462 560h-312v604h-152v238h464v-842zM508 0h-298l974 1402h298zM1858 0h-698v186l304 298q58 58 58 96q0 32 -42 32q-102 0 -242 -108l-116 216q206 134 404 134q126 0 225 -57t99 -173q0 -126 -174 -286l-116 -108h298v-230z" />
    <glyph glyph-name="threequarters" unicode="&#xbe;" horiz-adv-x="1962" 
d="M374 550q-206 0 -364 116l124 228q98 -122 214 -122q78 0 78 60q0 62 -74 62h-168v156l156 136h-284v216h636v-168l-182 -158q222 -52 222 -244q0 -112 -88 -197t-270 -85zM656 0h-298l974 1402h298zM1858 0h-290v154h-416v196l252 492h298l-232 -474h98v152h290v-152
h110v-214h-110v-154z" />
    <glyph glyph-name="questiondown" unicode="&#xbf;" horiz-adv-x="996" 
d="M460 -328q-202 0 -331 89t-129 275q0 89 45 164.5t141 153.5q152 119 152 240h334q0 -180 -166 -338q-86 -79 -86 -146q0 -84 78 -84q112 0 112 158h344q0 -142 -50.5 -258t-162.5 -187q-109 -67 -281 -67zM514 700q-98 0 -152 60t-54 144q0 53 20 100t65.5 76.5
t120.5 29.5q84 0 144 -54t60 -152q0 -70 -29 -115.5t-75.5 -67t-99.5 -21.5z" />
    <glyph glyph-name="Agrave" unicode="&#xc0;" horiz-adv-x="1598" 
d="M1618 0h-494l-70 198h-526l-72 -198h-476l592 1402h476zM722 1490l-276 258l340 120l222 -358zM940 530l-144 410l-148 -410h292z" />
    <glyph glyph-name="Aacute" unicode="&#xc1;" horiz-adv-x="1598" 
d="M1618 0h-494l-70 198h-526l-72 -198h-476l592 1402h476zM860 1490l-284 20l270 358l338 -120zM940 530l-144 410l-148 -410h292z" />
    <glyph glyph-name="Acircumflex" unicode="&#xc2;" horiz-adv-x="1598" 
d="M1618 0h-494l-70 198h-526l-72 -198h-476l592 1402h476zM1210 1504h-280l-130 144l-130 -144h-280l222 324h376zM940 530l-144 410l-148 -410h292z" />
    <glyph glyph-name="Atilde" unicode="&#xc3;" horiz-adv-x="1598" 
d="M1618 0h-494l-70 198h-526l-72 -198h-476l592 1402h476zM988 1500q-84 0 -184 54q-50 28 -82 28q-54 0 -58 -78h-234q0 356 204 356q98 0 196 -54q50 -28 80 -28q60 0 60 76h232q0 -186 -52.5 -270t-161.5 -84zM940 530l-144 410l-148 -410h292z" />
    <glyph glyph-name="Adieresis" unicode="&#xc4;" horiz-adv-x="1598" 
d="M1618 0h-494l-70 198h-526l-72 -198h-476l592 1402h476zM598 1504q-84 0 -130 53t-46 123q0 46 18 86.5t56.5 66t101.5 25.5q60 0 99 -25t58 -65.5t19 -87.5q0 -70 -46 -123t-130 -53zM940 530l-144 410l-148 -410h292zM1002 1504q-84 0 -130 53t-46 123q0 46 18 86.5
t56.5 66t101.5 25.5q60 0 99 -25t58 -65.5t19 -87.5q0 -70 -46 -123t-130 -53z" />
    <glyph glyph-name="Aring" unicode="&#xc5;" horiz-adv-x="1598" 
d="M1618 0h-494l-70 198h-526l-72 -198h-476l592 1402h476zM800 1466q-107 0 -177.5 70.5t-70.5 177.5t70.5 177.5t177.5 70.5t177.5 -70.5t70.5 -177.5t-70.5 -177.5t-177.5 -70.5zM940 530l-144 410l-148 -410h292zM800 1636q44 0 61 24.5t17 53.5q0 70 -78 78
q-29 0 -53.5 -17t-24.5 -61q0 -32 23 -55t55 -23z" />
    <glyph glyph-name="AE" unicode="&#xc6;" horiz-adv-x="2294" 
d="M2218 0h-1204v244h-434l-120 -244h-480l780 1402h1440v-352h-722v-172h656v-352h-656v-174h740v-352zM1014 576v474h-34l-234 -474h268z" />
    <glyph glyph-name="Ccedilla" unicode="&#xc7;" horiz-adv-x="1376" 
d="M712 -488q-124 0 -238 38l60 180q42 -14 90 -14q80 0 80 38q0 46 -148 46l60 182q-115 22 -220 76t-187.5 142.5t-130.5 214t-48 291.5q0 316 214 521t546 205q143 0 298 -61.5t294 -198.5l-268 -318q-150 192 -318 192q-138 0 -214 -99t-76 -235t76 -237t214 -101
q160 0 318 164l268 -286q-220 -232 -528 -278l-34 -92q166 -46 166 -166q0 -108 -82 -156t-192 -48z" />
    <glyph glyph-name="Egrave" unicode="&#xc8;" horiz-adv-x="1380" 
d="M1304 0h-1204v1402h1186v-352h-722v-172h656v-352h-656v-174h740v-352zM618 1490l-276 258l340 120l222 -358z" />
    <glyph glyph-name="Eacute" unicode="&#xc9;" horiz-adv-x="1380" 
d="M1304 0h-1204v1402h1186v-352h-722v-172h656v-352h-656v-174h740v-352zM756 1490l-284 20l270 358l338 -120z" />
    <glyph glyph-name="Ecircumflex" unicode="&#xca;" horiz-adv-x="1380" 
d="M1304 0h-1204v1402h1186v-352h-722v-172h656v-352h-656v-174h740v-352zM1106 1504h-280l-130 144l-130 -144h-280l222 324h376z" />
    <glyph glyph-name="Edieresis" unicode="&#xcb;" horiz-adv-x="1380" 
d="M1304 0h-1204v1402h1186v-352h-722v-172h656v-352h-656v-174h740v-352zM494 1504q-84 0 -130 53t-46 123q0 46 18 86.5t56.5 66t101.5 25.5q60 0 99 -25t58 -65.5t19 -87.5q0 -70 -46 -123t-130 -53zM898 1504q-84 0 -130 53t-46 123q0 46 18 86.5t56.5 66t101.5 25.5
q60 0 99 -25t58 -65.5t19 -87.5q0 -70 -46 -123t-130 -53z" />
    <glyph glyph-name="Igrave" unicode="&#xcc;" horiz-adv-x="664" 
d="M254 1490l-276 258l340 120l222 -358zM564 0h-464v1402h464v-1402z" />
    <glyph glyph-name="Iacute" unicode="&#xcd;" horiz-adv-x="664" 
d="M564 0h-464v1402h464v-1402zM392 1490l-284 20l270 358l338 -120z" />
    <glyph glyph-name="Icircumflex" unicode="&#xce;" horiz-adv-x="664" 
d="M742 1504h-280l-130 144l-130 -144h-280l222 324h376zM564 0h-464v1402h464v-1402z" />
    <glyph glyph-name="Idieresis" unicode="&#xcf;" horiz-adv-x="664" 
d="M130 1504q-84 0 -130 53t-46 123q0 46 18 86.5t56.5 66t101.5 25.5q60 0 99 -25t58 -65.5t19 -87.5q0 -70 -46 -123t-130 -53zM564 0h-464v1402h464v-1402zM534 1504q-84 0 -130 53t-46 123q0 46 18 86.5t56.5 66t101.5 25.5q60 0 99 -25t58 -65.5t19 -87.5
q0 -70 -46 -123t-130 -53z" />
    <glyph glyph-name="Eth" unicode="&#xd0;" horiz-adv-x="1518" 
d="M708 0h-608v604h-124v196h124v602h626q338 0 550 -184t212 -516q0 -172 -58 -303t-163 -220t-247.5 -134t-311.5 -45zM738 360q136 0 206 98t70 240q0 146 -76 245t-222 99h-152v-242h266v-196h-266v-244h174z" />
    <glyph glyph-name="Ntilde" unicode="&#xd1;" horiz-adv-x="1562" 
d="M1462 0h-388l-552 716v-716h-422v1402h388l554 -720v720h420v-1402zM970 1500q-86 0 -184 54q-50 28 -82 28q-56 0 -58 -78h-234q0 356 204 356q96 0 196 -54q50 -28 80 -28q60 0 60 76h232q0 -186 -52.5 -270t-161.5 -84z" />
    <glyph glyph-name="Ograve" unicode="&#xd2;" horiz-adv-x="1600" 
d="M800 -32q-332 0 -551 207t-219 529q0 318 218 523t552 205t552 -206t218 -522q0 -322 -218 -529t-552 -207zM722 1490l-276 258l340 120l222 -358zM806 354q112 0 200 90t88 258q0 160 -87 252t-201 92q-116 0 -208 -91t-92 -253q0 -160 92 -254t208 -94z" />
    <glyph glyph-name="Oacute" unicode="&#xd3;" horiz-adv-x="1600" 
d="M800 -32q-332 0 -551 207t-219 529q0 318 218 523t552 205t552 -206t218 -522q0 -322 -218 -529t-552 -207zM806 354q112 0 200 90t88 258q0 160 -87 252t-201 92q-116 0 -208 -91t-92 -253q0 -160 92 -254t208 -94zM860 1490l-284 20l270 358l338 -120z" />
    <glyph glyph-name="Ocircumflex" unicode="&#xd4;" horiz-adv-x="1600" 
d="M800 -32q-332 0 -551 207t-219 529q0 318 218 523t552 205t552 -206t218 -522q0 -322 -218 -529t-552 -207zM1210 1504h-280l-130 144l-130 -144h-280l222 324h376zM806 354q112 0 200 90t88 258q0 160 -87 252t-201 92q-116 0 -208 -91t-92 -253q0 -160 92 -254t208 -94
z" />
    <glyph glyph-name="Otilde" unicode="&#xd5;" horiz-adv-x="1600" 
d="M800 -32q-332 0 -551 207t-219 529q0 318 218 523t552 205t552 -206t218 -522q0 -322 -218 -529t-552 -207zM988 1500q-84 0 -184 54q-50 28 -82 28q-54 0 -58 -78h-234q0 356 204 356q98 0 196 -54q50 -28 80 -28q60 0 60 76h232q0 -186 -52.5 -270t-161.5 -84zM806 354
q112 0 200 90t88 258q0 160 -87 252t-201 92q-116 0 -208 -91t-92 -253q0 -160 92 -254t208 -94z" />
    <glyph glyph-name="Odieresis" unicode="&#xd6;" horiz-adv-x="1600" 
d="M800 -32q-332 0 -551 207t-219 529q0 318 218 523t552 205t552 -206t218 -522q0 -322 -218 -529t-552 -207zM598 1504q-84 0 -130 53t-46 123q0 46 18 86.5t56.5 66t101.5 25.5q60 0 99 -25t58 -65.5t19 -87.5q0 -70 -46 -123t-130 -53zM806 354q112 0 200 90t88 258
q0 160 -87 252t-201 92q-116 0 -208 -91t-92 -253q0 -160 92 -254t208 -94zM1002 1504q-84 0 -130 53t-46 123q0 46 18 86.5t56.5 66t101.5 25.5q60 0 99 -25t58 -65.5t19 -87.5q0 -70 -46 -123t-130 -53z" />
    <glyph glyph-name="multiply" unicode="&#xd7;" horiz-adv-x="1040" 
d="M746 234l-226 226l-226 -226l-198 198l226 226l-226 226l198 198l226 -226l226 226l198 -198l-226 -226l226 -226z" />
    <glyph glyph-name="Oslash" unicode="&#xd8;" horiz-adv-x="1600" 
d="M454 -110h-254l128 220q-298 200 -298 584q0 312 219 513t551 201q144 0 264 -38l82 140h254l-136 -234q306 -198 306 -582q0 -316 -218 -519t-552 -203q-144 0 -274 42zM558 504l300 512q-24 6 -52 6q-114 0 -207 -87t-93 -243q0 -106 52 -188zM806 358q112 0 200 89
t88 245q0 114 -56 200l-304 -524q40 -10 72 -10z" />
    <glyph glyph-name="Ugrave" unicode="&#xd9;" horiz-adv-x="1482" 
d="M746 -32q-179 0 -331 67t-247 210q-88 137 -88 337v820h464v-820q0 -116 65 -172t139 -56t132 57t58 171v820h464v-820q0 -272 -172 -443t-484 -171zM664 1490l-276 258l340 120l222 -358z" />
    <glyph glyph-name="Uacute" unicode="&#xda;" horiz-adv-x="1482" 
d="M746 -32q-179 0 -331 67t-247 210q-88 137 -88 337v820h464v-820q0 -116 65 -172t139 -56t132 57t58 171v820h464v-820q0 -272 -172 -443t-484 -171zM802 1490l-284 20l270 358l338 -120z" />
    <glyph glyph-name="Ucircumflex" unicode="&#xdb;" horiz-adv-x="1482" 
d="M746 -32q-179 0 -331 67t-247 210q-88 137 -88 337v820h464v-820q0 -116 65 -172t139 -56t132 57t58 171v820h464v-820q0 -272 -172 -443t-484 -171zM1152 1504h-280l-130 144l-130 -144h-280l222 324h376z" />
    <glyph glyph-name="Udieresis" unicode="&#xdc;" horiz-adv-x="1482" 
d="M746 -32q-179 0 -331 67t-247 210q-88 137 -88 337v820h464v-820q0 -116 65 -172t139 -56t132 57t58 171v820h464v-820q0 -272 -172 -443t-484 -171zM540 1504q-84 0 -130 53t-46 123q0 46 18 86.5t56.5 66t101.5 25.5q60 0 99 -25t58 -65.5t19 -87.5q0 -70 -46 -123
t-130 -53zM944 1504q-84 0 -130 53t-46 123q0 46 18 86.5t56.5 66t101.5 25.5q60 0 99 -25t58 -65.5t19 -87.5q0 -70 -46 -123t-130 -53z" />
    <glyph glyph-name="Yacute" unicode="&#xdd;" horiz-adv-x="1438" 
d="M956 0h-464v426l-512 976h462l282 -540l272 540h462l-502 -966v-436zM780 1490l-284 20l270 358l338 -120z" />
    <glyph glyph-name="Thorn" unicode="&#xde;" horiz-adv-x="1396" 
d="M564 0h-464v1402h464v-172h200q264 0 428 -130t164 -366q0 -250 -162 -390t-430 -140h-200v-204zM744 556q47 0 77 22.5t44.5 60t14.5 81.5q0 41 -13.5 77t-43.5 58.5t-79 22.5h-180v-322h180z" />
    <glyph glyph-name="germandbls" unicode="&#xdf;" horiz-adv-x="1340" 
d="M718 0h-94v316q76 0 122 6q118 16 118 124q0 122 -182 122h-58v314q152 0 152 136q0 90 -30 121t-88 31q-128 0 -128 -136v-1034h-450v992q0 175 76 288q80 117 210 170.5t284 53.5q242 0 402 -107t160 -303q0 -186 -156 -324q127 -54 185.5 -143.5t58.5 -192.5
q0 -212 -165 -323t-417 -111z" />
    <glyph glyph-name="agrave" unicode="&#xe0;" horiz-adv-x="1226" 
d="M396 -20q-192 0 -279 99t-87 245q0 324 424 334h250q-4 120 -170 120q-118 0 -332 -70l-100 300q300 106 540 106q139 0 254.5 -40.5t184.5 -132.5q65 -89 65 -233v-708h-442v118q-100 -138 -308 -138zM538 1182l-276 258l340 120l222 -358zM552 266q88 0 152 84v100
h-156q-92 0 -96 -88q0 -90 100 -96z" />
    <glyph glyph-name="aacute" unicode="&#xe1;" horiz-adv-x="1226" 
d="M396 -20q-192 0 -279 99t-87 245q0 324 424 334h250q-4 120 -170 120q-118 0 -332 -70l-100 300q300 106 540 106q139 0 254.5 -40.5t184.5 -132.5q65 -89 65 -233v-708h-442v118q-100 -138 -308 -138zM676 1182l-284 20l270 358l338 -120zM552 266q88 0 152 84v100h-156
q-92 0 -96 -88q0 -90 100 -96z" />
    <glyph glyph-name="acircumflex" unicode="&#xe2;" horiz-adv-x="1226" 
d="M396 -20q-192 0 -279 99t-87 245q0 324 424 334h250q-4 120 -170 120q-118 0 -332 -70l-100 300q300 106 540 106q139 0 254.5 -40.5t184.5 -132.5q65 -89 65 -233v-708h-442v118q-100 -138 -308 -138zM1026 1214h-280l-130 144l-130 -144h-280l222 324h376zM552 266
q88 0 152 84v100h-156q-92 0 -96 -88q0 -90 100 -96z" />
    <glyph glyph-name="atilde" unicode="&#xe3;" horiz-adv-x="1226" 
d="M396 -20q-192 0 -279 99t-87 245q0 324 424 334h250q-4 120 -170 120q-118 0 -332 -70l-100 300q300 106 540 106q139 0 254.5 -40.5t184.5 -132.5q65 -89 65 -233v-708h-442v118q-100 -138 -308 -138zM804 1188q-84 0 -184 54q-50 28 -82 28q-54 0 -58 -78h-234
q0 356 204 356q98 0 196 -54q50 -28 80 -28q60 0 60 76h232q0 -186 -52.5 -270t-161.5 -84zM552 266q88 0 152 84v100h-156q-92 0 -96 -88q0 -90 100 -96z" />
    <glyph glyph-name="adieresis" unicode="&#xe4;" horiz-adv-x="1226" 
d="M396 -20q-192 0 -279 99t-87 245q0 324 424 334h250q-4 120 -170 120q-118 0 -332 -70l-100 300q300 106 540 106q139 0 254.5 -40.5t184.5 -132.5q65 -89 65 -233v-708h-442v118q-100 -138 -308 -138zM414 1210q-84 0 -130 53t-46 123q0 46 18 86.5t56.5 66t101.5 25.5
q60 0 99 -25t58 -65.5t19 -87.5q0 -70 -46 -123t-130 -53zM552 266q88 0 152 84v100h-156q-92 0 -96 -88q0 -90 100 -96zM818 1210q-84 0 -130 53t-46 123q0 46 18 86.5t56.5 66t101.5 25.5q60 0 99 -25t58 -65.5t19 -87.5q0 -70 -46 -123t-130 -53z" />
    <glyph glyph-name="aring" unicode="&#xe5;" horiz-adv-x="1226" 
d="M396 -20q-192 0 -279 99t-87 245q0 324 424 334h250q-4 120 -170 120q-118 0 -332 -70l-100 300q300 106 540 106q139 0 254.5 -40.5t184.5 -132.5q65 -89 65 -233v-708h-442v118q-100 -138 -308 -138zM616 1158q-107 0 -177.5 70.5t-70.5 177.5t70.5 177.5t177.5 70.5
t177.5 -70.5t70.5 -177.5t-70.5 -177.5t-177.5 -70.5zM552 266q88 0 152 84v100h-156q-92 0 -96 -88q0 -90 100 -96zM616 1328q44 0 61 24.5t17 53.5q0 70 -78 78q-29 0 -53.5 -17t-24.5 -61q0 -32 23 -55t55 -23z" />
    <glyph glyph-name="ae" unicode="&#xe6;" horiz-adv-x="1916" 
d="M440 -22q-144 0 -235 45t-133 125t-42 176q0 324 426 334h254q-8 120 -172 120q-122 0 -336 -70l-100 300q302 106 542 106q220 0 350 -90q122 86 306 86q199 0 329 -80t193.5 -218t63.5 -310l-2 -56h-714q46 -130 182 -130q120 0 224 98l234 -230q-176 -200 -498 -200
q-302 0 -440 202q-126 -208 -432 -208zM554 266q86 0 156 84v100h-160q-92 0 -98 -88q0 -90 102 -96zM1434 654q0 66 -31.5 111t-98.5 45q-114 0 -144 -156h274z" />
    <glyph glyph-name="ccedilla" unicode="&#xe7;" horiz-adv-x="1122" 
d="M556 -488q-124 0 -238 38l60 180q42 -14 90 -14q80 0 80 38q0 46 -148 46l64 196q-123 23 -221 89t-155.5 178.5t-57.5 278.5q0 266 159 417t419 151q362 0 518 -316l-358 -152q-44 104 -140 104q-132 0 -144 -202q0 -84 35 -144t109 -60q94 0 134 118l364 -168
q-112 -256 -422 -300l-40 -108q166 -46 166 -166q0 -108 -82 -156t-192 -48z" />
    <glyph glyph-name="egrave" unicode="&#xe8;" horiz-adv-x="1228" 
d="M626 -16q-201 0 -333 73q-138 79 -200.5 207t-62.5 278q0 272 163 420t421 148q199 0 329 -79q134 -86 194.5 -225t60.5 -304l-2 -56h-712q52 -130 182 -130q116 0 222 98l234 -230q-176 -200 -496 -200zM528 1182l-276 258l340 120l222 -358zM746 654q0 148 -128 156
q-114 0 -144 -156h272z" />
    <glyph glyph-name="eacute" unicode="&#xe9;" horiz-adv-x="1228" 
d="M626 -16q-201 0 -333 73q-138 79 -200.5 207t-62.5 278q0 272 163 420t421 148q199 0 329 -79q134 -86 194.5 -225t60.5 -304l-2 -56h-712q52 -130 182 -130q116 0 222 98l234 -230q-176 -200 -496 -200zM666 1182l-284 20l270 358l338 -120zM746 654q0 148 -128 156
q-114 0 -144 -156h272z" />
    <glyph glyph-name="ecircumflex" unicode="&#xea;" horiz-adv-x="1228" 
d="M626 -16q-201 0 -333 73q-138 79 -200.5 207t-62.5 278q0 272 163 420t421 148q199 0 329 -79q134 -86 194.5 -225t60.5 -304l-2 -56h-712q52 -130 182 -130q116 0 222 98l234 -230q-176 -200 -496 -200zM1016 1214h-280l-130 144l-130 -144h-280l222 324h376zM746 654
q0 148 -128 156q-114 0 -144 -156h272z" />
    <glyph glyph-name="edieresis" unicode="&#xeb;" horiz-adv-x="1228" 
d="M626 -16q-201 0 -333 73q-138 79 -200.5 207t-62.5 278q0 272 163 420t421 148q199 0 329 -79q134 -86 194.5 -225t60.5 -304l-2 -56h-712q52 -130 182 -130q116 0 222 98l234 -230q-176 -200 -496 -200zM404 1210q-84 0 -130 53t-46 123q0 46 18 86.5t56.5 66
t101.5 25.5q60 0 99 -25t58 -65.5t19 -87.5q0 -70 -46 -123t-130 -53zM746 654q0 148 -128 156q-114 0 -144 -156h272zM808 1210q-84 0 -130 53t-46 123q0 46 18 86.5t56.5 66t101.5 25.5q60 0 99 -25t58 -65.5t19 -87.5q0 -70 -46 -123t-130 -53z" />
    <glyph glyph-name="igrave" unicode="&#xec;" horiz-adv-x="670" 
d="M258 1182l-276 258l340 120l222 -358zM560 0h-450v1094h450v-1094z" />
    <glyph glyph-name="iacute" unicode="&#xed;" horiz-adv-x="670" 
d="M560 0h-450v1094h450v-1094zM396 1182l-284 20l270 358l338 -120z" />
    <glyph glyph-name="icircumflex" unicode="&#xee;" horiz-adv-x="670" 
d="M746 1214h-280l-130 144l-130 -144h-280l222 324h376zM560 0h-450v1094h450v-1094z" />
    <glyph glyph-name="idieresis" unicode="&#xef;" horiz-adv-x="670" 
d="M134 1210q-84 0 -130 53t-46 123q0 46 18 86.5t56.5 66t101.5 25.5q60 0 99 -25t58 -65.5t19 -87.5q0 -70 -46 -123t-130 -53zM560 0h-450v1094h450v-1094zM538 1210q-84 0 -130 53t-46 123q0 46 18 86.5t56.5 66t101.5 25.5q60 0 99 -25t58 -65.5t19 -87.5
q0 -70 -46 -123t-130 -53z" />
    <glyph glyph-name="eth" unicode="&#xf0;" horiz-adv-x="1234" 
d="M568 -22q-106 0 -205 25.5t-176.5 82t-123 147.5t-45.5 221q0 216 129 329t325 113q168 0 290 -78q-10 158 -182 292l-356 -162l-74 152l260 120q-112 60 -242 106l302 178q150 -50 278 -132l290 134l74 -156l-210 -96q302 -278 302 -648q0 -276 -168 -452t-468 -176z
M584 348q126 0 138 126q0 118 -140 126q-122 0 -134 -124q0 -116 136 -128z" />
    <glyph glyph-name="ntilde" unicode="&#xf1;" horiz-adv-x="1364" 
d="M1284 0h-450v568q0 138 -130 150q-132 0 -144 -176v-542h-450v1094h450v-156q116 176 332 176q69 0 138.5 -22t126.5 -71t92 -128.5t35 -194.5v-698zM908 1188q-84 0 -184 54q-50 28 -82 28q-54 0 -58 -78h-234q0 356 204 356q98 0 196 -54q50 -28 80 -28q60 0 60 76h232
q0 -186 -52.5 -270t-161.5 -84z" />
    <glyph glyph-name="ograve" unicode="&#xf2;" horiz-adv-x="1296" 
d="M648 -16q-208 0 -344 75q-142 79 -208 208t-66 281q0 266 171 414t447 148t447 -148t171 -414q0 -150 -65 -279t-208 -210q-138 -75 -345 -75zM570 1182l-276 258l340 120l222 -358zM648 330q84 0 124 61t40 151t-40 151t-124 61q-80 0 -122 -61.5t-42 -150.5t42 -150.5
t122 -61.5z" />
    <glyph glyph-name="oacute" unicode="&#xf3;" horiz-adv-x="1296" 
d="M648 -16q-208 0 -344 75q-142 79 -208 208t-66 281q0 266 171 414t447 148t447 -148t171 -414q0 -150 -65 -279t-208 -210q-138 -75 -345 -75zM708 1182l-284 20l270 358l338 -120zM648 330q84 0 124 61t40 151t-40 151t-124 61q-80 0 -122 -61.5t-42 -150.5t42 -150.5
t122 -61.5z" />
    <glyph glyph-name="ocircumflex" unicode="&#xf4;" horiz-adv-x="1296" 
d="M648 -16q-208 0 -344 75q-142 79 -208 208t-66 281q0 266 171 414t447 148t447 -148t171 -414q0 -150 -65 -279t-208 -210q-138 -75 -345 -75zM1058 1214h-280l-130 144l-130 -144h-280l222 324h376zM648 330q84 0 124 61t40 151t-40 151t-124 61q-80 0 -122 -61.5
t-42 -150.5t42 -150.5t122 -61.5z" />
    <glyph glyph-name="otilde" unicode="&#xf5;" horiz-adv-x="1296" 
d="M648 -16q-208 0 -344 75q-142 79 -208 208t-66 281q0 266 171 414t447 148t447 -148t171 -414q0 -150 -65 -279t-208 -210q-138 -75 -345 -75zM836 1188q-84 0 -184 54q-50 28 -82 28q-54 0 -58 -78h-234q0 356 204 356q98 0 196 -54q50 -28 80 -28q60 0 60 76h232
q0 -186 -52.5 -270t-161.5 -84zM648 330q84 0 124 61t40 151t-40 151t-124 61q-80 0 -122 -61.5t-42 -150.5t42 -150.5t122 -61.5z" />
    <glyph glyph-name="odieresis" unicode="&#xf6;" horiz-adv-x="1296" 
d="M648 -16q-208 0 -344 75q-142 79 -208 208t-66 281q0 266 171 414t447 148t447 -148t171 -414q0 -150 -65 -279t-208 -210q-138 -75 -345 -75zM446 1210q-84 0 -130 53t-46 123q0 46 18 86.5t56.5 66t101.5 25.5q60 0 99 -25t58 -65.5t19 -87.5q0 -70 -46 -123t-130 -53z
M648 330q84 0 124 61t40 151t-40 151t-124 61q-80 0 -122 -61.5t-42 -150.5t42 -150.5t122 -61.5zM850 1210q-84 0 -130 53t-46 123q0 46 18 86.5t56.5 66t101.5 25.5q60 0 99 -25t58 -65.5t19 -87.5q0 -70 -46 -123t-130 -53z" />
    <glyph glyph-name="divide" unicode="&#xf7;" horiz-adv-x="1040" 
d="M980 518h-920v280h920v-280zM520 114q-88 0 -135 53.5t-47 128.5q0 90 55 137t127 47t127 -47t55 -137q0 -88 -53.5 -135t-128.5 -47zM520 834q-88 0 -135 53.5t-47 128.5q0 90 55 137t127 47t127 -47t55 -137q0 -88 -53.5 -135t-128.5 -47z" />
    <glyph glyph-name="oslash" unicode="&#xf8;" horiz-adv-x="1296" 
d="M264 -160h-176l170 250q-228 160 -228 458q0 266 171 414t447 148q154 0 268 -44l128 188h176l-174 -256q220 -156 220 -450q0 -150 -65 -279t-208 -210q-138 -75 -345 -75q-144 0 -258 42zM476 414l246 364q-30 14 -74 14q-63 0 -106.5 -32.5t-65.5 -89t-22 -128.5
q0 -68 22 -128zM648 292q63 0 106.5 32.5t65.5 89t22 128.5q0 74 -20 122l-244 -358q30 -14 70 -14z" />
    <glyph glyph-name="ugrave" unicode="&#xf9;" horiz-adv-x="1344" 
d="M462 -20q-94 0 -181.5 42t-145.5 138q-55 92 -55 236v698h450v-568q0 -138 120 -150q126 0 134 176v542h450v-1094h-450v152q-112 -172 -322 -172zM594 1182l-276 258l340 120l222 -358z" />
    <glyph glyph-name="uacute" unicode="&#xfa;" horiz-adv-x="1344" 
d="M462 -20q-94 0 -181.5 42t-145.5 138q-55 92 -55 236v698h450v-568q0 -138 120 -150q126 0 134 176v542h450v-1094h-450v152q-112 -172 -322 -172zM732 1182l-284 20l270 358l338 -120z" />
    <glyph glyph-name="ucircumflex" unicode="&#xfb;" horiz-adv-x="1344" 
d="M462 -20q-94 0 -181.5 42t-145.5 138q-55 92 -55 236v698h450v-568q0 -138 120 -150q126 0 134 176v542h450v-1094h-450v152q-112 -172 -322 -172zM1082 1214h-280l-130 144l-130 -144h-280l222 324h376z" />
    <glyph glyph-name="udieresis" unicode="&#xfc;" horiz-adv-x="1344" 
d="M462 -20q-94 0 -181.5 42t-145.5 138q-55 92 -55 236v698h450v-568q0 -138 120 -150q126 0 134 176v542h450v-1094h-450v152q-112 -172 -322 -172zM470 1210q-84 0 -130 53t-46 123q0 46 18 86.5t56.5 66t101.5 25.5q60 0 99 -25t58 -65.5t19 -87.5q0 -70 -46 -123
t-130 -53zM874 1210q-84 0 -130 53t-46 123q0 46 18 86.5t56.5 66t101.5 25.5q60 0 99 -25t58 -65.5t19 -87.5q0 -70 -46 -123t-130 -53z" />
    <glyph glyph-name="yacute" unicode="&#xfd;" horiz-adv-x="1248" 
d="M338 -408q-218 0 -378 128l188 296q68 -64 146 -64q49 0 77 19.5t47 62.5l-454 1060h462l216 -624l178 624h448l-450 -1170q-128 -332 -480 -332zM684 1182l-284 20l270 358l338 -120z" />
    <glyph glyph-name="thorn" unicode="&#xfe;" horiz-adv-x="1380" 
d="M570 -388h-450v1872h450v-500q110 126 278 126q234 0 368 -155t134 -415q0 -104 -26.5 -203.5t-84.5 -179t-151.5 -126.5t-227.5 -47q-176 0 -290 128v-500zM732 340q84 0 124 61t40 151t-40 151t-124 61q-82 0 -122 -61t-40 -151t40 -151t122 -61z" />
    <glyph glyph-name="ydieresis" unicode="&#xff;" horiz-adv-x="1248" 
d="M338 -408q-218 0 -378 128l188 296q68 -64 146 -64q49 0 77 19.5t47 62.5l-454 1060h462l216 -624l178 624h448l-450 -1170q-128 -332 -480 -332zM422 1210q-84 0 -130 53t-46 123q0 46 18 86.5t56.5 66t101.5 25.5q60 0 99 -25t58 -65.5t19 -87.5q0 -70 -46 -123
t-130 -53zM826 1210q-84 0 -130 53t-46 123q0 46 18 86.5t56.5 66t101.5 25.5q60 0 99 -25t58 -65.5t19 -87.5q0 -70 -46 -123t-130 -53z" />
    <glyph glyph-name="Amacron" unicode="&#x100;" horiz-adv-x="1598" 
d="M1618 0h-494l-70 198h-526l-72 -198h-476l592 1402h476zM1180 1504h-760v256h760v-256zM940 530l-144 410l-148 -410h292z" />
    <glyph glyph-name="amacron" unicode="&#x101;" horiz-adv-x="1226" 
d="M396 -20q-192 0 -279 99t-87 245q0 324 424 334h250q-4 120 -170 120q-118 0 -332 -70l-100 300q300 106 540 106q139 0 254.5 -40.5t184.5 -132.5q65 -89 65 -233v-708h-442v118q-100 -138 -308 -138zM936 1268h-640v256h640v-256zM552 266q88 0 152 84v100h-156
q-92 0 -96 -88q0 -90 100 -96z" />
    <glyph glyph-name="Abreve" unicode="&#x102;" horiz-adv-x="1598" 
d="M1618 0h-494l-70 198h-526l-72 -198h-476l592 1402h476zM800 1504q-174 0 -265 96t-103 252h270q18 -100 98 -100q82 0 98 100h270q-12 -156 -103 -252t-265 -96zM940 530l-144 410l-148 -410h292z" />
    <glyph glyph-name="abreve" unicode="&#x103;" horiz-adv-x="1226" 
d="M396 -20q-192 0 -279 99t-87 245q0 324 424 334h250q-4 120 -170 120q-118 0 -332 -70l-100 300q300 106 540 106q139 0 254.5 -40.5t184.5 -132.5q65 -89 65 -233v-708h-442v118q-100 -138 -308 -138zM616 1190q-174 0 -265 96t-103 252h270q18 -100 98 -100
q82 0 98 100h270q-12 -156 -103 -252t-265 -96zM552 266q88 0 152 84v100h-156q-92 0 -96 -88q0 -90 100 -96z" />
    <glyph glyph-name="Aogonek" unicode="&#x104;" horiz-adv-x="1598" 
d="M1254 -488q-126 0 -179 71t-53 163q0 130 102 254l-70 198h-526l-72 -198h-476l592 1402h476l570 -1402h-164q-138 -92 -138 -180q0 -48 40 -52q22 0 50 16l62 -222q-108 -50 -214 -50zM940 530l-144 410l-148 -410h292z" />
    <glyph glyph-name="aogonek" unicode="&#x105;" horiz-adv-x="1226" 
d="M832 -488q-126 0 -179 71t-53 163q0 134 104 256v116q-100 -138 -308 -138q-192 0 -279 99t-87 245q0 324 424 334h250q-4 120 -170 120q-118 0 -332 -70l-100 300q300 106 540 106q139 0 254.5 -40.5t184.5 -132.5q65 -89 65 -233v-708h-114q-138 -92 -138 -180
q0 -48 40 -52q22 0 50 16l62 -222q-108 -50 -214 -50zM552 266q88 0 152 84v100h-156q-92 0 -96 -88q0 -90 100 -96z" />
    <glyph glyph-name="Cacute" unicode="&#x106;" horiz-adv-x="1376" 
d="M772 -32q-322 0 -532 207t-210 531q0 316 214 521t546 205q143 0 298 -61.5t294 -198.5l-268 -318q-150 192 -318 192q-138 0 -214 -99t-76 -235t76 -237t214 -101q160 0 318 164l268 -286q-114 -126 -272 -205t-338 -79zM848 1490l-284 20l270 358l338 -120z" />
    <glyph glyph-name="cacute" unicode="&#x107;" horiz-adv-x="1122" 
d="M604 -16q-154 0 -285 60.5t-213 190.5q-76 125 -76 307q0 266 159 417t419 151q362 0 518 -316l-358 -152q-44 104 -140 104q-132 0 -144 -202q0 -84 35 -144t109 -60q94 0 134 118l364 -168q-142 -306 -522 -306zM656 1182l-284 20l270 358l338 -120z" />
    <glyph glyph-name="Ccircumflex" unicode="&#x108;" horiz-adv-x="1376" 
d="M772 -32q-322 0 -532 207t-210 531q0 316 214 521t546 205q143 0 298 -61.5t294 -198.5l-268 -318q-150 192 -318 192q-138 0 -214 -99t-76 -235t76 -237t214 -101q160 0 318 164l268 -286q-114 -126 -272 -205t-338 -79zM1198 1504h-280l-130 144l-130 -144h-280
l222 324h376z" />
    <glyph glyph-name="ccircumflex" unicode="&#x109;" horiz-adv-x="1122" 
d="M604 -16q-154 0 -285 60.5t-213 190.5q-76 125 -76 307q0 266 159 417t419 151q362 0 518 -316l-358 -152q-44 104 -140 104q-132 0 -144 -202q0 -84 35 -144t109 -60q94 0 134 118l364 -168q-142 -306 -522 -306zM1006 1214h-280l-130 144l-130 -144h-280l222 324h376z
" />
    <glyph glyph-name="Cdotaccent" unicode="&#x10a;" horiz-adv-x="1376" 
d="M772 -32q-322 0 -532 207t-210 531q0 316 214 521t546 205q143 0 298 -61.5t294 -198.5l-268 -318q-150 192 -318 192q-138 0 -214 -99t-76 -235t76 -237t214 -101q160 0 318 164l268 -286q-114 -126 -272 -205t-338 -79zM788 1504q-108 0 -168 66t-60 162q0 108 66 168
t162 60q108 0 168 -66t60 -162q0 -108 -66 -168t-162 -60z" />
    <glyph glyph-name="cdotaccent" unicode="&#x10b;" horiz-adv-x="1122" 
d="M604 -16q-154 0 -285 60.5t-213 190.5q-76 125 -76 307q0 266 159 417t419 151q362 0 518 -316l-358 -152q-44 104 -140 104q-132 0 -144 -202q0 -84 35 -144t109 -60q94 0 134 118l364 -168q-142 -306 -522 -306zM596 1178q-108 0 -168 66t-60 162q0 108 66 168t162 60
q108 0 168 -66t60 -162q0 -108 -66 -168t-162 -60z" />
    <glyph glyph-name="Ccaron" unicode="&#x10c;" horiz-adv-x="1376" 
d="M772 -32q-322 0 -532 207t-210 531q0 316 214 521t546 205q143 0 298 -61.5t294 -198.5l-268 -318q-150 192 -318 192q-138 0 -214 -99t-76 -235t76 -237t214 -101q160 0 318 164l268 -286q-114 -126 -272 -205t-338 -79zM976 1504h-376l-222 324h280l130 -142l130 142
h280z" />
    <glyph glyph-name="ccaron" unicode="&#x10d;" horiz-adv-x="1122" 
d="M604 -16q-154 0 -285 60.5t-213 190.5q-76 125 -76 307q0 266 159 417t419 151q362 0 518 -316l-358 -152q-44 104 -140 104q-132 0 -144 -202q0 -84 35 -144t109 -60q94 0 134 118l364 -168q-142 -306 -522 -306zM784 1214h-376l-222 324h280l130 -142l130 142h280z" />
    <glyph glyph-name="Dcaron" unicode="&#x10e;" horiz-adv-x="1518" 
d="M708 0h-608v1402h626q338 0 550 -184t212 -516q0 -172 -58 -303t-163 -220t-247.5 -134t-311.5 -45zM892 1504h-376l-222 324h280l130 -142l130 142h280zM738 360q136 0 206 98t70 240q0 146 -76 245t-222 99h-152v-682h174z" />
    <glyph glyph-name="dcaron" unicode="&#x10f;" horiz-adv-x="1656" 
d="M532 -16q-234 0 -368 155t-134 415q0 104 26 203t83.5 178.5t151 127t229.5 47.5q180 0 290 -128v502h450v-1484h-450v110q-110 -126 -278 -126zM648 330q82 0 122 61t40 151t-40 151t-122 61q-80 0 -122 -61.5t-42 -150.5t42 -150.5t122 -61.5zM1656 1022h-256v462h316z
" />
    <glyph glyph-name="Dcroat" unicode="&#x110;" horiz-adv-x="1518" 
d="M708 0h-608v604h-124v196h124v602h626q338 0 550 -184t212 -516q0 -172 -58 -303t-163 -220t-247.5 -134t-311.5 -45zM738 360q136 0 206 98t70 240q0 146 -76 245t-222 99h-152v-242h266v-196h-266v-244h174z" />
    <glyph glyph-name="dcroat" unicode="&#x111;" horiz-adv-x="1380" 
d="M532 -16q-95 0 -185 28.5t-161 91t-113.5 163.5t-42.5 245q0 100 26.5 192t85 164t152 114t226.5 42q178 0 290 -118v228h-300v200h300v150h450v-150h120v-200h-120v-1136h-450v102q-110 -116 -278 -116zM648 330q68 0 115 42t47 128q0 42 -15.5 80.5t-51 63t-95.5 24.5
q-68 0 -116 -41t-48 -127q0 -59 22.5 -96.5t59.5 -55.5t82 -18z" />
    <glyph glyph-name="Emacron" unicode="&#x112;" horiz-adv-x="1380" 
d="M1304 0h-1204v1402h1186v-352h-722v-172h656v-352h-656v-174h740v-352zM1076 1504h-760v256h760v-256z" />
    <glyph glyph-name="emacron" unicode="&#x113;" horiz-adv-x="1228" 
d="M626 -16q-201 0 -333 73q-138 79 -200.5 207t-62.5 278q0 272 163 420t421 148q199 0 329 -79q134 -86 194.5 -225t60.5 -304l-2 -56h-712q52 -130 182 -130q116 0 222 98l234 -230q-176 -200 -496 -200zM926 1268h-640v256h640v-256zM746 654q0 148 -128 156
q-114 0 -144 -156h272z" />
    <glyph glyph-name="Ebreve" unicode="&#x114;" horiz-adv-x="1380" 
d="M1304 0h-1204v1402h1186v-352h-722v-172h656v-352h-656v-174h740v-352zM696 1504q-174 0 -265 96t-103 252h270q18 -100 98 -100q82 0 98 100h270q-12 -156 -103 -252t-265 -96z" />
    <glyph glyph-name="ebreve" unicode="&#x115;" horiz-adv-x="1228" 
d="M626 -16q-201 0 -333 73q-138 79 -200.5 207t-62.5 278q0 272 163 420t421 148q199 0 329 -79q134 -86 194.5 -225t60.5 -304l-2 -56h-712q52 -130 182 -130q116 0 222 98l234 -230q-176 -200 -496 -200zM606 1190q-174 0 -265 96t-103 252h270q18 -100 98 -100
q82 0 98 100h270q-12 -156 -103 -252t-265 -96zM746 654q0 148 -128 156q-114 0 -144 -156h272z" />
    <glyph glyph-name="Edotaccent" unicode="&#x116;" horiz-adv-x="1380" 
d="M1304 0h-1204v1402h1186v-352h-722v-172h656v-352h-656v-174h740v-352zM696 1504q-108 0 -168 66t-60 162q0 108 66 168t162 60q108 0 168 -66t60 -162q0 -108 -66 -168t-162 -60z" />
    <glyph glyph-name="edotaccent" unicode="&#x117;" horiz-adv-x="1228" 
d="M626 -16q-201 0 -333 73q-138 79 -200.5 207t-62.5 278q0 272 163 420t421 148q199 0 329 -79q134 -86 194.5 -225t60.5 -304l-2 -56h-712q52 -130 182 -130q116 0 222 98l234 -230q-176 -200 -496 -200zM606 1178q-108 0 -168 66t-60 162q0 108 66 168t162 60
q108 0 168 -66t60 -162q0 -108 -66 -168t-162 -60zM746 654q0 148 -128 156q-114 0 -144 -156h272z" />
    <glyph glyph-name="Eogonek" unicode="&#x118;" horiz-adv-x="1380" 
d="M1104 -488q-126 0 -179 71t-53 163q0 130 102 254h-874v1402h1186v-352h-722v-172h656v-352h-656v-174h740v-352q-138 -92 -138 -180q0 -48 40 -52q22 0 50 16l62 -222q-108 -50 -214 -50z" />
    <glyph glyph-name="eogonek" unicode="&#x119;" horiz-adv-x="1228" 
d="M832 -488q-102 0 -171 53t-69 171q0 138 116 252l-82 -4q-201 0 -333 73q-138 79 -200.5 207t-62.5 278q0 272 163 420t421 148q199 0 329 -79q134 -86 194.5 -225t60.5 -304l-2 -56h-712q52 -130 182 -130q116 0 222 98l234 -230q-18 -20 -58 -56q-178 -182 -178 -304
q0 -56 34 -56q28 0 56 16l62 -222q-102 -50 -206 -50zM746 654q0 148 -128 156q-114 0 -144 -156h272z" />
    <glyph glyph-name="Ecaron" unicode="&#x11a;" horiz-adv-x="1380" 
d="M1304 0h-1204v1402h1186v-352h-722v-172h656v-352h-656v-174h740v-352zM884 1504h-376l-222 324h280l130 -142l130 142h280z" />
    <glyph glyph-name="ecaron" unicode="&#x11b;" horiz-adv-x="1228" 
d="M626 -16q-201 0 -333 73q-138 79 -200.5 207t-62.5 278q0 272 163 420t421 148q199 0 329 -79q134 -86 194.5 -225t60.5 -304l-2 -56h-712q52 -130 182 -130q116 0 222 98l234 -230q-176 -200 -496 -200zM794 1214h-376l-222 324h280l130 -142l130 142h280zM746 654
q0 148 -128 156q-114 0 -144 -156h272z" />
    <glyph glyph-name="Gcircumflex" unicode="&#x11c;" horiz-adv-x="1476" 
d="M790 -20q-330 0 -545 204t-215 516q0 310 224 513t566 203q147 0 306.5 -51.5t299.5 -164.5l-262 -318q-172 148 -346 148q-132 0 -222 -91t-90 -239q0 -158 94 -246t222 -88q74 0 186 48l2 86h-210v302h600l4 -642q-165 -97 -325.5 -138.5t-288.5 -41.5zM1156 1504h-280
l-130 144l-130 -144h-280l222 324h376z" />
    <glyph glyph-name="gcircumflex" unicode="&#x11d;" horiz-adv-x="1308" 
d="M590 -408q-312 0 -516 142l142 302q176 -96 334 -96q198 0 204 138v104q-102 -116 -274 -116q-82 0 -162 29t-145 91.5t-104 163.5t-39 244q0 173 60 287q68 121 168.5 175t213.5 54q176 0 282 -118v102h448v-1004q0 -238 -176 -368t-436 -130zM1032 1214h-280l-130 144
l-130 -144h-280l222 324h376zM602 386q78 0 115 58t37 138q0 84 -37 141t-115 57q-40 0 -74.5 -20t-56 -64t-21.5 -114q0 -82 38 -139t114 -57z" />
    <glyph glyph-name="Gbreve" unicode="&#x11e;" horiz-adv-x="1476" 
d="M790 -20q-330 0 -545 204t-215 516q0 310 224 513t566 203q147 0 306.5 -51.5t299.5 -164.5l-262 -318q-172 148 -346 148q-132 0 -222 -91t-90 -239q0 -158 94 -246t222 -88q74 0 186 48l2 86h-210v302h600l4 -642q-165 -97 -325.5 -138.5t-288.5 -41.5zM746 1504
q-174 0 -265 96t-103 252h270q18 -100 98 -100q82 0 98 100h270q-12 -156 -103 -252t-265 -96z" />
    <glyph glyph-name="gbreve" unicode="&#x11f;" horiz-adv-x="1308" 
d="M590 -408q-312 0 -516 142l142 302q176 -96 334 -96q198 0 204 138v104q-102 -116 -274 -116q-82 0 -162 29t-145 91.5t-104 163.5t-39 244q0 173 60 287q68 121 168.5 175t213.5 54q176 0 282 -118v102h448v-1004q0 -238 -176 -368t-436 -130zM622 1190q-174 0 -265 96
t-103 252h270q18 -100 98 -100q82 0 98 100h270q-12 -156 -103 -252t-265 -96zM602 386q78 0 115 58t37 138q0 84 -37 141t-115 57q-40 0 -74.5 -20t-56 -64t-21.5 -114q0 -82 38 -139t114 -57z" />
    <glyph glyph-name="Gdotaccent" unicode="&#x120;" horiz-adv-x="1476" 
d="M790 -20q-330 0 -545 204t-215 516q0 310 224 513t566 203q147 0 306.5 -51.5t299.5 -164.5l-262 -318q-172 148 -346 148q-132 0 -222 -91t-90 -239q0 -158 94 -246t222 -88q74 0 186 48l2 86h-210v302h600l4 -642q-165 -97 -325.5 -138.5t-288.5 -41.5zM746 1504
q-108 0 -168 66t-60 162q0 108 66 168t162 60q108 0 168 -66t60 -162q0 -108 -66 -168t-162 -60z" />
    <glyph glyph-name="gdotaccent" unicode="&#x121;" horiz-adv-x="1308" 
d="M590 -408q-312 0 -516 142l142 302q176 -96 334 -96q198 0 204 138v104q-102 -116 -274 -116q-82 0 -162 29t-145 91.5t-104 163.5t-39 244q0 173 60 287q68 121 168.5 175t213.5 54q176 0 282 -118v102h448v-1004q0 -238 -176 -368t-436 -130zM622 1178q-108 0 -168 66
t-60 162q0 108 66 168t162 60q108 0 168 -66t60 -162q0 -108 -66 -168t-162 -60zM602 386q78 0 115 58t37 138q0 84 -37 141t-115 57q-40 0 -74.5 -20t-56 -64t-21.5 -114q0 -82 38 -139t114 -57z" />
    <glyph glyph-name="uni0122" unicode="&#x122;" horiz-adv-x="1476" 
d="M790 -20q-330 0 -545 204t-215 516q0 310 224 513t566 203q147 0 306.5 -51.5t299.5 -164.5l-262 -318q-172 148 -346 148q-132 0 -222 -91t-90 -239q0 -158 94 -246t222 -88q74 0 186 48l2 86h-210v302h600l4 -642q-165 -97 -325.5 -138.5t-288.5 -41.5zM780 -488h-240
l62 366h350z" />
    <glyph glyph-name="uni0123" unicode="&#x123;" horiz-adv-x="1308" 
d="M590 -408q-312 0 -516 142l142 302q176 -96 334 -96q198 0 204 138v104q-102 -116 -274 -116q-82 0 -162 29t-145 91.5t-104 163.5t-39 244q0 173 60 287q68 121 168.5 175t213.5 54q176 0 282 -118v102h448v-1004q0 -238 -176 -368t-436 -130zM750 1216h-350l172 366
h240zM602 386q78 0 115 58t37 138q0 84 -37 141t-115 57q-40 0 -74.5 -20t-56 -64t-21.5 -114q0 -82 38 -139t114 -57z" />
    <glyph glyph-name="Hcircumflex" unicode="&#x124;" horiz-adv-x="1562" 
d="M1462 0h-464v506h-434v-506h-464v1402h464v-544h434v544h464v-1402zM1212 1504h-280l-130 144l-130 -144h-280l222 324h376z" />
    <glyph glyph-name="hcircumflex" unicode="&#x125;" horiz-adv-x="1374" 
d="M742 1604h-280l-130 144l-130 -144h-280l222 324h376zM1294 0h-450v568q0 138 -130 150q-132 0 -144 -176v-542h-450v1484h450v-546q116 176 332 176q69 0 138.5 -22t126.5 -71t92 -128.5t35 -194.5v-698z" />
    <glyph glyph-name="Hbar" unicode="&#x126;" horiz-adv-x="1764" 
d="M1560 0h-464v506h-434v-506h-464v1026h-186v196h186v180h464v-180h434v180h464v-180h182v-196h-182v-1026zM1096 858v168h-434v-168h434z" />
    <glyph glyph-name="hbar" unicode="&#x127;" horiz-adv-x="1374" 
d="M1294 0h-450v478q0 138 -130 150q-132 0 -144 -176v-452h-450v1134h-120v200h120v150h450v-150h300v-200h-300v-286q116 176 332 176q69 0 138.5 -22t126.5 -71t92 -128.5t35 -194.5v-608z" />
    <glyph glyph-name="Itilde" unicode="&#x128;" horiz-adv-x="664" 
d="M520 1500q-84 0 -184 54q-50 28 -82 28q-54 0 -58 -78h-234q0 356 204 356q98 0 196 -54q50 -28 80 -28q60 0 60 76h232q0 -186 -52.5 -270t-161.5 -84zM564 0h-464v1402h464v-1402z" />
    <glyph glyph-name="itilde" unicode="&#x129;" horiz-adv-x="670" 
d="M514 1184q-78 0 -164 50q-46 28 -74 28q-48 0 -54 -74h-234q0 356 206 356q70 0 170 -48q40 -26 70 -26q54 0 56 68h232q0 -185 -50.5 -269.5t-157.5 -84.5zM560 0h-450v1094h450v-1094z" />
    <glyph glyph-name="Imacron" unicode="&#x12a;" horiz-adv-x="664" 
d="M652 1504h-640v256h640v-256zM564 0h-464v1402h464v-1402z" />
    <glyph glyph-name="imacron" unicode="&#x12b;" horiz-adv-x="670" 
d="M636 1268h-600v256h600v-256zM560 0h-450v1094h450v-1094z" />
    <glyph glyph-name="Ibreve" unicode="&#x12c;" horiz-adv-x="664" 
d="M332 1504q-174 0 -265 96t-103 252h270q18 -100 98 -100q82 0 98 100h270q-12 -156 -103 -252t-265 -96zM564 0h-464v1402h464v-1402z" />
    <glyph glyph-name="ibreve" unicode="&#x12d;" horiz-adv-x="670" 
d="M336 1190q-174 0 -265 96t-103 252h270q18 -100 98 -100q82 0 98 100h270q-12 -156 -103 -252t-265 -96zM560 0h-450v1094h450v-1094z" />
    <glyph glyph-name="Iogonek" unicode="&#x12e;" horiz-adv-x="664" 
d="M228 -488q-126 0 -179 71t-53 163q0 134 104 256v1400h464v-1402h-136q-138 -92 -138 -180q0 -48 40 -52q22 0 50 16l62 -222q-108 -50 -214 -50z" />
    <glyph glyph-name="iogonek" unicode="&#x12f;" horiz-adv-x="670" 
d="M240 -488q-126 0 -179 71t-53 163q0 130 102 254v1094h450v-1094h-120q-138 -92 -138 -180q0 -48 40 -52q22 0 50 16l62 -222q-108 -50 -214 -50zM336 1178q-108 0 -168 66t-60 162t60 162t168 66t168 -66t60 -162t-60 -162t-168 -66z" />
    <glyph glyph-name="Idotaccent" unicode="&#x130;" horiz-adv-x="664" 
d="M564 0h-464v1402h464v-1402zM332 1504q-108 0 -168 66t-60 162q0 108 66 168t162 60q108 0 168 -66t60 -162t-60 -162t-168 -66z" />
    <glyph glyph-name="dotlessi" unicode="&#x131;" horiz-adv-x="670" 
d="M560 0h-450v1094h450v-1094z" />
    <glyph glyph-name="IJ" unicode="&#x132;" horiz-adv-x="1802" 
d="M564 0h-464v1402h464v-1402zM1194 -20q-326 0 -546 244l210 300q170 -158 292 -158q106 0 106 118v552h-476v366h942v-928q0 -167 -69 -276q-74 -114 -194 -166t-265 -52z" />
    <glyph glyph-name="ij" unicode="&#x133;" horiz-adv-x="1350" 
d="M336 1178q-108 0 -168 66t-60 162t60 162t168 66t168 -66t60 -162t-60 -162t-168 -66zM560 0h-450v1094h450v-1094zM806 -406q-146 0 -266 46l86 314q38 -12 76 -12q88 0 88 92v1060h450v-1128q0 -184 -124 -278t-310 -94zM1012 1178q-108 0 -168 66t-60 162
q0 108 66 168t162 60q108 0 168 -66t60 -162q0 -108 -66 -168t-162 -60z" />
    <glyph glyph-name="Jcircumflex" unicode="&#x134;" horiz-adv-x="1138" 
d="M530 -20q-326 0 -546 244l210 300q170 -158 292 -158q106 0 106 118v552h-476v366h942v-928q0 -167 -69 -276q-74 -114 -194 -166t-265 -52zM992 1504h-280l-130 144l-130 -144h-280l222 324h376z" />
    <glyph glyph-name="jcircumflex" unicode="&#x135;" horiz-adv-x="680" 
d="M136 -406q-146 0 -266 46l86 314q38 -12 76 -12q88 0 88 92v1060h450v-1128q0 -184 -124 -278t-310 -94zM752 1214h-280l-130 144l-130 -144h-280l222 324h376z" />
    <glyph glyph-name="uni0136" unicode="&#x136;" horiz-adv-x="1546" 
d="M1546 0h-554l-296 488l-132 -148v-340h-464v1402h464v-512l418 512h534l-502 -560zM744 -488h-240l62 366h350z" />
    <glyph glyph-name="uni0137" unicode="&#x137;" horiz-adv-x="1324" 
d="M1326 0h-534l-168 344l-54 -56v-288h-450v1484h450v-674l254 284h508l-398 -422zM664 -488h-240l62 366h350z" />
    <glyph glyph-name="kgreenlandic" unicode="&#x138;" horiz-adv-x="1310" 
d="M1312 0h-534l-168 344l-50 -52v-292h-450v1094h450v-308l250 308h508l-398 -422z" />
    <glyph glyph-name="Lacute" unicode="&#x139;" horiz-adv-x="1168" 
d="M378 1490l-284 20l270 358l338 -120zM1148 0h-1048v1402h464v-1016h584v-386z" />
    <glyph glyph-name="lacute" unicode="&#x13a;" horiz-adv-x="748" 
d="M546 -22q-118 0 -222 48t-169 152t-65 276v1030h450v-1020q0 -100 92 -100q50 0 100 26l26 -374q-102 -38 -212 -38zM376 1572l-284 20l270 358l338 -120z" />
    <glyph glyph-name="uni013B" unicode="&#x13b;" horiz-adv-x="1168" 
d="M1148 0h-1048v1402h464v-1016h584v-386zM622 -488h-240l62 366h350z" />
    <glyph glyph-name="uni013C" unicode="&#x13c;" horiz-adv-x="748" 
d="M546 -22q-118 0 -222 48t-169 152t-65 276v1030h450v-1020q0 -100 92 -100q50 0 100 26l26 -374q-102 -38 -212 -38zM452 -488h-240l62 366h350z" />
    <glyph glyph-name="Lcaron" unicode="&#x13d;" horiz-adv-x="1168" 
d="M1148 0h-1048v1402h464v-1016h584v-386zM1088 940h-256v462h316z" />
    <glyph glyph-name="lcaron" unicode="&#x13e;" horiz-adv-x="936" 
d="M546 -22q-118 0 -222 48t-169 152t-65 276v1030h450v-1020q0 -100 92 -100q50 0 100 26l26 -374q-102 -38 -212 -38zM936 1024h-256v462h316z" />
    <glyph glyph-name="Ldot" unicode="&#x13f;" horiz-adv-x="1168" 
d="M1148 0h-1048v1402h464v-1016h584v-386zM900 656q-108 0 -168 66t-60 162q0 108 66 168t162 60q108 0 168 -66t60 -162t-60 -162t-168 -66z" />
    <glyph glyph-name="ldot" unicode="&#x140;" horiz-adv-x="1058" 
d="M546 -22q-118 0 -222 48t-169 152t-65 276v1030h450v-1020q0 -100 92 -100q50 0 100 26l26 -374q-102 -38 -212 -38zM846 572q-108 0 -168 66t-60 162q0 108 66 168t162 60q108 0 168 -66t60 -162t-60 -162t-168 -66z" />
    <glyph glyph-name="Lslash" unicode="&#x141;" horiz-adv-x="1278" 
d="M1258 0h-1048v580l-180 -92v236l180 92v586h464v-352l206 104v-236l-206 -104v-428h584v-386z" />
    <glyph glyph-name="lslash" unicode="&#x142;" horiz-adv-x="896" 
d="M652 -22q-118 0 -222 48t-169 152t-65 276v106l-180 -92v236l180 92v688h450v-462l220 112v-236l-220 -112v-322q0 -100 92 -100q50 0 100 26l26 -374q-102 -38 -212 -38z" />
    <glyph glyph-name="Nacute" unicode="&#x143;" horiz-adv-x="1562" 
d="M1462 0h-388l-552 716v-716h-422v1402h388l554 -720v720h420v-1402zM842 1490l-284 20l270 358l338 -120z" />
    <glyph glyph-name="nacute" unicode="&#x144;" horiz-adv-x="1364" 
d="M1284 0h-450v568q0 138 -130 150q-132 0 -144 -176v-542h-450v1094h450v-156q116 176 332 176q69 0 138.5 -22t126.5 -71t92 -128.5t35 -194.5v-698zM780 1182l-284 20l270 358l338 -120z" />
    <glyph glyph-name="uni0145" unicode="&#x145;" horiz-adv-x="1562" 
d="M1462 0h-388l-552 716v-716h-422v1402h388l554 -720v720h420v-1402zM796 -488h-240l62 366h350z" />
    <glyph glyph-name="uni0146" unicode="&#x146;" horiz-adv-x="1364" 
d="M1284 0h-450v568q0 138 -130 150q-132 0 -144 -176v-542h-450v1094h450v-156q116 176 332 176q69 0 138.5 -22t126.5 -71t92 -128.5t35 -194.5v-698zM692 -488h-240l62 366h350z" />
    <glyph glyph-name="Ncaron" unicode="&#x147;" horiz-adv-x="1562" 
d="M1462 0h-388l-552 716v-716h-422v1402h388l554 -720v720h420v-1402zM970 1504h-376l-222 324h280l130 -142l130 142h280z" />
    <glyph glyph-name="ncaron" unicode="&#x148;" horiz-adv-x="1364" 
d="M1284 0h-450v568q0 138 -130 150q-132 0 -144 -176v-542h-450v1094h450v-156q116 176 332 176q69 0 138.5 -22t126.5 -71t92 -128.5t35 -194.5v-698zM908 1214h-376l-222 324h280l130 -142l130 142h280z" />
    <glyph glyph-name="napostrophe" unicode="&#x149;" horiz-adv-x="1718" 
d="M330 874h-230v528h290zM1638 0h-450v568q0 138 -130 150q-132 0 -144 -176v-542h-450v1094h450v-156q116 176 332 176q69 0 138.5 -22t126.5 -71t92 -128.5t35 -194.5v-698z" />
    <glyph glyph-name="Eng" unicode="&#x14a;" horiz-adv-x="1562" 
d="M934 -450q-192 0 -338 80l150 350q118 -44 188 -44q106 0 114 98l-526 682v-716h-422v1402h388l554 -720v720h420v-1402q-28 -238 -173 -344t-355 -106z" />
    <glyph glyph-name="eng" unicode="&#x14b;" horiz-adv-x="1364" 
d="M850 -406q-180 0 -314 68l100 308q60 -28 110 -28q88 0 88 92v534q0 138 -130 150q-132 0 -144 -176v-542h-450v1094h450v-156q116 176 332 176q69 0 138.5 -22t126.5 -71t92 -128.5t35 -194.5v-744q0 -154 -111 -257t-323 -103z" />
    <glyph glyph-name="Omacron" unicode="&#x14c;" horiz-adv-x="1600" 
d="M800 -32q-332 0 -551 207t-219 529q0 318 218 523t552 205t552 -206t218 -522q0 -322 -218 -529t-552 -207zM1180 1504h-760v256h760v-256zM806 354q112 0 200 90t88 258q0 160 -87 252t-201 92q-116 0 -208 -91t-92 -253q0 -160 92 -254t208 -94z" />
    <glyph glyph-name="omacron" unicode="&#x14d;" horiz-adv-x="1296" 
d="M648 -16q-208 0 -344 75q-142 79 -208 208t-66 281q0 266 171 414t447 148t447 -148t171 -414q0 -150 -65 -279t-208 -210q-138 -75 -345 -75zM968 1268h-640v256h640v-256zM648 330q84 0 124 61t40 151t-40 151t-124 61q-80 0 -122 -61.5t-42 -150.5t42 -150.5
t122 -61.5z" />
    <glyph glyph-name="Obreve" unicode="&#x14e;" horiz-adv-x="1600" 
d="M800 -32q-332 0 -551 207t-219 529q0 318 218 523t552 205t552 -206t218 -522q0 -322 -218 -529t-552 -207zM800 1504q-174 0 -265 96t-103 252h270q18 -100 98 -100q82 0 98 100h270q-12 -156 -103 -252t-265 -96zM806 354q112 0 200 90t88 258q0 160 -87 252t-201 92
q-116 0 -208 -91t-92 -253q0 -160 92 -254t208 -94z" />
    <glyph glyph-name="obreve" unicode="&#x14f;" horiz-adv-x="1296" 
d="M648 -16q-208 0 -344 75q-142 79 -208 208t-66 281q0 266 171 414t447 148t447 -148t171 -414q0 -150 -65 -279t-208 -210q-138 -75 -345 -75zM648 1190q-174 0 -265 96t-103 252h270q18 -100 98 -100q82 0 98 100h270q-12 -156 -103 -252t-265 -96zM648 330q84 0 124 61
t40 151t-40 151t-124 61q-80 0 -122 -61.5t-42 -150.5t42 -150.5t122 -61.5z" />
    <glyph glyph-name="Ohungarumlaut" unicode="&#x150;" horiz-adv-x="1600" 
d="M800 -32q-332 0 -551 207t-219 529q0 318 218 523t552 205t552 -206t218 -522q0 -322 -218 -529t-552 -207zM714 1490l-312 20l166 358l324 -106zM806 354q112 0 200 90t88 258q0 160 -87 252t-201 92q-116 0 -208 -91t-92 -253q0 -160 92 -254t208 -94zM1156 1490
l-312 20l166 358l324 -106z" />
    <glyph glyph-name="ohungarumlaut" unicode="&#x151;" horiz-adv-x="1296" 
d="M648 -16q-208 0 -344 75q-142 79 -208 208t-66 281q0 266 171 414t447 148t447 -148t171 -414q0 -150 -65 -279t-208 -210q-138 -75 -345 -75zM562 1182l-312 20l166 358l324 -106zM648 330q84 0 124 61t40 151t-40 151t-124 61q-80 0 -122 -61.5t-42 -150.5t42 -150.5
t122 -61.5zM1004 1182l-312 20l166 358l324 -106z" />
    <glyph glyph-name="OE" unicode="&#x152;" horiz-adv-x="2254" 
d="M2178 0h-1380q-330 0 -549 197t-219 501q0 302 217 503t551 201h1362v-352h-722v-172h656v-352h-656v-174h740v-352zM798 366l176 2v660h-176q-140 0 -216 -97t-76 -235q0 -136 77 -233t215 -97z" />
    <glyph glyph-name="oe" unicode="&#x153;" horiz-adv-x="1998" 
d="M1392 -16q-244 0 -368 142q-138 -142 -376 -142q-208 0 -344 75q-142 79 -208 208t-66 281q0 266 171 414t447 148q246 0 378 -144q122 144 354 144q198 0 329 -80q136 -86 197.5 -225t61.5 -303l-2 -56h-720q54 -130 186 -130q120 0 226 98l234 -230
q-176 -200 -500 -200zM648 330q84 0 124 61t40 151t-40 151t-124 61q-80 0 -122 -61.5t-42 -150.5t42 -150.5t122 -61.5zM1516 654q0 146 -132 156q-118 0 -148 -156h280z" />
    <glyph glyph-name="Racute" unicode="&#x154;" horiz-adv-x="1450" 
d="M1430 0h-524l-168 364h-174v-364h-464v1402h678q168 0 304.5 -51t217.5 -166q76 -111 76 -285q0 -306 -222 -444zM784 1490l-284 20l270 358l338 -120zM778 716q150 0 158 170q0 156 -158 164h-214v-334h214z" />
    <glyph glyph-name="racute" unicode="&#x155;" horiz-adv-x="914" 
d="M560 0h-450v1094h450v-160q124 180 334 180v-406q-48 6 -88 6q-94 0 -170 -42t-76 -150v-522zM550 1182l-284 20l270 358l338 -120z" />
    <glyph glyph-name="uni0156" unicode="&#x156;" horiz-adv-x="1450" 
d="M1430 0h-524l-168 364h-174v-364h-464v1402h678q168 0 304.5 -51t217.5 -166q76 -111 76 -285q0 -306 -222 -444zM716 -488h-240l62 366h350zM778 716q150 0 158 170q0 156 -158 164h-214v-334h214z" />
    <glyph glyph-name="uni0157" unicode="&#x157;" horiz-adv-x="914" 
d="M334 -488h-240l62 366h350zM560 0h-450v1094h450v-160q124 180 334 180v-406q-48 6 -88 6q-94 0 -170 -42t-76 -150v-522z" />
    <glyph glyph-name="Rcaron" unicode="&#x158;" horiz-adv-x="1450" 
d="M1430 0h-524l-168 364h-174v-364h-464v1402h678q168 0 304.5 -51t217.5 -166q76 -111 76 -285q0 -306 -222 -444zM912 1504h-376l-222 324h280l130 -142l130 142h280zM778 716q150 0 158 170q0 156 -158 164h-214v-334h214z" />
    <glyph glyph-name="rcaron" unicode="&#x159;" horiz-adv-x="914" 
d="M678 1214h-376l-222 324h280l130 -142l130 142h280zM560 0h-450v1094h450v-160q124 180 334 180v-406q-48 6 -88 6q-94 0 -170 -42t-76 -150v-522z" />
    <glyph glyph-name="Sacute" unicode="&#x15a;" horiz-adv-x="1328" 
d="M718 -26q-168 0 -352 55t-350 173l172 350q152 -114 295 -168t239 -54q112 0 112 78q0 43 -54 73.5t-178 54.5q-128 28 -249 78t-197 168q-48 74 -48 194q0 224 170 343t430 119q334 0 610 -168l-168 -354q-112 67 -241 116.5t-241 49.5q-86 0 -86 -62q0 -50 56 -76
t168 -54q126 -26 252 -82t204 -176q46 -82 46 -200q0 -224 -168 -341t-422 -117zM778 1490l-284 20l270 358l338 -120z" />
    <glyph glyph-name="sacute" unicode="&#x15b;" horiz-adv-x="1104" 
d="M558 -20q-302 0 -534 156l136 280q224 -136 404 -136q66 0 68 32q0 20 -32 35.5t-104 32.5q-202 54 -290 112q-130 90 -130 244q0 184 138 281t344 97q262 0 508 -138l-148 -278q-244 120 -370 120q-56 0 -62 -36q0 -38 156 -78q208 -38 340 -164q72 -68 72 -188
q0 -182 -141 -277t-355 -95zM638 1182l-284 20l270 358l338 -120z" />
    <glyph glyph-name="Scircumflex" unicode="&#x15c;" horiz-adv-x="1328" 
d="M718 -26q-168 0 -352 55t-350 173l172 350q152 -114 295 -168t239 -54q112 0 112 78q0 43 -54 73.5t-178 54.5q-128 28 -249 78t-197 168q-48 74 -48 194q0 224 170 343t430 119q334 0 610 -168l-168 -354q-112 67 -241 116.5t-241 49.5q-86 0 -86 -62q0 -50 56 -76
t168 -54q126 -26 252 -82t204 -176q46 -82 46 -200q0 -224 -168 -341t-422 -117zM1128 1504h-280l-130 144l-130 -144h-280l222 324h376z" />
    <glyph glyph-name="scircumflex" unicode="&#x15d;" horiz-adv-x="1104" 
d="M558 -20q-302 0 -534 156l136 280q224 -136 404 -136q66 0 68 32q0 20 -32 35.5t-104 32.5q-202 54 -290 112q-130 90 -130 244q0 184 138 281t344 97q262 0 508 -138l-148 -278q-244 120 -370 120q-56 0 -62 -36q0 -38 156 -78q208 -38 340 -164q72 -68 72 -188
q0 -182 -141 -277t-355 -95zM988 1214h-280l-130 144l-130 -144h-280l222 324h376z" />
    <glyph glyph-name="Scedilla" unicode="&#x15e;" horiz-adv-x="1328" 
d="M666 -488q-124 0 -238 38l60 180q42 -14 90 -14q80 0 80 38q0 46 -148 46l60 184q-316 42 -554 218l172 350q152 -114 295 -168t239 -54q112 0 112 78q0 43 -51.5 72.5t-170.5 55.5q-256 56 -380 158t-124 282q0 224 170 343t430 119q334 0 610 -168l-168 -354
q-112 67 -241 116.5t-241 49.5q-86 0 -86 -62q0 -50 56 -76t168 -54q126 -26 252 -82t204 -176q46 -82 46 -200q0 -144 -66 -239q-70 -100 -182 -152t-250 -63l-36 -96q166 -46 166 -166q0 -108 -82 -156t-192 -48z" />
    <glyph glyph-name="scedilla" unicode="&#x15f;" horiz-adv-x="1104" 
d="M526 -488q-124 0 -238 38l60 180q42 -14 90 -14q80 0 80 38q0 46 -148 46l62 188q-226 24 -408 148l136 280q224 -136 404 -136q66 0 68 32q0 36 -148 72q-408 88 -408 352q0 184 137 281t345 97q262 0 508 -138l-148 -278q-244 120 -370 120q-56 0 -62 -36
q0 -40 156 -78q412 -88 412 -352q0 -164 -105 -252t-275 -112l-40 -106q166 -46 166 -166q0 -108 -82 -156t-192 -48z" />
    <glyph glyph-name="Scaron" unicode="&#x160;" horiz-adv-x="1328" 
d="M718 -26q-168 0 -352 55t-350 173l172 350q152 -114 295 -168t239 -54q112 0 112 78q0 43 -54 73.5t-178 54.5q-128 28 -249 78t-197 168q-48 74 -48 194q0 224 170 343t430 119q334 0 610 -168l-168 -354q-112 67 -241 116.5t-241 49.5q-86 0 -86 -62q0 -50 56 -76
t168 -54q126 -26 252 -82t204 -176q46 -82 46 -200q0 -224 -168 -341t-422 -117zM906 1504h-376l-222 324h280l130 -142l130 142h280z" />
    <glyph glyph-name="scaron" unicode="&#x161;" horiz-adv-x="1104" 
d="M558 -20q-302 0 -534 156l136 280q224 -136 404 -136q66 0 68 32q0 20 -32 35.5t-104 32.5q-202 54 -290 112q-130 90 -130 244q0 184 138 281t344 97q262 0 508 -138l-148 -278q-244 120 -370 120q-56 0 -62 -36q0 -38 156 -78q208 -38 340 -164q72 -68 72 -188
q0 -182 -141 -277t-355 -95zM766 1214h-376l-222 324h280l130 -142l130 142h280z" />
    <glyph glyph-name="uni0162" unicode="&#x162;" horiz-adv-x="1282" 
d="M616 -488q-124 0 -238 38l60 180q42 -14 90 -14q80 0 80 38q0 46 -148 46l66 200h-118v1036h-398v366h1262v-366h-400v-1036h-104l-44 -118q166 -46 166 -166q0 -108 -82 -156t-192 -48z" />
    <glyph glyph-name="uni0163" unicode="&#x163;" horiz-adv-x="920" 
d="M540 -488q-124 0 -238 38l60 180q42 -14 90 -14q80 0 80 38q0 46 -148 46l64 194q-282 82 -282 358v398h-150v284h150v306h448v-306h256v-284h-256v-330q0 -86 88 -92q38 0 112 28l76 -308q-82 -46 -202 -60l-40 -106q166 -46 166 -166q0 -108 -82 -156t-192 -48z" />
    <glyph glyph-name="Tcaron" unicode="&#x164;" horiz-adv-x="1282" 
d="M872 0h-464v1036h-398v366h1262v-366h-400v-1036zM862 1504h-376l-222 324h280l130 -142l130 142h280z" />
    <glyph glyph-name="tcaron" unicode="&#x165;" horiz-adv-x="920" 
d="M578 -20q-140 0 -231.5 49.5t-136 134t-44.5 188.5v398h-150v284h150v306h448v-306h256v-284h-256v-330q0 -86 88 -92q38 0 112 28l76 -308q-136 -68 -312 -68zM970 1122h-256v362h296z" />
    <glyph glyph-name="Tbar" unicode="&#x166;" horiz-adv-x="1282" 
d="M872 0h-464v480h-224v238h224v318h-398v366h1262v-366h-400v-318h222v-238h-222v-480z" />
    <glyph glyph-name="tbar" unicode="&#x167;" horiz-adv-x="920" 
d="M578 -20q-140 0 -231.5 49.5t-136 134t-44.5 188.5v112h-150v238h150v98h-150v234h150v306h448v-306h256v-234h-256v-98h256v-238h-256v-44q0 -86 88 -92q38 0 112 28l76 -308q-136 -68 -312 -68z" />
    <glyph glyph-name="Utilde" unicode="&#x168;" horiz-adv-x="1482" 
d="M746 -32q-179 0 -331 67t-247 210q-88 137 -88 337v820h464v-820q0 -116 65 -172t139 -56t132 57t58 171v820h464v-820q0 -272 -172 -443t-484 -171zM930 1500q-86 0 -184 54q-50 28 -82 28q-56 0 -58 -78h-234q0 356 204 356q96 0 196 -54q50 -28 80 -28q60 0 60 76h232
q0 -186 -52.5 -270t-161.5 -84z" />
    <glyph glyph-name="utilde" unicode="&#x169;" horiz-adv-x="1344" 
d="M462 -20q-94 0 -181.5 42t-145.5 138q-55 92 -55 236v698h450v-568q0 -138 120 -150q126 0 134 176v542h450v-1094h-450v152q-112 -172 -322 -172zM860 1188q-84 0 -184 54q-50 28 -82 28q-54 0 -58 -78h-234q0 356 204 356q98 0 196 -54q50 -28 80 -28q60 0 60 76h232
q0 -186 -52.5 -270t-161.5 -84z" />
    <glyph glyph-name="Umacron" unicode="&#x16a;" horiz-adv-x="1482" 
d="M746 -32q-179 0 -331 67t-247 210q-88 137 -88 337v820h464v-820q0 -116 65 -172t139 -56t132 57t58 171v820h464v-820q0 -272 -172 -443t-484 -171zM1122 1504h-760v256h760v-256z" />
    <glyph glyph-name="umacron" unicode="&#x16b;" horiz-adv-x="1344" 
d="M462 -20q-94 0 -181.5 42t-145.5 138q-55 92 -55 236v698h450v-568q0 -138 120 -150q126 0 134 176v542h450v-1094h-450v152q-112 -172 -322 -172zM992 1268h-640v256h640v-256z" />
    <glyph glyph-name="Ubreve" unicode="&#x16c;" horiz-adv-x="1482" 
d="M746 -32q-179 0 -331 67t-247 210q-88 137 -88 337v820h464v-820q0 -116 65 -172t139 -56t132 57t58 171v820h464v-820q0 -272 -172 -443t-484 -171zM742 1504q-174 0 -265 96t-103 252h270q18 -100 98 -100q82 0 98 100h270q-12 -156 -103 -252t-265 -96z" />
    <glyph glyph-name="ubreve" unicode="&#x16d;" horiz-adv-x="1344" 
d="M462 -20q-94 0 -181.5 42t-145.5 138q-55 92 -55 236v698h450v-568q0 -138 120 -150q126 0 134 176v542h450v-1094h-450v152q-112 -172 -322 -172zM672 1190q-174 0 -265 96t-103 252h270q18 -100 98 -100q82 0 98 100h270q-12 -156 -103 -252t-265 -96z" />
    <glyph glyph-name="Uring" unicode="&#x16e;" horiz-adv-x="1482" 
d="M746 -32q-179 0 -331 67t-247 210q-88 137 -88 337v820h464v-820q0 -116 65 -172t139 -56t132 57t58 171v820h464v-820q0 -272 -172 -443t-484 -171zM742 1466q-107 0 -177.5 70.5t-70.5 177.5t70.5 177.5t177.5 70.5t177.5 -70.5t70.5 -177.5t-70.5 -177.5t-177.5 -70.5
zM742 1636q44 0 61 24.5t17 53.5q0 70 -78 78q-29 0 -53.5 -17t-24.5 -61q0 -32 23 -55t55 -23z" />
    <glyph glyph-name="uring" unicode="&#x16f;" horiz-adv-x="1344" 
d="M462 -20q-94 0 -181.5 42t-145.5 138q-55 92 -55 236v698h450v-568q0 -138 120 -150q126 0 134 176v542h450v-1094h-450v152q-112 -172 -322 -172zM672 1158q-107 0 -177.5 70.5t-70.5 177.5t70.5 177.5t177.5 70.5t177.5 -70.5t70.5 -177.5t-70.5 -177.5t-177.5 -70.5z
M672 1328q44 0 61 24.5t17 53.5q0 70 -78 78q-29 0 -53.5 -17t-24.5 -61q0 -32 23 -55t55 -23z" />
    <glyph glyph-name="Uhungarumlaut" unicode="&#x170;" horiz-adv-x="1482" 
d="M746 -32q-179 0 -331 67t-247 210q-88 137 -88 337v820h464v-820q0 -116 65 -172t139 -56t132 57t58 171v820h464v-820q0 -272 -172 -443t-484 -171zM656 1490l-312 20l166 358l324 -106zM1098 1490l-312 20l166 358l324 -106z" />
    <glyph glyph-name="uhungarumlaut" unicode="&#x171;" horiz-adv-x="1344" 
d="M462 -20q-94 0 -181.5 42t-145.5 138q-55 92 -55 236v698h450v-568q0 -138 120 -150q126 0 134 176v542h450v-1094h-450v152q-112 -172 -322 -172zM586 1182l-312 20l166 358l324 -106zM1028 1182l-312 20l166 358l324 -106z" />
    <glyph glyph-name="Uogonek" unicode="&#x172;" horiz-adv-x="1482" 
d="M980 -488q-102 0 -171 53t-69 171q0 132 102 236l-96 -4q-179 0 -331 67t-247 210q-88 137 -88 337v820h464v-820q0 -116 65 -172t139 -56t132 57t58 171v820h464v-820q0 -306 -212 -476q-156 -168 -156 -282q0 -56 34 -56q28 0 56 16l62 -222q-102 -50 -206 -50z" />
    <glyph glyph-name="uogonek" unicode="&#x173;" horiz-adv-x="1344" 
d="M910 -488q-126 0 -179 71t-53 163q0 130 106 260v146q-112 -172 -322 -172q-94 0 -181.5 42t-145.5 138q-55 92 -55 236v698h450v-568q0 -138 120 -150q126 0 134 176v542h450v-1094h-124q-138 -92 -138 -180q0 -48 40 -52q22 0 50 16l62 -222q-108 -50 -214 -50z" />
    <glyph glyph-name="Wcircumflex" unicode="&#x174;" horiz-adv-x="2302" 
d="M1838 0h-476l-210 838l-216 -838h-476l-470 1402h496l226 -920l224 920h452l228 -920l222 920h474zM1562 1504h-280l-130 144l-130 -144h-280l222 324h376z" />
    <glyph glyph-name="wcircumflex" unicode="&#x175;" horiz-adv-x="1954" 
d="M1574 0h-440l-156 576l-162 -576h-440l-396 1094h456l174 -652l168 652h416l174 -652l172 652h434zM1388 1214h-280l-130 144l-130 -144h-280l222 324h376z" />
    <glyph glyph-name="Ycircumflex" unicode="&#x176;" horiz-adv-x="1438" 
d="M956 0h-464v426l-512 976h462l282 -540l272 540h462l-502 -966v-436zM1130 1504h-280l-130 144l-130 -144h-280l222 324h376z" />
    <glyph glyph-name="ycircumflex" unicode="&#x177;" horiz-adv-x="1248" 
d="M338 -408q-218 0 -378 128l188 296q68 -64 146 -64q49 0 77 19.5t47 62.5l-454 1060h462l216 -624l178 624h448l-450 -1170q-128 -332 -480 -332zM1034 1214h-280l-130 144l-130 -144h-280l222 324h376z" />
    <glyph glyph-name="Ydieresis" unicode="&#x178;" horiz-adv-x="1438" 
d="M956 0h-464v426l-512 976h462l282 -540l272 540h462l-502 -966v-436zM518 1504q-84 0 -130 53t-46 123q0 46 18 86.5t56.5 66t101.5 25.5q60 0 99 -25t58 -65.5t19 -87.5q0 -70 -46 -123t-130 -53zM922 1504q-84 0 -130 53t-46 123q0 46 18 86.5t56.5 66t101.5 25.5
q60 0 99 -25t58 -65.5t19 -87.5q0 -70 -46 -123t-130 -53z" />
    <glyph glyph-name="Zacute" unicode="&#x179;" horiz-adv-x="1366" 
d="M1326 0h-1286v290l654 756h-630v356h1248v-290l-654 -756h668v-356zM748 1490l-284 20l270 358l338 -120z" />
    <glyph glyph-name="zacute" unicode="&#x17a;" horiz-adv-x="1136" 
d="M1094 0h-1044v262l456 496h-436v336h1004v-262l-456 -496h476v-336zM628 1182l-284 20l270 358l338 -120z" />
    <glyph glyph-name="Zdotaccent" unicode="&#x17b;" horiz-adv-x="1366" 
d="M1326 0h-1286v290l654 756h-630v356h1248v-290l-654 -756h668v-356zM688 1504q-108 0 -168 66t-60 162q0 108 66 168t162 60q108 0 168 -66t60 -162q0 -108 -66 -168t-162 -60z" />
    <glyph glyph-name="zdotaccent" unicode="&#x17c;" horiz-adv-x="1136" 
d="M1094 0h-1044v262l456 496h-436v336h1004v-262l-456 -496h476v-336zM568 1178q-108 0 -168 66t-60 162q0 108 66 168t162 60q108 0 168 -66t60 -162q0 -108 -66 -168t-162 -60z" />
    <glyph glyph-name="Zcaron" unicode="&#x17d;" horiz-adv-x="1366" 
d="M1326 0h-1286v290l654 756h-630v356h1248v-290l-654 -756h668v-356zM876 1504h-376l-222 324h280l130 -142l130 142h280z" />
    <glyph glyph-name="zcaron" unicode="&#x17e;" horiz-adv-x="1136" 
d="M1094 0h-1044v262l456 496h-436v336h1004v-262l-456 -496h476v-336zM756 1214h-376l-222 324h280l130 -142l130 142h280z" />
    <glyph glyph-name="longs" unicode="&#x17f;" horiz-adv-x="852" 
d="M638 0h-448v1132q0 184 129 278t325 94q128 0 254 -38l-44 -332q-66 22 -112 22q-104 -2 -104 -92v-1064z" />
    <glyph glyph-name="uni018F" unicode="&#x18f;" horiz-adv-x="1600" 
d="M800 -32q-242 0 -410 108q-175 116 -257.5 304.5t-82.5 415.5h1014q-60 250 -258 250q-164 0 -260 -170l-318 330q222 226 572 226q326 0 538 -206t212 -522q0 -322 -211 -529t-539 -207zM806 354q188 0 244 188h-496q68 -188 252 -188z" />
    <glyph glyph-name="florin" unicode="&#x192;" horiz-adv-x="888" 
d="M54 -408q-162 0 -268 78l108 308q56 -38 104 -38q82 4 96 92l76 618h-150l34 284h152l24 198q24 130 90.5 212t166.5 121t221 39q180 0 330 -78l-148 -308q-56 38 -106 38q-102 0 -116 -92l-16 -130h212l-34 -284h-212l-84 -686q-34 -190 -165 -281t-315 -91z" />
    <glyph glyph-name="Ohorn" unicode="&#x1a0;" horiz-adv-x="1664" 
d="M800 -32q-332 0 -551 207t-219 529q0 318 218 523t552 205q206 0 370 -82l28 -2q63 0 88.5 38t25.5 92q0 60 -40 124l320 116q60 -128 60 -236q0 -60 -36 -161t-200 -163q154 -190 154 -454q0 -322 -218 -529t-552 -207zM806 354q112 0 200 90t88 258q0 160 -87 252
t-201 92q-116 0 -208 -91t-92 -253q0 -160 92 -254t208 -94z" />
    <glyph glyph-name="ohorn" unicode="&#x1a1;" horiz-adv-x="1392" 
d="M648 -16q-208 0 -344 75q-142 79 -208 208t-66 281q0 266 171 414t447 148q184 0 320 -66l32 -4q63 0 88.5 38t25.5 92q0 60 -40 124l320 116q60 -130 60 -236q0 -66 -40 -170t-222 -162q74 -124 74 -294q0 -150 -65 -279t-208 -210q-138 -75 -345 -75zM648 330
q84 0 124 61t40 151t-40 151t-124 61q-80 0 -122 -61.5t-42 -150.5t42 -150.5t122 -61.5z" />
    <glyph glyph-name="Uhorn" unicode="&#x1af;" horiz-adv-x="1608" 
d="M746 -32q-179 0 -331 67t-247 210q-88 137 -88 337v820h464v-820q0 -116 65 -172t139 -56t132 57t58 171v820h304q100 0 100 102q0 54 -34 100l306 114q48 -122 48 -220q0 -62 -39 -155t-221 -137v-624q0 -272 -172 -443t-484 -171z" />
    <glyph glyph-name="uhorn" unicode="&#x1b0;" horiz-adv-x="1416" 
d="M462 -20q-94 0 -181.5 42t-145.5 138q-55 92 -55 236v698h450v-568q0 -138 120 -150q126 0 134 176v542h290q100 0 100 102q0 54 -34 100l306 114q48 -122 48 -220q0 -62 -39 -155t-221 -137v-898h-450v152q-112 -172 -322 -172z" />
    <glyph glyph-name="uni01C4" unicode="&#x1c4;" horiz-adv-x="2884" 
d="M708 0h-608v1402h626q338 0 550 -184t212 -516q0 -172 -58 -303t-163 -220t-247.5 -134t-311.5 -45zM738 360q136 0 206 98t70 240q0 146 -76 245t-222 99h-152v-682h174zM2844 0h-1286v290l654 756h-630v356h1248v-290l-654 -756h668v-356zM2394 1504h-376l-222 324h280
l130 -142l130 142h280z" />
    <glyph glyph-name="uni01C5" unicode="&#x1c5;" horiz-adv-x="2654" 
d="M708 0h-608v1402h626q338 0 550 -184t212 -516q0 -172 -58 -303t-163 -220t-247.5 -134t-311.5 -45zM738 360q136 0 206 98t70 240q0 146 -76 245t-222 99h-152v-682h174zM2612 0h-1044v262l456 496h-436v336h1004v-262l-456 -496h476v-336zM2274 1214h-376l-222 324h280
l130 -142l130 142h280z" />
    <glyph glyph-name="uni01C6" unicode="&#x1c6;" horiz-adv-x="2516" 
d="M532 -16q-234 0 -368 155t-134 415q0 104 26 203t83.5 178.5t151 127t229.5 47.5q180 0 290 -128v502h450v-1484h-450v110q-110 -126 -278 -126zM648 330q82 0 122 61t40 151t-40 151t-122 61q-80 0 -122 -61.5t-42 -150.5t42 -150.5t122 -61.5zM2474 0h-1044v262
l456 496h-436v336h1004v-262l-456 -496h476v-336zM2136 1214h-376l-222 324h280l130 -142l130 142h280z" />
    <glyph glyph-name="uni01C7" unicode="&#x1c7;" horiz-adv-x="2306" 
d="M1148 0h-1048v1402h464v-1016h584v-386zM1698 -20q-326 0 -546 244l210 300q170 -158 292 -158q106 0 106 118v552h-476v366h942v-928q0 -167 -69 -276q-74 -114 -194 -166t-265 -52z" />
    <glyph glyph-name="uni01C8" unicode="&#x1c8;" horiz-adv-x="1848" 
d="M1148 0h-1048v1402h464v-1016h584v-386zM1304 -406q-146 0 -266 46l86 314q40 -12 76 -12q88 0 88 92v1060h450v-1128q0 -184 -124 -278t-310 -94zM1510 1178q-108 0 -168 66t-60 162q0 108 66 168t162 60q108 0 168 -66t60 -162q0 -108 -66 -168t-162 -60z" />
    <glyph glyph-name="uni01C9" unicode="&#x1c9;" horiz-adv-x="1428" 
d="M546 -22q-118 0 -222 48t-169 152t-65 276v1030h450v-1020q0 -100 92 -100q50 0 100 26l26 -374q-102 -38 -212 -38zM884 -406q-146 0 -266 46l86 314q40 -12 76 -12q88 0 88 92v1060h450v-1128q0 -184 -124 -278t-310 -94zM1090 1178q-108 0 -168 66t-60 162
q0 108 66 168t162 60q108 0 168 -66t60 -162t-60 -162t-168 -66z" />
    <glyph glyph-name="uni01CA" unicode="&#x1ca;" horiz-adv-x="2700" 
d="M1462 0h-388l-552 716v-716h-422v1402h388l554 -720v720h420v-1402zM2092 -20q-326 0 -546 244l210 300q170 -158 292 -158q106 0 106 118v552h-476v366h942v-928q0 -167 -69 -276q-74 -114 -194 -166t-265 -52z" />
    <glyph glyph-name="uni01CB" unicode="&#x1cb;" horiz-adv-x="2242" 
d="M1462 0h-388l-552 716v-716h-422v1402h388l554 -720v720h420v-1402zM1698 -406q-146 0 -266 46l86 314q38 -12 76 -12q88 0 88 92v1060h450v-1128q0 -184 -124 -278t-310 -94zM1904 1178q-108 0 -168 66t-60 162q0 108 66 168t162 60q108 0 168 -66t60 -162
q0 -108 -66 -168t-162 -60z" />
    <glyph glyph-name="uni01CC" unicode="&#x1cc;" horiz-adv-x="2044" 
d="M1284 0h-450v568q0 138 -130 150q-132 0 -144 -176v-542h-450v1094h450v-156q116 176 332 176q69 0 138.5 -22t126.5 -71t92 -128.5t35 -194.5v-698zM1500 -406q-146 0 -266 46l86 314q40 -12 76 -12q88 0 88 92v1060h450v-1128q0 -184 -124 -278t-310 -94zM1706 1178
q-108 0 -168 66t-60 162q0 108 66 168t162 60q108 0 168 -66t60 -162q0 -108 -66 -168t-162 -60z" />
    <glyph glyph-name="uni01CD" unicode="&#x1cd;" horiz-adv-x="1598" 
d="M1618 0h-494l-70 198h-526l-72 -198h-476l592 1402h476zM940 530l-144 410l-148 -410h292zM998 1504h-376l-222 324h280l130 -142l130 142h280z" />
    <glyph glyph-name="uni01CE" unicode="&#x1ce;" horiz-adv-x="1226" 
d="M396 -20q-192 0 -279 99t-87 245q0 324 424 334h250q-4 120 -170 120q-118 0 -332 -70l-100 300q300 106 540 106q139 0 254.5 -40.5t184.5 -132.5q65 -89 65 -233v-708h-442v118q-100 -138 -308 -138zM552 266q88 0 152 84v100h-156q-92 0 -96 -88q0 -90 100 -96z
M815 1214h-376l-222 324h280l130 -142l130 142h280z" />
    <glyph glyph-name="uni01CF" unicode="&#x1cf;" horiz-adv-x="664" 
d="M564 0h-464v1402h464v-1402zM520 1504h-376l-222 324h280l130 -142l130 142h280z" />
    <glyph glyph-name="uni01D0" unicode="&#x1d0;" horiz-adv-x="670" 
d="M560 0h-450v1094h450v-1094zM523 1214h-376l-222 324h280l130 -142l130 142h280z" />
    <glyph glyph-name="uni01D1" unicode="&#x1d1;" horiz-adv-x="1600" 
d="M800 -32q-332 0 -551 207t-219 529q0 318 218 523t552 205t552 -206t218 -522q0 -322 -218 -529t-552 -207zM806 354q112 0 200 90t88 258q0 160 -87 252t-201 92q-116 0 -208 -91t-92 -253q0 -160 92 -254t208 -94zM988 1504h-376l-222 324h280l130 -142l130 142h280z
" />
    <glyph glyph-name="uni01D2" unicode="&#x1d2;" horiz-adv-x="1296" 
d="M648 -16q-208 0 -344 75q-142 79 -208 208t-66 281q0 266 171 414t447 148t447 -148t171 -414q0 -150 -65 -279t-208 -210q-138 -75 -345 -75zM648 330q84 0 124 61t40 151t-40 151t-124 61q-80 0 -122 -61.5t-42 -150.5t42 -150.5t122 -61.5zM836 1214h-376l-222 324
h280l130 -142l130 142h280z" />
    <glyph glyph-name="uni01D3" unicode="&#x1d3;" horiz-adv-x="1482" 
d="M746 -32q-179 0 -331 67t-247 210q-88 137 -88 337v820h464v-820q0 -116 65 -172t139 -56t132 57t58 171v820h464v-820q0 -272 -172 -443t-484 -171zM929 1504h-376l-222 324h280l130 -142l130 142h280z" />
    <glyph glyph-name="uni01D4" unicode="&#x1d4;" horiz-adv-x="1344" 
d="M462 -20q-94 0 -181.5 42t-145.5 138q-55 92 -55 236v698h450v-568q0 -138 120 -150q126 0 134 176v542h450v-1094h-450v152q-112 -172 -322 -172zM845 1214h-376l-222 324h280l130 -142l130 142h280z" />
    <glyph glyph-name="uni01D5" unicode="&#x1d5;" horiz-adv-x="1482" 
d="M746 -32q-179 0 -331 67t-247 210q-88 137 -88 337v820h464v-820q0 -116 65 -172t139 -56t132 57t58 171v820h464v-820q0 -272 -172 -443t-484 -171zM540 1504q-84 0 -130 53t-46 123q0 46 18 86.5t56.5 66t101.5 25.5q60 0 99 -25t58 -65.5t19 -87.5q0 -70 -46 -123
t-130 -53zM944 1504q-84 0 -130 53t-46 123q0 46 18 86.5t56.5 66t101.5 25.5q60 0 99 -25t58 -65.5t19 -87.5q0 -70 -46 -123t-130 -53zM1121 1960h-760v256h760v-256z" />
    <glyph glyph-name="uni01D6" unicode="&#x1d6;" horiz-adv-x="1344" 
d="M462 -20q-94 0 -181.5 42t-145.5 138q-55 92 -55 236v698h450v-568q0 -138 120 -150q126 0 134 176v542h450v-1094h-450v152q-112 -172 -322 -172zM470 1210q-84 0 -130 53t-46 123q0 46 18 86.5t56.5 66t101.5 25.5q60 0 99 -25t58 -65.5t19 -87.5q0 -70 -46 -123
t-130 -53zM874 1210q-84 0 -130 53t-46 123q0 46 18 86.5t56.5 66t101.5 25.5q60 0 99 -25t58 -65.5t19 -87.5q0 -70 -46 -123t-130 -53zM977 1738h-640v256h640v-256z" />
    <glyph glyph-name="uni01D7" unicode="&#x1d7;" horiz-adv-x="1482" 
d="M746 -32q-179 0 -331 67t-247 210q-88 137 -88 337v820h464v-820q0 -116 65 -172t139 -56t132 57t58 171v820h464v-820q0 -272 -172 -443t-484 -171zM540 1504q-84 0 -130 53t-46 123q0 46 18 86.5t56.5 66t101.5 25.5q60 0 99 -25t58 -65.5t19 -87.5q0 -70 -46 -123
t-130 -53zM944 1504q-84 0 -130 53t-46 123q0 46 18 86.5t56.5 66t101.5 25.5q60 0 99 -25t58 -65.5t19 -87.5q0 -70 -46 -123t-130 -53zM822 1946l-284 20l270 358l338 -120z" />
    <glyph glyph-name="uni01D8" unicode="&#x1d8;" horiz-adv-x="1344" 
d="M462 -20q-94 0 -181.5 42t-145.5 138q-55 92 -55 236v698h450v-568q0 -138 120 -150q126 0 134 176v542h450v-1094h-450v152q-112 -172 -322 -172zM470 1210q-84 0 -130 53t-46 123q0 46 18 86.5t56.5 66t101.5 25.5q60 0 99 -25t58 -65.5t19 -87.5q0 -70 -46 -123
t-130 -53zM874 1210q-84 0 -130 53t-46 123q0 46 18 86.5t56.5 66t101.5 25.5q60 0 99 -25t58 -65.5t19 -87.5q0 -70 -46 -123t-130 -53zM738 1652l-284 20l270 358l338 -120z" />
    <glyph glyph-name="uni01D9" unicode="&#x1d9;" horiz-adv-x="1482" 
d="M746 -32q-179 0 -331 67t-247 210q-88 137 -88 337v820h464v-820q0 -116 65 -172t139 -56t132 57t58 171v820h464v-820q0 -272 -172 -443t-484 -171zM540 1504q-84 0 -130 53t-46 123q0 46 18 86.5t56.5 66t101.5 25.5q60 0 99 -25t58 -65.5t19 -87.5q0 -70 -46 -123
t-130 -53zM944 1504q-84 0 -130 53t-46 123q0 46 18 86.5t56.5 66t101.5 25.5q60 0 99 -25t58 -65.5t19 -87.5q0 -70 -46 -123t-130 -53zM929 1960h-376l-222 324h280l130 -142l130 142h280z" />
    <glyph glyph-name="uni01DA" unicode="&#x1da;" horiz-adv-x="1344" 
d="M462 -20q-94 0 -181.5 42t-145.5 138q-55 92 -55 236v698h450v-568q0 -138 120 -150q126 0 134 176v542h450v-1094h-450v152q-112 -172 -322 -172zM470 1210q-84 0 -130 53t-46 123q0 46 18 86.5t56.5 66t101.5 25.5q60 0 99 -25t58 -65.5t19 -87.5q0 -70 -46 -123
t-130 -53zM874 1210q-84 0 -130 53t-46 123q0 46 18 86.5t56.5 66t101.5 25.5q60 0 99 -25t58 -65.5t19 -87.5q0 -70 -46 -123t-130 -53zM845 1684h-376l-222 324h280l130 -142l130 142h280z" />
    <glyph glyph-name="uni01DB" unicode="&#x1db;" horiz-adv-x="1482" 
d="M746 -32q-179 0 -331 67t-247 210q-88 137 -88 337v820h464v-820q0 -116 65 -172t139 -56t132 57t58 171v820h464v-820q0 -272 -172 -443t-484 -171zM540 1504q-84 0 -130 53t-46 123q0 46 18 86.5t56.5 66t101.5 25.5q60 0 99 -25t58 -65.5t19 -87.5q0 -70 -46 -123
t-130 -53zM944 1504q-84 0 -130 53t-46 123q0 46 18 86.5t56.5 66t101.5 25.5q60 0 99 -25t58 -65.5t19 -87.5q0 -70 -46 -123t-130 -53zM642 1946l-276 258l340 120l222 -358z" />
    <glyph glyph-name="uni01DC" unicode="&#x1dc;" horiz-adv-x="1344" 
d="M462 -20q-94 0 -181.5 42t-145.5 138q-55 92 -55 236v698h450v-568q0 -138 120 -150q126 0 134 176v542h450v-1094h-450v152q-112 -172 -322 -172zM470 1210q-84 0 -130 53t-46 123q0 46 18 86.5t56.5 66t101.5 25.5q60 0 99 -25t58 -65.5t19 -87.5q0 -70 -46 -123
t-130 -53zM874 1210q-84 0 -130 53t-46 123q0 46 18 86.5t56.5 66t101.5 25.5q60 0 99 -25t58 -65.5t19 -87.5q0 -70 -46 -123t-130 -53zM558 1652l-276 258l340 120l222 -358z" />
    <glyph glyph-name="uni01DE" unicode="&#x1de;" horiz-adv-x="1598" 
d="M1618 0h-494l-70 198h-526l-72 -198h-476l592 1402h476zM1180 1960h-760v256h760v-256zM598 1504q-84 0 -130 53t-46 123q0 46 18 86.5t56.5 66t101.5 25.5q60 0 99 -25t58 -65.5t19 -87.5q0 -70 -46 -123t-130 -53zM940 530l-144 410l-148 -410h292zM1002 1504
q-84 0 -130 53t-46 123q0 46 18 86.5t56.5 66t101.5 25.5q60 0 99 -25t58 -65.5t19 -87.5q0 -70 -46 -123t-130 -53z" />
    <glyph glyph-name="uni01DF" unicode="&#x1df;" horiz-adv-x="1226" 
d="M396 -20q-192 0 -279 99t-87 245q0 324 424 334h250q-4 120 -170 120q-118 0 -332 -70l-100 300q300 106 540 106q139 0 254.5 -40.5t184.5 -132.5q65 -89 65 -233v-708h-442v118q-100 -138 -308 -138zM376 1202q-84 0 -130 53t-46 123q0 164 176 178q42 0 82.5 -16.5
t67 -55.5t26.5 -106q0 -70 -46 -123t-130 -53zM910 1640h-640v238h640v-238zM552 266q88 0 152 84v100h-156q-92 0 -96 -88q0 -90 100 -96zM804 1202q-84 0 -130 53t-46 123q0 164 176 178q42 0 82.5 -16.5t67 -55.5t26.5 -106q0 -70 -46 -123t-130 -53z" />
    <glyph glyph-name="uni01E0" unicode="&#x1e0;" horiz-adv-x="1598" 
d="M1618 0h-494l-70 198h-526l-72 -198h-476l592 1402h476zM940 530l-144 410l-148 -410h292zM810 1504q-108 0 -168 66t-60 162q0 108 66 168t162 60q108 0 168 -66t60 -162q0 -108 -66 -168t-162 -60zM1190 2046h-760v256h760v-256z" />
    <glyph glyph-name="uni01E1" unicode="&#x1e1;" horiz-adv-x="1226" 
d="M396 -20q-192 0 -279 99t-87 245q0 324 424 334h250q-4 120 -170 120q-118 0 -332 -70l-100 300q300 106 540 106q139 0 254.5 -40.5t184.5 -132.5q65 -89 65 -233v-708h-442v118q-100 -138 -308 -138zM552 266q88 0 152 84v100h-156q-92 0 -96 -88q0 -90 100 -96z
M627 1178q-108 0 -168 66t-60 162q0 108 66 168t162 60q108 0 168 -66t60 -162q0 -108 -66 -168t-162 -60zM947 1792h-640v256h640v-256z" />
    <glyph glyph-name="uni01E2" unicode="&#x1e2;" horiz-adv-x="2294" 
d="M2218 0h-1204v244h-434l-120 -244h-480l780 1402h1440v-352h-722v-172h656v-352h-656v-174h740v-352zM1014 576v474h-34l-234 -474h268zM1566 1504h-760v256h760v-256z" />
    <glyph glyph-name="uni01E3" unicode="&#x1e3;" horiz-adv-x="1916" 
d="M440 -22q-144 0 -235 45t-133 125t-42 176q0 324 426 334h254q-8 120 -172 120q-122 0 -336 -70l-100 300q302 106 542 106q220 0 350 -90q122 86 306 86q199 0 329 -80t193.5 -218t63.5 -310l-2 -56h-714q46 -130 182 -130q120 0 224 98l234 -230q-176 -200 -498 -200
q-302 0 -440 202q-126 -208 -432 -208zM554 266q86 0 156 84v100h-160q-92 0 -98 -88q0 -90 102 -96zM1434 654q0 66 -31.5 111t-98.5 45q-114 0 -144 -156h274zM1278 1268h-640v256h640v-256z" />
    <glyph glyph-name="Gcaron" unicode="&#x1e6;" horiz-adv-x="1476" 
d="M790 -20q-330 0 -545 204t-215 516q0 310 224 513t566 203q147 0 306.5 -51.5t299.5 -164.5l-262 -318q-172 148 -346 148q-132 0 -222 -91t-90 -239q0 -158 94 -246t222 -88q74 0 186 48l2 86h-210v302h600l4 -642q-165 -97 -325.5 -138.5t-288.5 -41.5zM934 1504h-376
l-222 324h280l130 -142l130 142h280z" />
    <glyph glyph-name="gcaron" unicode="&#x1e7;" horiz-adv-x="1308" 
d="M590 -408q-312 0 -516 142l142 302q176 -96 334 -96q198 0 204 138v104q-102 -116 -274 -116q-82 0 -162 29t-145 91.5t-104 163.5t-39 244q0 173 60 287q68 121 168.5 175t213.5 54q176 0 282 -118v102h448v-1004q0 -238 -176 -368t-436 -130zM810 1214h-376l-222 324
h280l130 -142l130 142h280zM602 386q78 0 115 58t37 138q0 84 -37 141t-115 57q-40 0 -74.5 -20t-56 -64t-21.5 -114q0 -82 38 -139t114 -57z" />
    <glyph glyph-name="uni01E8" unicode="&#x1e8;" horiz-adv-x="1546" 
d="M1546 0h-554l-296 488l-132 -148v-340h-464v1402h464v-512l418 512h534l-502 -560zM1011 1504h-376l-222 324h280l130 -142l130 142h280z" />
    <glyph glyph-name="uni01E9" unicode="&#x1e9;" horiz-adv-x="1324" 
d="M1326 0h-534l-168 344l-54 -56v-288h-450v1484h450v-674l254 284h508l-398 -422zM533 1586h-376l-222 324h280l130 -142l130 142h280z" />
    <glyph glyph-name="uni01EA" unicode="&#x1ea;" horiz-adv-x="1600" 
d="M1052 -488q-102 0 -171 53t-69 171q0 130 104 240q-50 -8 -116 -8q-332 0 -551 207t-219 529q0 318 218 523t552 205t552 -206t218 -522q0 -398 -316 -606q-148 -164 -148 -274q0 -56 34 -56q28 0 56 16l62 -222q-102 -50 -206 -50zM806 354q112 0 200 90t88 258
q0 160 -87 252t-201 92q-116 0 -208 -91t-92 -253q0 -160 92 -254t208 -94z" />
    <glyph glyph-name="uni01EB" unicode="&#x1eb;" horiz-adv-x="1296" 
d="M856 -488q-102 0 -171 53t-69 171q0 138 116 252l-84 -4q-208 0 -344 75q-142 79 -208 208t-66 281q0 266 171 414t447 148t447 -148t171 -414q0 -260 -172 -414q-184 -184 -184 -310q0 -56 34 -56q28 0 56 16l62 -222q-102 -50 -206 -50zM648 330q84 0 124 61t40 151
t-40 151t-124 61q-80 0 -122 -61.5t-42 -150.5t42 -150.5t122 -61.5z" />
    <glyph glyph-name="uni01EC" unicode="&#x1ec;" horiz-adv-x="1600" 
d="M1052 -488q-102 0 -171 53t-69 171q0 130 104 240q-50 -8 -116 -8q-332 0 -551 207t-219 529q0 318 218 523t552 205t552 -206t218 -522q0 -398 -316 -606q-148 -164 -148 -274q0 -56 34 -56q28 0 56 16l62 -222q-102 -50 -206 -50zM806 354q112 0 200 90t88 258
q0 160 -87 252t-201 92q-116 0 -208 -91t-92 -253q0 -160 92 -254t208 -94zM1180 1504h-760v256h760v-256z" />
    <glyph glyph-name="uni01ED" unicode="&#x1ed;" horiz-adv-x="1296" 
d="M856 -488q-102 0 -171 53t-69 171q0 138 116 252l-84 -4q-208 0 -344 75q-142 79 -208 208t-66 281q0 266 171 414t447 148t447 -148t171 -414q0 -260 -172 -414q-184 -184 -184 -310q0 -56 34 -56q28 0 56 16l62 -222q-102 -50 -206 -50zM648 330q84 0 124 61t40 151
t-40 151t-124 61q-80 0 -122 -61.5t-42 -150.5t42 -150.5t122 -61.5zM968 1268h-640v256h640v-256z" />
    <glyph glyph-name="uni01F0" unicode="&#x1f0;" horiz-adv-x="680" 
d="M136 -406q-146 0 -266 46l86 314q38 -12 76 -12q88 0 88 92v1060h450v-1128q0 -184 -124 -278t-310 -94zM533 1214h-376l-222 324h280l130 -142l130 142h280z" />
    <glyph glyph-name="uni01F1" unicode="&#x1f1;" horiz-adv-x="2884" 
d="M708 0h-608v1402h626q338 0 550 -184t212 -516q0 -172 -58 -303t-163 -220t-247.5 -134t-311.5 -45zM738 360q136 0 206 98t70 240q0 146 -76 245t-222 99h-152v-682h174zM2844 0h-1286v290l654 756h-630v356h1248v-290l-654 -756h668v-356z" />
    <glyph glyph-name="uni01F2" unicode="&#x1f2;" horiz-adv-x="2654" 
d="M708 0h-608v1402h626q338 0 550 -184t212 -516q0 -172 -58 -303t-163 -220t-247.5 -134t-311.5 -45zM738 360q136 0 206 98t70 240q0 146 -76 245t-222 99h-152v-682h174zM2612 0h-1044v262l456 496h-436v336h1004v-262l-456 -496h476v-336z" />
    <glyph glyph-name="uni01F3" unicode="&#x1f3;" horiz-adv-x="2516" 
d="M532 -16q-234 0 -368 155t-134 415q0 104 26 203t83.5 178.5t151 127t229.5 47.5q180 0 290 -128v502h450v-1484h-450v110q-110 -126 -278 -126zM648 330q82 0 122 61t40 151t-40 151t-122 61q-80 0 -122 -61.5t-42 -150.5t42 -150.5t122 -61.5zM2474 0h-1044v262
l456 496h-436v336h1004v-262l-456 -496h476v-336z" />
    <glyph glyph-name="uni01F4" unicode="&#x1f4;" horiz-adv-x="1476" 
d="M790 -20q-330 0 -545 204t-215 516q0 310 224 513t566 203q147 0 306.5 -51.5t299.5 -164.5l-262 -318q-172 148 -346 148q-132 0 -222 -91t-90 -239q0 -158 94 -246t222 -88q74 0 186 48l2 86h-210v302h600l4 -642q-165 -97 -325.5 -138.5t-288.5 -41.5zM810 1490
l-284 20l270 358l338 -120z" />
    <glyph glyph-name="uni01F5" unicode="&#x1f5;" horiz-adv-x="1308" 
d="M590 -408q-312 0 -516 142l142 302q176 -96 334 -96q198 0 204 138v104q-102 -116 -274 -116q-82 0 -162 29t-145 91.5t-104 163.5t-39 244q0 173 60 287q68 121 168.5 175t213.5 54q176 0 282 -118v102h448v-1004q0 -238 -176 -368t-436 -130zM698 1182l-284 20l270 358
l338 -120zM602 386q78 0 115 58t37 138q0 84 -37 141t-115 57q-40 0 -74.5 -20t-56 -64t-21.5 -114q0 -82 38 -139t114 -57z" />
    <glyph glyph-name="uni01F8" unicode="&#x1f8;" horiz-adv-x="1562" 
d="M1462 0h-388l-552 716v-716h-422v1402h388l554 -720v720h420v-1402zM682 1490l-276 258l340 120l222 -358z" />
    <glyph glyph-name="uni01F9" unicode="&#x1f9;" horiz-adv-x="1364" 
d="M1284 0h-450v568q0 138 -130 150q-132 0 -144 -176v-542h-450v1094h450v-156q116 176 332 176q69 0 138.5 -22t126.5 -71t92 -128.5t35 -194.5v-698zM598 1182l-276 258l340 120l222 -358z" />
    <glyph glyph-name="Aringacute" unicode="&#x1fa;" horiz-adv-x="1598" 
d="M1618 0h-494l-70 198h-526l-72 -198h-476l592 1402h476zM800 1466q-107 0 -177.5 70.5t-70.5 177.5t70.5 177.5t177.5 70.5t177.5 -70.5t70.5 -177.5t-70.5 -177.5t-177.5 -70.5zM808 2006l-244 62l312 286l278 -162zM940 530l-144 410l-148 -410h292zM800 1636
q44 0 61 24.5t17 53.5q0 70 -78 78q-29 0 -53.5 -17t-24.5 -61q0 -32 23 -55t55 -23z" />
    <glyph glyph-name="aringacute" unicode="&#x1fb;" horiz-adv-x="1226" 
d="M396 -20q-192 0 -279 99t-87 245q0 324 424 334h250q-4 120 -170 120q-118 0 -332 -70l-100 300q300 106 540 106q139 0 254.5 -40.5t184.5 -132.5q65 -89 65 -233v-708h-442v118q-100 -138 -308 -138zM616 1158q-107 0 -177.5 70.5t-70.5 177.5t70.5 177.5t177.5 70.5
t177.5 -70.5t70.5 -177.5t-70.5 -177.5t-177.5 -70.5zM624 1698l-244 62l312 286l278 -162zM552 266q88 0 152 84v100h-156q-92 0 -96 -88q0 -90 100 -96zM616 1328q44 0 61 24.5t17 53.5q0 70 -78 78q-29 0 -53.5 -17t-24.5 -61q0 -32 23 -55t55 -23z" />
    <glyph glyph-name="AEacute" unicode="&#x1fc;" horiz-adv-x="2294" 
d="M2218 0h-1204v244h-434l-120 -244h-480l780 1402h1440v-352h-722v-172h656v-352h-656v-174h740v-352zM1014 576v474h-34l-234 -474h268zM1640 1490l-284 20l270 358l338 -120z" />
    <glyph glyph-name="aeacute" unicode="&#x1fd;" horiz-adv-x="1916" 
d="M440 -22q-144 0 -235 45t-133 125t-42 176q0 324 426 334h254q-8 120 -172 120q-122 0 -336 -70l-100 300q302 106 542 106q220 0 350 -90q122 86 306 86q199 0 329 -80t193.5 -218t63.5 -310l-2 -56h-714q46 -130 182 -130q120 0 224 98l234 -230q-176 -200 -498 -200
q-302 0 -440 202q-126 -208 -432 -208zM554 266q86 0 156 84v100h-160q-92 0 -98 -88q0 -90 102 -96zM1022 1182l-284 20l270 358l338 -120zM1434 654q0 66 -31.5 111t-98.5 45q-114 0 -144 -156h274z" />
    <glyph glyph-name="Oslashacute" unicode="&#x1fe;" horiz-adv-x="1600" 
d="M454 -110h-254l128 220q-298 200 -298 584q0 312 219 513t551 201q144 0 264 -38l82 140h254l-136 -234q306 -198 306 -582q0 -316 -218 -519t-552 -203q-144 0 -274 42zM558 504l300 512q-24 6 -52 6q-114 0 -207 -87t-93 -243q0 -106 52 -188zM902 1490l-284 20
l270 358l338 -120zM806 358q112 0 200 89t88 245q0 114 -56 200l-304 -524q40 -10 72 -10z" />
    <glyph glyph-name="oslashacute" unicode="&#x1ff;" horiz-adv-x="1296" 
d="M264 -160h-176l170 250q-228 160 -228 458q0 266 171 414t447 148q154 0 268 -44l128 188h176l-174 -256q220 -156 220 -450q0 -150 -65 -279t-208 -210q-138 -75 -345 -75q-144 0 -258 42zM476 414l246 364q-30 14 -74 14q-63 0 -106.5 -32.5t-65.5 -89t-22 -128.5
q0 -68 22 -128zM748 1182l-284 20l270 358l338 -120zM648 292q63 0 106.5 32.5t65.5 89t22 128.5q0 74 -20 122l-244 -358q30 -14 70 -14z" />
    <glyph glyph-name="uni0200" unicode="&#x200;" horiz-adv-x="1598" 
d="M1618 0h-494l-70 198h-526l-72 -198h-476l592 1402h476zM468 1484l-178 272l324 106l164 -358zM940 530l-144 410l-148 -410h292zM910 1484l-178 272l324 106l164 -358z" />
    <glyph glyph-name="uni0201" unicode="&#x201;" horiz-adv-x="1226" 
d="M396 -20q-192 0 -279 99t-87 245q0 324 424 334h250q-4 120 -170 120q-118 0 -332 -70l-100 300q300 106 540 106q139 0 254.5 -40.5t184.5 -132.5q65 -89 65 -233v-708h-442v118q-100 -138 -308 -138zM284 1182l-178 272l324 106l164 -358zM552 266q88 0 152 84v100
h-156q-92 0 -96 -88q0 -90 100 -96zM726 1182l-178 272l324 106l164 -358z" />
    <glyph glyph-name="uni0202" unicode="&#x202;" horiz-adv-x="1598" 
d="M1618 0h-494l-70 198h-526l-72 -198h-476l592 1402h476zM1166 1504h-270q-16 100 -98 100q-80 0 -98 -100h-270q12 156 103 252t265 96t265 -96t103 -252zM940 530l-144 410l-148 -410h292z" />
    <glyph glyph-name="uni0203" unicode="&#x203;" horiz-adv-x="1226" 
d="M396 -20q-192 0 -279 99t-87 245q0 324 424 334h250q-4 120 -170 120q-118 0 -332 -70l-100 300q300 106 540 106q139 0 254.5 -40.5t184.5 -132.5q65 -89 65 -233v-708h-442v118q-100 -138 -308 -138zM982 1190h-270q-16 100 -98 100q-80 0 -98 -100h-270
q12 156 103 252t265 96t265 -96t103 -252zM552 266q88 0 152 84v100h-156q-92 0 -96 -88q0 -90 100 -96z" />
    <glyph glyph-name="uni0204" unicode="&#x204;" horiz-adv-x="1380" 
d="M1304 0h-1204v1402h1186v-352h-722v-172h656v-352h-656v-174h740v-352zM364 1484l-178 272l324 106l164 -358zM806 1484l-178 272l324 106l164 -358z" />
    <glyph glyph-name="uni0205" unicode="&#x205;" horiz-adv-x="1228" 
d="M626 -16q-201 0 -333 73q-138 79 -200.5 207t-62.5 278q0 272 163 420t421 148q199 0 329 -79q134 -86 194.5 -225t60.5 -304l-2 -56h-712q52 -130 182 -130q116 0 222 98l234 -230q-176 -200 -496 -200zM274 1182l-178 272l324 106l164 -358zM746 654q0 148 -128 156
q-114 0 -144 -156h272zM716 1182l-178 272l324 106l164 -358z" />
    <glyph glyph-name="uni0206" unicode="&#x206;" horiz-adv-x="1380" 
d="M1304 0h-1204v1402h1186v-352h-722v-172h656v-352h-656v-174h740v-352zM1062 1504h-270q-16 100 -98 100q-80 0 -98 -100h-270q12 156 103 252t265 96t265 -96t103 -252z" />
    <glyph glyph-name="uni0207" unicode="&#x207;" horiz-adv-x="1228" 
d="M626 -16q-201 0 -333 73q-138 79 -200.5 207t-62.5 278q0 272 163 420t421 148q199 0 329 -79q134 -86 194.5 -225t60.5 -304l-2 -56h-712q52 -130 182 -130q116 0 222 98l234 -230q-176 -200 -496 -200zM972 1190h-270q-16 100 -98 100q-80 0 -98 -100h-270
q12 156 103 252t265 96t265 -96t103 -252zM746 654q0 148 -128 156q-114 0 -144 -156h272z" />
    <glyph glyph-name="uni0208" unicode="&#x208;" horiz-adv-x="664" 
d="M0 1484l-178 272l324 106l164 -358zM564 0h-464v1402h464v-1402zM442 1484l-178 272l324 106l164 -358z" />
    <glyph glyph-name="uni0209" unicode="&#x209;" horiz-adv-x="670" 
d="M4 1182l-178 272l324 106l164 -358zM560 0h-450v1094h450v-1094zM446 1182l-178 272l324 106l164 -358z" />
    <glyph glyph-name="uni020A" unicode="&#x20a;" horiz-adv-x="664" 
d="M698 1504h-270q-16 100 -98 100q-80 0 -98 -100h-270q12 156 103 252t265 96t265 -96t103 -252zM564 0h-464v1402h464v-1402z" />
    <glyph glyph-name="uni020B" unicode="&#x20b;" horiz-adv-x="670" 
d="M690 1190h-260q-18 98 -96 98t-96 -98h-262q8 154 95 251t263 97q172 0 259 -96t97 -252zM560 0h-450v1094h450v-1094z" />
    <glyph glyph-name="uni020C" unicode="&#x20c;" horiz-adv-x="1600" 
d="M800 -32q-332 0 -551 207t-219 529q0 318 218 523t552 205t552 -206t218 -522q0 -322 -218 -529t-552 -207zM468 1484l-178 272l324 106l164 -358zM806 354q112 0 200 90t88 258q0 160 -87 252t-201 92q-116 0 -208 -91t-92 -253q0 -160 92 -254t208 -94zM910 1484
l-178 272l324 106l164 -358z" />
    <glyph glyph-name="uni020D" unicode="&#x20d;" horiz-adv-x="1296" 
d="M648 -16q-208 0 -344 75q-142 79 -208 208t-66 281q0 266 171 414t447 148t447 -148t171 -414q0 -150 -65 -279t-208 -210q-138 -75 -345 -75zM316 1182l-178 272l324 106l164 -358zM648 330q84 0 124 61t40 151t-40 151t-124 61q-80 0 -122 -61.5t-42 -150.5t42 -150.5
t122 -61.5zM758 1182l-178 272l324 106l164 -358z" />
    <glyph glyph-name="uni020E" unicode="&#x20e;" horiz-adv-x="1600" 
d="M800 -32q-332 0 -551 207t-219 529q0 318 218 523t552 205t552 -206t218 -522q0 -322 -218 -529t-552 -207zM1166 1504h-270q-16 100 -98 100q-80 0 -98 -100h-270q12 156 103 252t265 96t265 -96t103 -252zM806 354q112 0 200 90t88 258q0 160 -87 252t-201 92
q-116 0 -208 -91t-92 -253q0 -160 92 -254t208 -94z" />
    <glyph glyph-name="uni020F" unicode="&#x20f;" horiz-adv-x="1296" 
d="M648 -16q-208 0 -344 75q-142 79 -208 208t-66 281q0 266 171 414t447 148t447 -148t171 -414q0 -150 -65 -279t-208 -210q-138 -75 -345 -75zM1014 1190h-270q-16 100 -98 100q-80 0 -98 -100h-270q12 156 103 252t265 96t265 -96t103 -252zM648 330q84 0 124 61t40 151
t-40 151t-124 61q-80 0 -122 -61.5t-42 -150.5t42 -150.5t122 -61.5z" />
    <glyph glyph-name="uni0210" unicode="&#x210;" horiz-adv-x="1450" 
d="M1430 0h-524l-168 364h-174v-364h-464v1402h678q168 0 304.5 -51t217.5 -166q76 -111 76 -285q0 -306 -222 -444zM392 1484l-178 272l324 106l164 -358zM778 716q150 0 158 170q0 156 -158 164h-214v-334h214zM834 1484l-178 272l324 106l164 -358z" />
    <glyph glyph-name="uni0211" unicode="&#x211;" horiz-adv-x="914" 
d="M158 1182l-178 272l324 106l164 -358zM560 0h-450v1094h450v-160q124 180 334 180v-406q-48 6 -88 6q-94 0 -170 -42t-76 -150v-522zM600 1182l-178 272l324 106l164 -358z" />
    <glyph glyph-name="uni0212" unicode="&#x212;" horiz-adv-x="1450" 
d="M1430 0h-524l-168 364h-174v-364h-464v1402h678q168 0 304.5 -51t217.5 -166q76 -111 76 -285q0 -306 -222 -444zM1090 1504h-270q-16 100 -98 100q-80 0 -98 -100h-270q12 156 103 252t265 96t265 -96t103 -252zM778 716q150 0 158 170q0 156 -158 164h-214v-334h214z
" />
    <glyph glyph-name="uni0213" unicode="&#x213;" horiz-adv-x="914" 
d="M560 0h-450v1094h450v-160q124 180 334 180v-406q-48 6 -88 6q-94 0 -170 -42t-76 -150v-522zM856 1190h-270q-16 100 -98 100q-80 0 -98 -100h-270q12 156 103 252t265 96t265 -96t103 -252z" />
    <glyph glyph-name="uni0214" unicode="&#x214;" horiz-adv-x="1482" 
d="M746 -32q-179 0 -331 67t-247 210q-88 137 -88 337v820h464v-820q0 -116 65 -172t139 -56t132 57t58 171v820h464v-820q0 -272 -172 -443t-484 -171zM410 1484l-178 272l324 106l164 -358zM852 1484l-178 272l324 106l164 -358z" />
    <glyph glyph-name="uni0215" unicode="&#x215;" horiz-adv-x="1344" 
d="M462 -20q-94 0 -181.5 42t-145.5 138q-55 92 -55 236v698h450v-568q0 -138 120 -150q126 0 134 176v542h450v-1094h-450v152q-112 -172 -322 -172zM340 1182l-178 272l324 106l164 -358zM782 1182l-178 272l324 106l164 -358z" />
    <glyph glyph-name="uni0216" unicode="&#x216;" horiz-adv-x="1482" 
d="M746 -32q-179 0 -331 67t-247 210q-88 137 -88 337v820h464v-820q0 -116 65 -172t139 -56t132 57t58 171v820h464v-820q0 -272 -172 -443t-484 -171zM1108 1504h-270q-16 100 -98 100q-80 0 -98 -100h-270q12 156 103 252t265 96t265 -96t103 -252z" />
    <glyph glyph-name="uni0217" unicode="&#x217;" horiz-adv-x="1344" 
d="M462 -20q-94 0 -181.5 42t-145.5 138q-55 92 -55 236v698h450v-568q0 -138 120 -150q126 0 134 176v542h450v-1094h-450v152q-112 -172 -322 -172zM1038 1190h-270q-16 100 -98 100q-80 0 -98 -100h-270q12 156 103 252t265 96t265 -96t103 -252z" />
    <glyph glyph-name="uni0218" unicode="&#x218;" horiz-adv-x="1328" 
d="M718 -26q-168 0 -352 55t-350 173l172 350q152 -114 295 -168t239 -54q112 0 112 78q0 43 -54 73.5t-178 54.5q-128 28 -249 78t-197 168q-48 74 -48 194q0 224 170 343t430 119q334 0 610 -168l-168 -354q-112 67 -241 116.5t-241 49.5q-86 0 -86 -62q0 -50 56 -76
t168 -54q126 -26 252 -82t204 -176q46 -82 46 -200q0 -224 -168 -341t-422 -117zM688 -488h-240l62 366h350z" />
    <glyph glyph-name="uni0219" unicode="&#x219;" horiz-adv-x="1104" 
d="M558 -20q-302 0 -534 156l136 280q224 -136 404 -136q66 0 68 32q0 20 -32 35.5t-104 32.5q-202 54 -290 112q-130 90 -130 244q0 184 138 281t344 97q262 0 508 -138l-148 -278q-244 120 -370 120q-56 0 -62 -36q0 -38 156 -78q208 -38 340 -164q72 -68 72 -188
q0 -182 -141 -277t-355 -95zM548 -488h-240l62 366h350z" />
    <glyph glyph-name="uni021A" unicode="&#x21a;" horiz-adv-x="1282" 
d="M872 0h-464v1036h-398v366h1262v-366h-400v-1036zM638 -488h-240l62 366h350z" />
    <glyph glyph-name="uni021B" unicode="&#x21b;" horiz-adv-x="920" 
d="M578 -20q-140 0 -231.5 49.5t-136 134t-44.5 188.5v398h-150v284h150v306h448v-306h256v-284h-256v-330q0 -86 88 -92q38 0 112 28l76 -308q-136 -68 -312 -68zM562 -488h-240l62 366h350z" />
    <glyph glyph-name="uni021E" unicode="&#x21e;" horiz-adv-x="1562" 
d="M1462 0h-464v506h-434v-506h-464v1402h464v-544h434v544h464v-1402zM969 1504h-376l-222 324h280l130 -142l130 142h280z" />
    <glyph glyph-name="uni021F" unicode="&#x21f;" horiz-adv-x="1374" 
d="M1294 0h-450v568q0 138 -130 150q-132 0 -144 -176v-542h-450v1484h450v-546q116 176 332 176q69 0 138.5 -22t126.5 -71t92 -128.5t35 -194.5v-698zM533 1586h-376l-222 324h280l130 -142l130 142h280z" />
    <glyph glyph-name="uni0226" unicode="&#x226;" horiz-adv-x="1598" 
d="M1618 0h-494l-70 198h-526l-72 -198h-476l592 1402h476zM940 530l-144 410l-148 -410h292zM810 1504q-108 0 -168 66t-60 162q0 108 66 168t162 60q108 0 168 -66t60 -162q0 -108 -66 -168t-162 -60z" />
    <glyph glyph-name="uni0227" unicode="&#x227;" horiz-adv-x="1226" 
d="M396 -20q-192 0 -279 99t-87 245q0 324 424 334h250q-4 120 -170 120q-118 0 -332 -70l-100 300q300 106 540 106q139 0 254.5 -40.5t184.5 -132.5q65 -89 65 -233v-708h-442v118q-100 -138 -308 -138zM552 266q88 0 152 84v100h-156q-92 0 -96 -88q0 -90 100 -96z
M627 1178q-108 0 -168 66t-60 162q0 108 66 168t162 60q108 0 168 -66t60 -162q0 -108 -66 -168t-162 -60z" />
    <glyph glyph-name="uni0228" unicode="&#x228;" horiz-adv-x="1380" 
d="M1304 0h-1204v1402h1186v-352h-722v-172h656v-352h-656v-174h740v-352zM671 -488q-124 0 -238 38l60 180q42 -14 90 -14q80 0 80 38q0 46 -148 46l72 220l236 -20l-44 -118q166 -46 166 -166q0 -108 -82 -156t-192 -48z" />
    <glyph glyph-name="uni0229" unicode="&#x229;" horiz-adv-x="1228" 
d="M626 -16q-201 0 -333 73q-138 79 -200.5 207t-62.5 278q0 272 163 420t421 148q199 0 329 -79q134 -86 194.5 -225t60.5 -304l-2 -56h-712q52 -130 182 -130q116 0 222 98l234 -230q-176 -200 -496 -200zM746 654q0 148 -128 156q-114 0 -144 -156h272zM594 -488
q-124 0 -238 38l60 180q42 -14 90 -14q80 0 80 38q0 46 -148 46l72 220l236 -20l-44 -118q166 -46 166 -166q0 -108 -82 -156t-192 -48z" />
    <glyph glyph-name="uni022A" unicode="&#x22a;" horiz-adv-x="1600" 
d="M800 -32q-332 0 -551 207t-219 529q0 318 218 523t552 205t552 -206t218 -522q0 -322 -218 -529t-552 -207zM586 1504q-84 0 -130 53t-46 123q0 164 176 178q42 0 82.5 -16.5t67 -55.5t26.5 -106q0 -70 -46 -123t-130 -53zM1120 1942h-640v238h640v-238zM806 354
q112 0 200 90t88 258q0 160 -87 252t-201 92q-116 0 -208 -91t-92 -253q0 -160 92 -254t208 -94zM1014 1504q-84 0 -130 53t-46 123q0 164 176 178q42 0 82.5 -16.5t67 -55.5t26.5 -106q0 -70 -46 -123t-130 -53z" />
    <glyph glyph-name="uni022B" unicode="&#x22b;" horiz-adv-x="1296" 
d="M648 -16q-208 0 -344 75q-142 79 -208 208t-66 281q0 266 171 414t447 148t447 -148t171 -414q0 -150 -65 -279t-208 -210q-138 -75 -345 -75zM434 1202q-84 0 -130 53t-46 123q0 164 176 178q42 0 82.5 -16.5t67 -55.5t26.5 -106q0 -70 -46 -123t-130 -53zM968 1640
h-640v238h640v-238zM648 330q84 0 124 61t40 151t-40 151t-124 61q-80 0 -122 -61.5t-42 -150.5t42 -150.5t122 -61.5zM862 1202q-84 0 -130 53t-46 123q0 164 176 178q42 0 82.5 -16.5t67 -55.5t26.5 -106q0 -70 -46 -123t-130 -53z" />
    <glyph glyph-name="uni022C" unicode="&#x22c;" horiz-adv-x="1600" 
d="M800 -32q-332 0 -551 207t-219 529q0 318 218 523t552 205t552 -206t218 -522q0 -322 -218 -529t-552 -207zM984 1500q-102 0 -218 50q-54 26 -94 26q-60 0 -60 -60v-12h-200q0 149 49.5 222.5t162.5 73.5q96 0 210 -50q54 -26 92 -26q62 0 62 64v6h198q0 -294 -202 -294
zM1122 1882h-640v238h640v-238zM806 354q112 0 200 90t88 258q0 160 -87 252t-201 92q-116 0 -208 -91t-92 -253q0 -160 92 -254t208 -94z" />
    <glyph glyph-name="uni022D" unicode="&#x22d;" horiz-adv-x="1296" 
d="M648 -16q-208 0 -344 75q-142 79 -208 208t-66 281q0 266 171 414t447 148t447 -148t171 -414q0 -150 -65 -279t-208 -210q-138 -75 -345 -75zM832 1198q-102 0 -218 50q-54 26 -94 26q-60 0 -60 -60v-12h-200q0 149 49.5 222.5t162.5 73.5q96 0 210 -50q54 -26 92 -26
q62 0 62 64v6h198q0 -294 -202 -294zM970 1580h-640v238h640v-238zM648 330q84 0 124 61t40 151t-40 151t-124 61q-80 0 -122 -61.5t-42 -150.5t42 -150.5t122 -61.5z" />
    <glyph glyph-name="uni022E" unicode="&#x22e;" horiz-adv-x="1600" 
d="M800 -32q-332 0 -551 207t-219 529q0 318 218 523t552 205t552 -206t218 -522q0 -322 -218 -529t-552 -207zM806 354q112 0 200 90t88 258q0 160 -87 252t-201 92q-116 0 -208 -91t-92 -253q0 -160 92 -254t208 -94zM800 1504q-108 0 -168 66t-60 162q0 108 66 168
t162 60q108 0 168 -66t60 -162q0 -108 -66 -168t-162 -60z" />
    <glyph glyph-name="uni022F" unicode="&#x22f;" horiz-adv-x="1296" 
d="M648 -16q-208 0 -344 75q-142 79 -208 208t-66 281q0 266 171 414t447 148t447 -148t171 -414q0 -150 -65 -279t-208 -210q-138 -75 -345 -75zM648 1178q-108 0 -168 66t-60 162q0 108 66 168t162 60q108 0 168 -66t60 -162q0 -108 -66 -168t-162 -60zM648 330
q84 0 124 61t40 151t-40 151t-124 61q-80 0 -122 -61.5t-42 -150.5t42 -150.5t122 -61.5z" />
    <glyph glyph-name="uni0230" unicode="&#x230;" horiz-adv-x="1600" 
d="M800 -32q-332 0 -551 207t-219 529q0 318 218 523t552 205t552 -206t218 -522q0 -322 -218 -529t-552 -207zM1180 2062h-760v256h760v-256zM806 354q112 0 200 90t88 258q0 160 -87 252t-201 92q-116 0 -208 -91t-92 -253q0 -160 92 -254t208 -94zM800 1504
q-108 0 -168 66t-60 162q0 108 66 168t162 60q108 0 168 -66t60 -162q0 -108 -66 -168t-162 -60z" />
    <glyph glyph-name="uni0231" unicode="&#x231;" horiz-adv-x="1296" 
d="M648 -16q-208 0 -344 75q-142 79 -208 208t-66 281q0 266 171 414t447 148t447 -148t171 -414q0 -150 -65 -279t-208 -210q-138 -75 -345 -75zM968 1640h-640v238h640v-238zM648 1200q-84 0 -138 54t-54 138q0 94 57 143t135 49q86 0 139 -53t53 -139q0 -78 -49 -135
t-143 -57zM648 330q84 0 124 61t40 151t-40 151t-124 61q-80 0 -122 -61.5t-42 -150.5t42 -150.5t122 -61.5z" />
    <glyph glyph-name="uni0232" unicode="&#x232;" horiz-adv-x="1438" 
d="M956 0h-464v426l-512 976h462l282 -540l272 540h462l-502 -966v-436zM1100 1504h-760v256h760v-256z" />
    <glyph glyph-name="uni0233" unicode="&#x233;" horiz-adv-x="1248" 
d="M338 -408q-218 0 -378 128l188 296q68 -64 146 -64q49 0 77 19.5t47 62.5l-454 1060h462l216 -624l178 624h448l-450 -1170q-128 -332 -480 -332zM944 1268h-640v256h640v-256z" />
    <glyph glyph-name="uni0237" unicode="&#x237;" horiz-adv-x="680" 
d="M136 -406q-146 0 -266 46l86 314q38 -12 76 -12q88 0 88 92v1060h450v-1128q0 -184 -124 -278t-310 -94z" />
    <glyph glyph-name="uni0259" unicode="&#x259;" horiz-adv-x="1228" 
d="M614 -16q-199 0 -328 80q-135 85 -195.5 224t-60.5 304l2 56h712q-52 130 -182 130q-116 0 -222 -98l-234 230q176 200 496 200q201 0 333 -73q138 -79 200.5 -207t62.5 -278q0 -272 -163 -420t-421 -148zM610 284q114 0 144 156h-272q0 -148 128 -156z" />
    <glyph glyph-name="uni02BB" unicode="&#x2bb;" horiz-adv-x="516" 
d="M416 940l-316 72l60 388h256v-460z" />
    <glyph glyph-name="uni02BC" unicode="&#x2bc;" horiz-adv-x="504" 
d="M330 874h-230v528h290z" />
    <glyph glyph-name="uni02BE" unicode="&#x2be;" horiz-adv-x="426" 
d="M106 1158v170q44 0 61 24.5t17 53.5q0 70 -78 78v170q107 0 177.5 -70.5t70.5 -177.5t-70.5 -177.5t-177.5 -70.5z" />
    <glyph glyph-name="uni02BF" unicode="&#x2bf;" horiz-adv-x="424" 
d="M318 1158q-107 0 -177.5 70.5t-70.5 177.5t70.5 177.5t177.5 70.5v-170q-29 0 -53.5 -17t-24.5 -61q0 -32 23 -55t55 -23v-170z" />
    <glyph glyph-name="circumflex" unicode="&#x2c6;" horiz-adv-x="900" 
d="M860 1214h-280l-130 144l-130 -144h-280l222 324h376z" />
    <glyph glyph-name="caron" unicode="&#x2c7;" horiz-adv-x="1020" 
d="M638 1214h-376l-222 324h280l130 -142l130 142h280z" />
    <glyph glyph-name="uni02C8" unicode="&#x2c8;" horiz-adv-x="368" 
d="M328 994h-288v408h288v-408z" />
    <glyph glyph-name="uni02C9" unicode="&#x2c9;" horiz-adv-x="680" 
d="M670 1268h-640v256h640v-256z" />
    <glyph glyph-name="uni02CA" unicode="&#x2ca;" horiz-adv-x="700" 
d="M344 1182l-284 20l270 358l338 -120z" />
    <glyph glyph-name="uni02CB" unicode="&#x2cb;" horiz-adv-x="700" 
d="M376 1182l-276 258l340 120l222 -358z" />
    <glyph glyph-name="uni02CC" unicode="&#x2cc;" horiz-adv-x="376" 
d="M336 -468h-296v408h296v-408z" />
    <glyph glyph-name="breve" unicode="&#x2d8;" horiz-adv-x="776" 
d="M388 1190q-174 0 -265 96t-103 252h270q18 -100 98 -100q82 0 98 100h270q-12 -156 -103 -252t-265 -96z" />
    <glyph glyph-name="dotaccent" unicode="&#x2d9;" horiz-adv-x="700" 
d="M350 1178q-108 0 -168 66t-60 162q0 108 66 168t162 60q108 0 168 -66t60 -162t-60 -162t-168 -66z" />
    <glyph glyph-name="ring" unicode="&#x2da;" horiz-adv-x="896" 
d="M318 1158q-107 0 -177.5 70.5t-70.5 177.5t70.5 177.5t177.5 70.5t177.5 -70.5t70.5 -177.5t-70.5 -177.5t-177.5 -70.5zM318 1328q44 0 61 24.5t17 53.5q0 70 -78 78q-29 0 -53.5 -17t-24.5 -61q0 -32 23 -55t55 -23z" />
    <glyph glyph-name="ogonek" unicode="&#x2db;" horiz-adv-x="644" 
d="M246 -488q-126 0 -179 71t-53 163q0 178 186 340l246 -86q-138 -92 -138 -180q0 -48 40 -52q22 0 50 16l62 -222q-108 -50 -214 -50z" />
    <glyph glyph-name="tilde" unicode="&#x2dc;" horiz-adv-x="812" 
d="M578 1188q-86 0 -184 54q-50 28 -82 28q-56 0 -58 -78h-234q0 356 204 356q96 0 196 -54q50 -28 80 -28q60 0 60 76h232q0 -186 -52.5 -270t-161.5 -84z" />
    <glyph glyph-name="hungarumlaut" unicode="&#x2dd;" horiz-adv-x="1140" 
d="M412 1182l-312 20l166 358l324 -106zM854 1182l-312 20l166 358l324 -106z" />
    <glyph glyph-name="gravecomb" unicode="&#x300;" 
d="M-398 1182l-276 258l340 120l222 -358z" />
    <glyph glyph-name="acutecomb" unicode="&#x301;" 
d="M-350 1182l-284 20l270 358l338 -120z" />
    <glyph glyph-name="uni0302" unicode="&#x302;" 
d="M-40 1214h-280l-130 144l-130 -144h-280l222 324h376z" />
    <glyph glyph-name="tildecomb" unicode="&#x303;" 
d="M-234 1188q-84 0 -184 54q-50 28 -82 28q-56 0 -58 -78h-234q0 356 204 356q96 0 196 -54q50 -28 80 -28q60 0 60 76h232q0 -186 -52.5 -270t-161.5 -84z" />
    <glyph glyph-name="uni0304" unicode="&#x304;" 
d="M-20 1268h-640v256h640v-256z" />
    <glyph glyph-name="uni0306" unicode="&#x306;" 
d="M-388 1190q-174 0 -265 96t-103 252h270q18 -100 98 -100q82 0 98 100h270q-12 -156 -103 -252t-265 -96z" />
    <glyph glyph-name="uni0307" unicode="&#x307;" 
d="M-282 1178q-108 0 -168 66t-60 162q0 108 66 168t162 60q108 0 168 -66t60 -162q0 -108 -66 -168t-162 -60z" />
    <glyph glyph-name="uni0308" unicode="&#x308;" 
d="M-712 1210q-84 0 -130 53t-46 123q0 46 18 86.5t56.5 66t101.5 25.5q60 0 99 -25t58 -65.5t19 -87.5q0 -70 -46 -123t-130 -53zM-308 1210q-84 0 -130 53t-46 123q0 46 18 86.5t56.5 66t101.5 25.5q60 0 99 -25t58 -65.5t19 -87.5q0 -70 -46 -123t-130 -53z" />
    <glyph glyph-name="hookabovecomb" unicode="&#x309;" 
d="M-258 1174l-184 74q94 82 94 148q0 52 -56 54q-36 0 -78 -30l-108 166q136 88 278 88q128 0 185 -59t57 -145q0 -158 -188 -296z" />
    <glyph glyph-name="uni030A" unicode="&#x30a;" 
d="M-320 1158q-107 0 -177.5 70.5t-70.5 177.5t70.5 177.5t177.5 70.5t177.5 -70.5t70.5 -177.5t-70.5 -177.5t-177.5 -70.5zM-320 1328q44 0 61 24.5t17 53.5q0 70 -78 78q-29 0 -53.5 -17t-24.5 -61q0 -32 23 -55t55 -23z" />
    <glyph glyph-name="uni030B" unicode="&#x30b;" 
d="M-656 1182l-312 20l166 358l324 -106zM-214 1182l-312 20l166 358l324 -106z" />
    <glyph glyph-name="uni030C" unicode="&#x30c;" 
d="M-322 1214h-376l-222 324h280l130 -142l130 142h280z" />
    <glyph glyph-name="uni030F" unicode="&#x30f;" 
d="M-862 1182l-178 272l324 106l164 -358zM-420 1182l-178 272l324 106l164 -358z" />
    <glyph glyph-name="uni0311" unicode="&#x311;" 
d="M-20 1190h-270q-16 100 -98 100q-80 0 -98 -100h-270q12 156 103 252t265 96t265 -96t103 -252z" />
    <glyph glyph-name="uni0312" unicode="&#x312;" 
d="M-132 1216h-350l172 366h240z" />
    <glyph glyph-name="uni031B" unicode="&#x31b;" 
d="M-568 876l40 218q100 0 100 102q0 54 -34 100l306 114q48 -122 48 -218q0 -108 -84 -212t-376 -104z" />
    <glyph glyph-name="dotbelowcomb" unicode="&#x323;" 
d="M-282 -586q-96 0 -162 60t-66 168t66 168t162 60t162 -60t66 -168t-66 -168t-162 -60z" />
    <glyph glyph-name="uni0324" unicode="&#x324;" 
d="M-692 -482q-84 0 -130 53t-46 123q0 46 18 86.5t56.5 66t101.5 25.5q60 0 99 -25t58 -65.5t19 -87.5q0 -70 -46 -123t-130 -53zM-288 -482q-84 0 -130 53t-46 123q0 46 18 86.5t56.5 66t101.5 25.5q60 0 99 -25t58 -65.5t19 -87.5q0 -70 -46 -123t-130 -53z" />
    <glyph glyph-name="uni0325" unicode="&#x325;" 
d="M-338 -516q-107 0 -177.5 70.5t-70.5 177.5t70.5 177.5t177.5 70.5t177.5 -70.5t70.5 -177.5t-70.5 -177.5t-177.5 -70.5zM-338 -346q44 0 61 24.5t17 53.5q0 70 -78 78q-29 0 -53.5 -17t-24.5 -61q0 -32 23 -55t55 -23zM-90 -20z" />
    <glyph glyph-name="uni0326" unicode="&#x326;" 
d="M-276 -488h-240l62 366h350z" />
    <glyph glyph-name="uni0327" unicode="&#x327;" 
d="M-330 -488q-124 0 -238 38l60 180q42 -14 90 -14q80 0 80 38q0 46 -148 46l72 220l236 -20l-44 -118q166 -46 166 -166q0 -108 -82 -156t-192 -48z" />
    <glyph glyph-name="uni0328" unicode="&#x328;" 
d="M-320 -488q-128 0 -178 72q-54 68 -54 162q0 178 186 340l246 -86q-138 -92 -138 -180q0 -48 40 -52q22 0 50 16l62 -222q-108 -50 -214 -50z" />
    <glyph glyph-name="uni032D" unicode="&#x32d;" 
d="M78 -440h-280l-130 144l-130 -144h-280l222 324h376zM0 -116z" />
    <glyph glyph-name="uni032E" unicode="&#x32e;" 
d="M-388 -478q-174 0 -265 96t-103 252h270q18 -100 98 -100q82 0 98 100h270q-12 -156 -103 -252t-265 -96z" />
    <glyph glyph-name="uni0330" unicode="&#x330;" 
d="M-184 -458q-86 0 -184 54q-50 28 -82 28q-56 0 -58 -78h-234q0 356 204 356q96 0 196 -54q50 -28 80 -28q60 0 60 76h232q0 -186 -52.5 -270t-161.5 -84zM0 -98z" />
    <glyph glyph-name="uni0331" unicode="&#x331;" 
d="M-80 -406h-640v256h640v-256z" />
    <glyph glyph-name="uni0335" unicode="&#x335;" 
d="M-10 746h-854v238h854v-238z" />
    <glyph glyph-name="uni0336" unicode="&#x336;" 
d="M-150 746h-910v238h910v-238z" />
    <glyph glyph-name="uni0337" unicode="&#x337;" 
d="M-330 178h-376l348 962h376z" />
    <glyph glyph-name="uni0338" unicode="&#x338;" 
d="M-394 0h-376l536 1484h376z" />
    <glyph glyph-name="uni0394" unicode="&#x394;" horiz-adv-x="1598" 
d="M1618 0h-1638l592 1402h476zM1008 332l-212 608l-220 -608h432z" />
    <glyph glyph-name="uni03A9" unicode="&#x3a9;" horiz-adv-x="1666" 
d="M1656 0h-740v412q230 120 230 340q0 142 -94 219t-220 77q-148 0 -230 -85t-82 -211q0 -96 56 -187t174 -153v-412h-740v360h330q-230 194 -230 448q0 260 211 437t511 177q302 0 513 -177t211 -439q0 -250 -228 -446h328v-360z" />
    <glyph glyph-name="uni03BC" unicode="&#x3bc;" horiz-adv-x="1384" 
d="M570 -388h-450v1482h450v-568q0 -138 120 -150q126 0 134 176v542h450v-1094h-450v152q-90 -140 -254 -166v-374z" />
    <glyph glyph-name="pi" unicode="&#x3c0;" horiz-adv-x="1466" 
d="M1228 0h-370v782h-74l-80 -782h-370l80 782h-26q-78 0 -84 -82q0 -48 36 -124l-308 -104q-76 168 -76 304q6 138 101 228t271 90h1110l2 -312h-212v-782z" />
    <glyph glyph-name="uni1E00" unicode="&#x1e00;" horiz-adv-x="1598" 
d="M1618 0h-494l-70 198h-526l-72 -198h-476l592 1402h476zM0 0zM800 -516q-107 0 -177.5 70.5t-70.5 177.5t70.5 177.5t177.5 70.5t177.5 -70.5t70.5 -177.5t-70.5 -177.5t-177.5 -70.5zM940 530l-144 410l-148 -410h292zM800 -346q44 0 61 24.5t17 53.5q0 70 -78 78
q-29 0 -53.5 -17t-24.5 -61q0 -32 23 -55t55 -23zM1048 -20z" />
    <glyph glyph-name="uni1E01" unicode="&#x1e01;" horiz-adv-x="1226" 
d="M30 0zM396 -20q-192 0 -279 99t-87 245q0 324 424 334h250q-4 120 -170 120q-118 0 -332 -70l-100 300q300 106 540 106q139 0 254.5 -40.5t184.5 -132.5q65 -89 65 -233v-708h-442v118q-100 -138 -308 -138zM588 -516q-107 0 -177.5 70.5t-70.5 177.5t70.5 177.5
t177.5 70.5t177.5 -70.5t70.5 -177.5t-70.5 -177.5t-177.5 -70.5zM552 266q88 0 152 84v100h-156q-92 0 -96 -88q0 -90 100 -96zM588 -346q44 0 61 24.5t17 53.5q0 70 -78 78q-29 0 -53.5 -17t-24.5 -61q0 -32 23 -55t55 -23zM836 -20z" />
    <glyph glyph-name="uni1E02" unicode="&#x1e02;" horiz-adv-x="1448" 
d="M844 0h-744v1402h710q237 0 388 -83q168 -92 168 -271q0 -96 -57 -176t-179 -124q146 -47 212 -141.5t66 -212.5q0 -133 -75 -220q-85 -94 -214.5 -134t-274.5 -40zM100 0zM730 1504q-108 0 -168 66t-60 162q0 108 66 168t162 60q108 0 168 -66t60 -162q0 -108 -66 -168
t-162 -60zM784 340q64 0 103 31t39 81q0 92 -142 102h-222v-214h222zM784 862q98 0 106 102q0 88 -106 98h-222v-200h222z" />
    <glyph glyph-name="uni1E03" unicode="&#x1e03;" horiz-adv-x="1380" 
d="M860 -16q-176 0 -290 128v-112h-450v1484h450v-500q110 126 278 126q234 0 368 -155t134 -415q0 -104 -26.5 -203.5t-84.5 -179t-151.5 -126.5t-227.5 -47zM120 0zM732 340q84 0 124 61t40 151t-40 151t-124 61q-82 0 -122 -61t-40 -151t40 -151t122 -61zM960 1196
q-108 0 -168 66t-60 162q0 108 66 168t162 60q108 0 168 -66t60 -162q0 -108 -66 -168t-162 -60z" />
    <glyph glyph-name="uni1E04" unicode="&#x1e04;" horiz-adv-x="1448" 
d="M844 0h-744v1402h710q237 0 388 -83q168 -92 168 -271q0 -96 -57 -176t-179 -124q146 -47 212 -141.5t66 -212.5q0 -133 -75 -220q-85 -94 -214.5 -134t-274.5 -40zM100 0zM748 -586q-96 0 -162 60t-66 168t66 168t162 60t162 -60t66 -168t-66 -168t-162 -60zM784 340
q64 0 103 31t39 81q0 92 -142 102h-222v-214h222zM784 862q98 0 106 102q0 88 -106 98h-222v-200h222z" />
    <glyph glyph-name="uni1E05" unicode="&#x1e05;" horiz-adv-x="1380" 
d="M860 -16q-176 0 -290 128v-112h-450v1484h450v-500q110 126 278 126q234 0 368 -155t134 -415q0 -104 -26.5 -203.5t-84.5 -179t-151.5 -126.5t-227.5 -47zM120 0zM736 -586q-96 0 -162 60t-66 168t66 168t162 60t162 -60t66 -168t-66 -168t-162 -60zM732 340
q84 0 124 61t40 151t-40 151t-124 61q-82 0 -122 -61t-40 -151t40 -151t122 -61z" />
    <glyph glyph-name="uni1E06" unicode="&#x1e06;" horiz-adv-x="1448" 
d="M844 0h-744v1402h710q237 0 388 -83q168 -92 168 -271q0 -96 -57 -176t-179 -124q146 -47 212 -141.5t66 -212.5q0 -133 -75 -220q-85 -94 -214.5 -134t-274.5 -40zM100 0zM1068 -406h-640v256h640v-256zM784 340q64 0 103 31t39 81q0 92 -142 102h-222v-214h222z
M784 862q98 0 106 102q0 88 -106 98h-222v-200h222z" />
    <glyph glyph-name="uni1E07" unicode="&#x1e07;" horiz-adv-x="1380" 
d="M860 -16q-176 0 -290 128v-112h-450v1484h450v-500q110 126 278 126q234 0 368 -155t134 -415q0 -104 -26.5 -203.5t-84.5 -179t-151.5 -126.5t-227.5 -47zM120 0zM1056 -406h-640v256h640v-256zM732 340q84 0 124 61t40 151t-40 151t-124 61q-82 0 -122 -61t-40 -151
t40 -151t122 -61z" />
    <glyph glyph-name="uni1E08" unicode="&#x1e08;" horiz-adv-x="1376" 
d="M712 -488q-124 0 -238 38l60 180q42 -14 90 -14q80 0 80 38q0 46 -148 46l60 182q-115 22 -220 76t-187.5 142.5t-130.5 214t-48 291.5q0 316 214 521t546 205q143 0 298 -61.5t294 -198.5l-268 -318q-150 192 -318 192q-138 0 -214 -99t-76 -235t76 -237t214 -101
q160 0 318 164l268 -286q-220 -232 -528 -278l-34 -92q166 -46 166 -166q0 -108 -82 -156t-192 -48zM750 1490l-284 20l270 358l338 -120z" />
    <glyph glyph-name="uni1E09" unicode="&#x1e09;" horiz-adv-x="1122" 
d="M556 -488q-124 0 -238 38l60 180q42 -14 90 -14q80 0 80 38q0 46 -148 46l64 196q-123 23 -221 89t-155.5 178.5t-57.5 278.5q0 266 159 417t419 151q362 0 518 -316l-358 -152q-44 104 -140 104q-132 0 -144 -202q0 -84 35 -144t109 -60q94 0 134 118l364 -168
q-112 -256 -422 -300l-40 -108q166 -46 166 -166q0 -108 -82 -156t-192 -48zM628 1182l-284 20l270 358l338 -120z" />
    <glyph glyph-name="uni1E0A" unicode="&#x1e0a;" horiz-adv-x="1518" 
d="M708 0h-608v1402h626q338 0 550 -184t212 -516q0 -172 -58 -303t-163 -220t-247.5 -134t-311.5 -45zM100 0zM738 1504q-108 0 -168 66t-60 162q0 108 66 168t162 60q108 0 168 -66t60 -162q0 -108 -66 -168t-162 -60zM738 360q136 0 206 98t70 240q0 146 -76 245t-222 99
h-152v-682h174z" />
    <glyph glyph-name="uni1E0B" unicode="&#x1e0b;" horiz-adv-x="1380" 
d="M30 0zM532 -16q-234 0 -368 155t-134 415q0 104 26 203t83.5 178.5t151 127t229.5 47.5q180 0 290 -128v502h450v-1484h-450v110q-110 -126 -278 -126zM420 1196q-108 0 -168 66t-60 162q0 108 66 168t162 60q108 0 168 -66t60 -162q0 -108 -66 -168t-162 -60zM648 330
q82 0 122 61t40 151t-40 151t-122 61q-80 0 -122 -61.5t-42 -150.5t42 -150.5t122 -61.5z" />
    <glyph glyph-name="uni1E0C" unicode="&#x1e0c;" horiz-adv-x="1518" 
d="M708 0h-608v1402h626q338 0 550 -184t212 -516q0 -172 -58 -303t-163 -220t-247.5 -134t-311.5 -45zM708 -586q-108 0 -168 66t-60 162q0 108 66 168t162 60q108 0 168 -66t60 -162q0 -108 -66 -168t-162 -60zM738 360q136 0 206 98t70 240q0 146 -76 245t-222 99h-152
v-682h174z" />
    <glyph glyph-name="uni1E0D" unicode="&#x1e0d;" horiz-adv-x="1380" 
d="M532 -16q-234 0 -368 155t-134 415q0 104 26 203t83.5 178.5t151 127t229.5 47.5q180 0 290 -128v502h450v-1484h-450v110q-110 -126 -278 -126zM708 -586q-108 0 -168 66t-60 162q0 108 66 168t162 60q108 0 168 -66t60 -162q0 -108 -66 -168t-162 -60zM648 330
q82 0 122 61t40 151t-40 151t-122 61q-80 0 -122 -61.5t-42 -150.5t42 -150.5t122 -61.5z" />
    <glyph glyph-name="uni1E0E" unicode="&#x1e0e;" horiz-adv-x="1518" 
d="M708 0h-608v1402h626q338 0 550 -184t212 -516q0 -172 -58 -303t-163 -220t-247.5 -134t-311.5 -45zM1028 -406h-640v256h640v-256zM738 360q136 0 206 98t70 240q0 146 -76 245t-222 99h-152v-682h174z" />
    <glyph glyph-name="uni1E0F" unicode="&#x1e0f;" horiz-adv-x="1380" 
d="M532 -16q-234 0 -368 155t-134 415q0 104 26 203t83.5 178.5t151 127t229.5 47.5q180 0 290 -128v502h450v-1484h-450v110q-110 -126 -278 -126zM1028 -406h-640v256h640v-256zM648 330q82 0 122 61t40 151t-40 151t-122 61q-80 0 -122 -61.5t-42 -150.5t42 -150.5
t122 -61.5z" />
    <glyph glyph-name="uni1E10" unicode="&#x1e10;" horiz-adv-x="1518" 
d="M708 0h-608v1402h626q338 0 550 -184t212 -516q0 -172 -58 -303t-163 -220t-247.5 -134t-311.5 -45zM782 -488h-240l62 366h350zM738 360q136 0 206 98t70 240q0 146 -76 245t-222 99h-152v-682h174z" />
    <glyph glyph-name="uni1E11" unicode="&#x1e11;" horiz-adv-x="1380" 
d="M532 -16q-234 0 -368 155t-134 415q0 104 26 203t83.5 178.5t151 127t229.5 47.5q180 0 290 -128v502h450v-1484h-450v110q-110 -126 -278 -126zM670 -488h-240l62 366h350zM648 330q82 0 122 61t40 151t-40 151t-122 61q-80 0 -122 -61.5t-42 -150.5t42 -150.5
t122 -61.5z" />
    <glyph glyph-name="uni1E12" unicode="&#x1e12;" horiz-adv-x="1518" 
d="M708 0h-608v1402h626q338 0 550 -184t212 -516q0 -172 -58 -303t-163 -220t-247.5 -134t-311.5 -45zM100 0zM1146 -440h-280l-130 144l-130 -144h-280l222 324h376zM738 360q136 0 206 98t70 240q0 146 -76 245t-222 99h-152v-682h174zM1068 -116z" />
    <glyph glyph-name="uni1E13" unicode="&#x1e13;" horiz-adv-x="1380" 
d="M30 0zM532 -16q-234 0 -368 155t-134 415q0 104 26 203t83.5 178.5t151 127t229.5 47.5q180 0 290 -128v502h450v-1484h-450v110q-110 -126 -278 -126zM1056 -440h-280l-130 144l-130 -144h-280l222 324h376zM648 330q82 0 122 61t40 151t-40 151t-122 61
q-80 0 -122 -61.5t-42 -150.5t42 -150.5t122 -61.5zM978 -116z" />
    <glyph glyph-name="uni1E14" unicode="&#x1e14;" horiz-adv-x="1380" 
d="M1304 0h-1204v1402h1186v-352h-722v-172h656v-352h-656v-174h740v-352zM694 1832l-346 186l278 162l312 -286zM1042 1504h-640v238h640v-238z" />
    <glyph glyph-name="uni1E15" unicode="&#x1e15;" horiz-adv-x="1228" 
d="M626 -16q-201 0 -333 73q-138 79 -200.5 207t-62.5 278q0 272 163 420t421 148q199 0 329 -79q134 -86 194.5 -225t60.5 -304l-2 -56h-712q52 -130 182 -130q116 0 222 98l234 -230q-176 -200 -496 -200zM524 1530l-346 186l278 162l312 -286zM872 1202h-640v238h640
v-238zM746 654q0 148 -128 156q-114 0 -144 -156h272z" />
    <glyph glyph-name="uni1E16" unicode="&#x1e16;" horiz-adv-x="1380" 
d="M1304 0h-1204v1402h1186v-352h-722v-172h656v-352h-656v-174h740v-352zM998 1504h-640v238h640v-238zM686 1832l-244 62l312 286l278 -162z" />
    <glyph glyph-name="uni1E17" unicode="&#x1e17;" horiz-adv-x="1228" 
d="M626 -16q-201 0 -333 73q-138 79 -200.5 207t-62.5 278q0 272 163 420t421 148q199 0 329 -79q134 -86 194.5 -225t60.5 -304l-2 -56h-712q52 -130 182 -130q116 0 222 98l234 -230q-176 -200 -496 -200zM866 1202h-640v238h640v-238zM554 1530l-244 62l312 286l278 -162
zM746 654q0 148 -128 156q-114 0 -144 -156h272z" />
    <glyph glyph-name="uni1E18" unicode="&#x1e18;" horiz-adv-x="1380" 
d="M1304 0h-1204v1402h1186v-352h-722v-172h656v-352h-656v-174h740v-352zM100 0zM1112 -440h-280l-130 144l-130 -144h-280l222 324h376zM1034 -116z" />
    <glyph glyph-name="uni1E19" unicode="&#x1e19;" horiz-adv-x="1228" 
d="M30 0zM626 -16q-201 0 -333 73q-138 79 -200.5 207t-62.5 278q0 272 163 420t421 148q199 0 329 -79q134 -86 194.5 -225t60.5 -304l-2 -56h-712q52 -130 182 -130q116 0 222 98l234 -230q-176 -200 -496 -200zM1024 -440h-280l-130 144l-130 -144h-280l222 324h376z
M746 654q0 148 -128 156q-114 0 -144 -156h272zM946 -116z" />
    <glyph glyph-name="uni1E1A" unicode="&#x1e1a;" horiz-adv-x="1380" 
d="M1304 0h-1204v1402h1186v-352h-722v-172h656v-352h-656v-174h740v-352zM100 0zM874 -458q-86 0 -184 54q-50 28 -82 28q-56 0 -58 -78h-234q0 356 204 356q96 0 196 -54q50 -28 80 -28q60 0 60 76h232q0 -186 -52.5 -270t-161.5 -84zM1058 -98z" />
    <glyph glyph-name="uni1E1B" unicode="&#x1e1b;" horiz-adv-x="1228" 
d="M30 0zM626 -16q-201 0 -333 73q-138 79 -200.5 207t-62.5 278q0 272 163 420t421 148q199 0 329 -79q134 -86 194.5 -225t60.5 -304l-2 -56h-712q52 -130 182 -130q116 0 222 98l234 -230q-176 -200 -496 -200zM786 -458q-86 0 -184 54q-50 28 -82 28q-56 0 -58 -78h-234
q0 356 204 356q96 0 196 -54q50 -28 80 -28q60 0 60 76h232q0 -186 -52.5 -270t-161.5 -84zM746 654q0 148 -128 156q-114 0 -144 -156h272zM970 -98z" />
    <glyph glyph-name="uni1E1C" unicode="&#x1e1c;" horiz-adv-x="1380" 
d="M678 -488q-124 0 -238 38l60 180q42 -14 90 -14q80 0 80 38q0 46 -148 46l66 200h-488v1402h1186v-352h-722v-172h656v-352h-656v-174h740v-352h-474l-44 -118q166 -46 166 -166q0 -108 -82 -156t-192 -48zM656 1504q-174 0 -265 96t-103 252h270q18 -100 98 -100
q82 0 98 100h270q-12 -156 -103 -252t-265 -96z" />
    <glyph glyph-name="uni1E1D" unicode="&#x1e1d;" horiz-adv-x="1228" 
d="M590 -488q-124 0 -238 38l60 180q42 -14 90 -14q80 0 80 38q0 46 -148 46l64 194q-246 48 -357 197t-111 351q0 272 163 420t421 148q199 0 329 -79q134 -86 194.5 -225t60.5 -304l-2 -56h-712q52 -130 182 -130q116 0 222 98l234 -230q-142 -160 -384 -192l-40 -110
q166 -46 166 -166q0 -108 -82 -156t-192 -48zM602 1190q-174 0 -265 96t-103 252h270q18 -100 98 -100q82 0 98 100h270q-12 -156 -103 -252t-265 -96zM746 654q0 148 -128 156q-114 0 -144 -156h272z" />
    <glyph glyph-name="uni1E1E" unicode="&#x1e1e;" horiz-adv-x="1262" 
d="M564 0h-464v1402h1128v-352h-664v-242h622v-352h-622v-456zM100 0zM664 1504q-108 0 -168 66t-60 162q0 108 66 168t162 60q108 0 168 -66t60 -162q0 -108 -66 -168t-162 -60z" />
    <glyph glyph-name="uni1E1F" unicode="&#x1e1f;" horiz-adv-x="852" 
d="M40 0zM638 0h-448v750h-150v284h150v98q0 184 129 278t325 94q128 0 254 -38l-44 -332q-66 22 -112 22q-104 -2 -104 -92v-30h212v-284h-212v-750zM652 1606q-108 0 -168 66t-60 162q0 108 66 168t162 60q108 0 168 -66t60 -162q0 -108 -66 -168t-162 -60z" />
    <glyph glyph-name="uni1E20" unicode="&#x1e20;" horiz-adv-x="1476" 
d="M790 -20q-330 0 -545 204t-215 516q0 310 224 513t566 203q147 0 306.5 -51.5t299.5 -164.5l-262 -318q-172 148 -346 148q-132 0 -222 -91t-90 -239q0 -158 94 -246t222 -88q74 0 186 48l2 86h-210v302h600l4 -642q-165 -97 -325.5 -138.5t-288.5 -41.5zM1126 1504h-760
v256h760v-256z" />
    <glyph glyph-name="uni1E21" unicode="&#x1e21;" horiz-adv-x="1308" 
d="M590 -408q-312 0 -516 142l142 302q176 -96 334 -96q198 0 204 138v104q-102 -116 -274 -116q-82 0 -162 29t-145 91.5t-104 163.5t-39 244q0 173 60 287q68 121 168.5 175t213.5 54q176 0 282 -118v102h448v-1004q0 -238 -176 -368t-436 -130zM942 1268h-640v256h640
v-256zM602 386q78 0 115 58t37 138q0 84 -37 141t-115 57q-40 0 -74.5 -20t-56 -64t-21.5 -114q0 -82 38 -139t114 -57z" />
    <glyph glyph-name="uni1E22" unicode="&#x1e22;" horiz-adv-x="1562" 
d="M1462 0h-464v506h-434v-506h-464v1402h464v-544h434v544h464v-1402zM100 0zM782 1504q-108 0 -168 66t-60 162q0 108 66 168t162 60q108 0 168 -66t60 -162q0 -108 -66 -168t-162 -60z" />
    <glyph glyph-name="uni1E23" unicode="&#x1e23;" horiz-adv-x="1374" 
d="M118 0zM346 1586q-108 0 -168 66t-60 162q0 108 66 168t162 60q108 0 168 -66t60 -162q0 -108 -66 -168t-162 -60zM1294 0h-450v568q0 138 -130 150q-132 0 -144 -176v-542h-450v1484h450v-546q116 176 332 176q69 0 138.5 -22t126.5 -71t92 -128.5t35 -194.5v-698z" />
    <glyph glyph-name="uni1E24" unicode="&#x1e24;" horiz-adv-x="1562" 
d="M1462 0h-464v506h-434v-506h-464v1402h464v-544h434v544h464v-1402zM782 -586q-96 0 -162 60t-66 168t66 168t162 60q108 0 168 -66t60 -162q0 -108 -66 -168t-162 -60z" />
    <glyph glyph-name="uni1E25" unicode="&#x1e25;" horiz-adv-x="1374" 
d="M1294 0h-450v568q0 138 -130 150q-132 0 -144 -176v-542h-450v1484h450v-546q116 176 332 176q69 0 138.5 -22t126.5 -71t92 -128.5t35 -194.5v-698zM708 -586q-108 0 -168 66t-60 162q0 108 66 168t162 60q108 0 168 -66t60 -162q0 -108 -66 -168t-162 -60z" />
    <glyph glyph-name="uni1E26" unicode="&#x1e26;" horiz-adv-x="1562" 
d="M1462 0h-464v506h-434v-506h-464v1402h464v-544h434v544h464v-1402zM100 0zM580 1504q-84 0 -130 53t-46 123q0 46 18 86.5t56.5 66t101.5 25.5q60 0 99 -25t58 -65.5t19 -87.5q0 -70 -46 -123t-130 -53zM984 1504q-84 0 -130 53t-46 123q0 46 18 86.5t56.5 66
t101.5 25.5q60 0 99 -25t58 -65.5t19 -87.5q0 -70 -46 -123t-130 -53z" />
    <glyph glyph-name="uni1E27" unicode="&#x1e27;" horiz-adv-x="1374" 
d="M144 1586q-84 0 -130 53t-46 123q0 46 18 86.5t56.5 66t101.5 25.5q60 0 99 -25t58 -65.5t19 -87.5q0 -70 -46 -123t-130 -53zM0 0zM1294 0h-450v568q0 138 -130 150q-132 0 -144 -176v-542h-450v1484h450v-546q116 176 332 176q69 0 138.5 -22t126.5 -71t92 -128.5
t35 -194.5v-698zM548 1586q-84 0 -130 53t-46 123q0 46 18 86.5t56.5 66t101.5 25.5q60 0 99 -25t58 -65.5t19 -87.5q0 -70 -46 -123t-130 -53z" />
    <glyph glyph-name="uni1E28" unicode="&#x1e28;" horiz-adv-x="1562" 
d="M64 0zM302 -488q-124 0 -238 38l60 180q42 -14 90 -14q80 0 80 38q0 46 -148 46l72 220l236 -20l-44 -118q166 -46 166 -166q0 -108 -82 -156t-192 -48zM1462 0h-464v506h-434v-506h-464v1402h464v-544h434v544h464v-1402z" />
    <glyph glyph-name="uni1E29" unicode="&#x1e29;" horiz-adv-x="1374" 
d="M78 0zM316 -488q-124 0 -238 38l60 180q42 -14 90 -14q80 0 80 38q0 46 -148 46l72 220l236 -20l-44 -118q166 -46 166 -166q0 -108 -82 -156t-192 -48zM1294 0h-450v568q0 138 -130 150q-132 0 -144 -176v-542h-450v1484h450v-546q116 176 332 176q69 0 138.5 -22
t126.5 -71t92 -128.5t35 -194.5v-698z" />
    <glyph glyph-name="uni1E2A" unicode="&#x1e2a;" horiz-adv-x="1562" 
d="M1462 0h-464v506h-434v-506h-464v1402h464v-544h434v544h464v-1402zM782 -478q-174 0 -265 96t-103 252h270q18 -100 98 -100q82 0 98 100h270q-12 -156 -103 -252t-265 -96z" />
    <glyph glyph-name="uni1E2B" unicode="&#x1e2b;" horiz-adv-x="1374" 
d="M1294 0h-450v568q0 138 -130 150q-132 0 -144 -176v-542h-450v1484h450v-546q116 176 332 176q69 0 138.5 -22t126.5 -71t92 -128.5t35 -194.5v-698zM708 -478q-174 0 -265 96t-103 252h270q18 -100 98 -100q82 0 98 100h270q-12 -156 -103 -252t-265 -96z" />
    <glyph glyph-name="uni1E2C" unicode="&#x1e2c;" horiz-adv-x="664" 
d="M504 -458q-86 0 -184 54q-50 28 -82 28q-56 0 -58 -78h-234q0 356 204 356q96 0 196 -54q50 -28 80 -28q60 0 60 76h232q0 -186 -52.5 -270t-161.5 -84zM0 0zM564 0h-464v1402h464v-1402zM688 -98z" />
    <glyph glyph-name="uni1E2D" unicode="&#x1e2d;" horiz-adv-x="670" 
d="M508 -458q-86 0 -184 54q-50 28 -82 28q-56 0 -58 -78h-234q0 356 204 356q96 0 196 -54q50 -28 80 -28q60 0 60 76h232q0 -186 -52.5 -270t-161.5 -84zM0 0zM336 1178q-108 0 -168 66t-60 162t60 162t168 66t168 -66t60 -162t-60 -162t-168 -66zM560 0h-450v1094h450
v-1094zM692 -98z" />
    <glyph glyph-name="uni1E2E" unicode="&#x1e2e;" horiz-adv-x="664" 
d="M118 1504q-84 0 -130 53t-46 123q0 164 176 178q42 0 82.5 -16.5t67 -55.5t26.5 -106q0 -70 -46 -123t-130 -53zM340 1914l-244 62l312 286l278 -162zM564 0h-464v1402h464v-1402zM546 1504q-84 0 -130 53t-46 123q0 164 176 178q42 0 82.5 -16.5t67 -55.5t26.5 -106
q0 -70 -46 -123t-130 -53z" />
    <glyph glyph-name="uni1E2F" unicode="&#x1e2f;" horiz-adv-x="670" 
d="M122 1202q-84 0 -130 53t-46 123q0 164 176 178q42 0 82.5 -16.5t67 -55.5t26.5 -106q0 -70 -46 -123t-130 -53zM344 1612l-244 62l312 286l278 -162zM560 0h-450v1094h450v-1094zM550 1202q-84 0 -130 53t-46 123q0 164 176 178q42 0 82.5 -16.5t67 -55.5t26.5 -106
q0 -70 -46 -123t-130 -53z" />
    <glyph glyph-name="uni1E30" unicode="&#x1e30;" horiz-adv-x="1546" 
d="M1546 0h-554l-296 488l-132 -148v-340h-464v1402h464v-512l418 512h534l-502 -560zM100 0zM906 1490l-284 20l270 358l338 -120z" />
    <glyph glyph-name="uni1E31" unicode="&#x1e31;" horiz-adv-x="1324" 
d="M1326 0h-534l-168 344l-54 -56v-288h-450v1484h450v-674l254 284h508l-398 -422zM120 0zM428 1572l-284 20l270 358l338 -120z" />
    <glyph glyph-name="uni1E32" unicode="&#x1e32;" horiz-adv-x="1546" 
d="M1546 0h-554l-296 488l-132 -148v-340h-464v1402h464v-512l418 512h534l-502 -560zM100 0zM824 -586q-96 0 -162 60t-66 168t66 168t162 60t162 -60t66 -168t-66 -168t-162 -60z" />
    <glyph glyph-name="uni1E33" unicode="&#x1e33;" horiz-adv-x="1324" 
d="M1326 0h-534l-168 344l-54 -56v-288h-450v1484h450v-674l254 284h508l-398 -422zM120 0zM726 -586q-96 0 -162 60t-66 168t66 168t162 60t162 -60t66 -168t-66 -168t-162 -60z" />
    <glyph glyph-name="uni1E34" unicode="&#x1e34;" horiz-adv-x="1546" 
d="M1546 0h-554l-296 488l-132 -148v-340h-464v1402h464v-512l418 512h534l-502 -560zM100 0zM1144 -406h-640v256h640v-256z" />
    <glyph glyph-name="uni1E35" unicode="&#x1e35;" horiz-adv-x="1324" 
d="M1326 0h-534l-168 344l-54 -56v-288h-450v1484h450v-674l254 284h508l-398 -422zM120 0zM1046 -406h-640v256h640v-256z" />
    <glyph glyph-name="uni1E36" unicode="&#x1e36;" horiz-adv-x="1168" 
d="M1148 0h-1048v1402h464v-1016h584v-386zM624 -586q-96 0 -162 60t-66 168t66 168t162 60q108 0 168 -66t60 -162q0 -108 -66 -168t-162 -60z" />
    <glyph glyph-name="uni1E37" unicode="&#x1e37;" horiz-adv-x="748" 
d="M546 -22q-118 0 -222 48t-169 152t-65 276v1030h450v-1020q0 -100 92 -100q50 0 100 26l26 -374q-102 -38 -212 -38zM424 -586q-96 0 -162 60t-66 168t66 168t162 60t162 -60t66 -168t-66 -168t-162 -60z" />
    <glyph glyph-name="uni1E38" unicode="&#x1e38;" horiz-adv-x="1168" 
d="M712 1504h-760v256h760v-256zM0 0zM1148 0h-1048v1402h464v-1016h584v-386zM624 -586q-96 0 -162 60t-66 168t66 168t162 60q108 0 168 -66t60 -162q0 -108 -66 -168t-162 -60z" />
    <glyph glyph-name="uni1E39" unicode="&#x1e39;" horiz-adv-x="748" 
d="M696 1586h-760v256h760v-256zM0 0zM546 -22q-118 0 -222 48t-169 152t-65 276v1030h450v-1020q0 -100 92 -100q50 0 100 26l26 -374q-102 -38 -212 -38zM424 -586q-96 0 -162 60t-66 168t66 168t162 60t162 -60t66 -168t-66 -168t-162 -60z" />
    <glyph glyph-name="uni1E3A" unicode="&#x1e3a;" horiz-adv-x="1168" 
d="M1148 0h-1048v1402h464v-1016h584v-386zM944 -406h-640v256h640v-256z" />
    <glyph glyph-name="uni1E3B" unicode="&#x1e3b;" horiz-adv-x="748" 
d="M546 -22q-118 0 -222 48t-169 152t-65 276v1030h450v-1020q0 -100 92 -100q50 0 100 26l26 -374q-102 -38 -212 -38zM774 -406h-640v256h640v-256z" />
    <glyph glyph-name="uni1E3C" unicode="&#x1e3c;" horiz-adv-x="1168" 
d="M1148 0h-1048v1402h464v-1016h584v-386zM100 0zM1034 -440h-280l-130 144l-130 -144h-280l222 324h376zM956 -116z" />
    <glyph glyph-name="uni1E3D" unicode="&#x1e3d;" horiz-adv-x="748" 
d="M90 0zM546 -22q-118 0 -222 48t-169 152t-65 276v1030h450v-1020q0 -100 92 -100q50 0 100 26l26 -374q-102 -38 -212 -38zM960 -440h-280l-130 144l-130 -144h-280l222 324h376zM882 -116z" />
    <glyph glyph-name="uni1E3E" unicode="&#x1e3e;" horiz-adv-x="1878" 
d="M1778 0h-406v768l-282 -632h-302l-282 632v-768h-406v1402h492l348 -732l346 732h492v-1402zM100 0zM1022 1490l-284 20l270 358l338 -120z" />
    <glyph glyph-name="uni1E3F" unicode="&#x1e3f;" horiz-adv-x="2064" 
d="M1984 0h-450v568q0 138 -124 150q-126 0 -138 -176v-542h-450v568q0 138 -124 150q-126 0 -138 -176v-542h-450v1094h450v-154q114 174 326 174q250 0 354 -234q112 234 358 234q96 0 184.5 -42t147.5 -138q54 -92 54 -236v-698zM110 0zM1130 1182l-284 20l270 358
l338 -120z" />
    <glyph glyph-name="uni1E40" unicode="&#x1e40;" horiz-adv-x="1878" 
d="M1778 0h-406v768l-282 -632h-302l-282 632v-768h-406v1402h492l348 -732l346 732h492v-1402zM100 0zM940 1504q-108 0 -168 66t-60 162q0 108 66 168t162 60q108 0 168 -66t60 -162q0 -108 -66 -168t-162 -60z" />
    <glyph glyph-name="uni1E41" unicode="&#x1e41;" horiz-adv-x="2064" 
d="M1984 0h-450v568q0 138 -124 150q-126 0 -138 -176v-542h-450v568q0 138 -124 150q-126 0 -138 -176v-542h-450v1094h450v-154q114 174 326 174q250 0 354 -234q112 234 358 234q96 0 184.5 -42t147.5 -138q54 -92 54 -236v-698zM110 0zM1048 1178q-108 0 -168 66
t-60 162q0 108 66 168t162 60q108 0 168 -66t60 -162q0 -108 -66 -168t-162 -60z" />
    <glyph glyph-name="uni1E42" unicode="&#x1e42;" horiz-adv-x="1878" 
d="M1778 0h-406v768l-282 -632h-302l-282 632v-768h-406v1402h492l348 -732l346 732h492v-1402zM938 -586q-96 0 -162 60t-66 168t66 168t162 60q108 0 168 -66t60 -162t-60 -162t-168 -66z" />
    <glyph glyph-name="uni1E43" unicode="&#x1e43;" horiz-adv-x="2064" 
d="M1984 0h-450v568q0 138 -124 150q-126 0 -138 -176v-542h-450v568q0 138 -124 150q-126 0 -138 -176v-542h-450v1094h450v-154q114 174 326 174q250 0 354 -234q112 234 358 234q96 0 184.5 -42t147.5 -138q54 -92 54 -236v-698zM1048 -586q-96 0 -162 60t-66 168t66 168
t162 60q108 0 168 -66t60 -162q0 -108 -66 -168t-162 -60z" />
    <glyph glyph-name="uni1E44" unicode="&#x1e44;" horiz-adv-x="1562" 
d="M1462 0h-388l-552 716v-716h-422v1402h388l554 -720v720h420v-1402zM782 1504q-108 0 -168 66t-60 162q0 108 66 168t162 60q108 0 168 -66t60 -162q0 -108 -66 -168t-162 -60z" />
    <glyph glyph-name="uni1E45" unicode="&#x1e45;" horiz-adv-x="1364" 
d="M1284 0h-450v568q0 138 -130 150q-132 0 -144 -176v-542h-450v1094h450v-156q116 176 332 176q69 0 138.5 -22t126.5 -71t92 -128.5t35 -194.5v-698zM720 1178q-108 0 -168 66t-60 162t60 162t168 66t168 -66t60 -162q0 -108 -66 -168t-162 -60z" />
    <glyph glyph-name="uni1E46" unicode="&#x1e46;" horiz-adv-x="1562" 
d="M1462 0h-388l-552 716v-716h-422v1402h388l554 -720v720h420v-1402zM798 -586q-96 0 -162 60t-66 168t66 168t162 60q108 0 168 -66t60 -162q0 -108 -66 -168t-162 -60z" />
    <glyph glyph-name="uni1E47" unicode="&#x1e47;" horiz-adv-x="1364" 
d="M1284 0h-450v568q0 138 -130 150q-132 0 -144 -176v-542h-450v1094h450v-156q116 176 332 176q69 0 138.5 -22t126.5 -71t92 -128.5t35 -194.5v-698zM694 -586q-108 0 -168 66t-60 162q0 108 66 168t162 60q108 0 168 -66t60 -162q0 -108 -66 -168t-162 -60z" />
    <glyph glyph-name="uni1E48" unicode="&#x1e48;" horiz-adv-x="1562" 
d="M1462 0h-388l-552 716v-716h-422v1402h388l554 -720v720h420v-1402zM1118 -406h-640v256h640v-256z" />
    <glyph glyph-name="uni1E49" unicode="&#x1e49;" horiz-adv-x="1364" 
d="M1284 0h-450v568q0 138 -130 150q-132 0 -144 -176v-542h-450v1094h450v-156q116 176 332 176q69 0 138.5 -22t126.5 -71t92 -128.5t35 -194.5v-698zM1014 -406h-640v256h640v-256z" />
    <glyph glyph-name="uni1E4A" unicode="&#x1e4a;" horiz-adv-x="1562" 
d="M1462 0h-388l-552 716v-716h-422v1402h388l554 -720v720h420v-1402zM100 0zM1192 -440h-280l-130 144l-130 -144h-280l222 324h376zM1114 -116z" />
    <glyph glyph-name="uni1E4B" unicode="&#x1e4b;" horiz-adv-x="1364" 
d="M1284 0h-450v568q0 138 -130 150q-132 0 -144 -176v-542h-450v1094h450v-156q116 176 332 176q69 0 138.5 -22t126.5 -71t92 -128.5t35 -194.5v-698zM110 0zM1108 -440h-280l-130 144l-130 -144h-280l222 324h376zM1030 -116z" />
    <glyph glyph-name="uni1E4C" unicode="&#x1e4c;" horiz-adv-x="1600" 
d="M800 -32q-332 0 -551 207t-219 529q0 318 218 523t552 205t552 -206t218 -522q0 -322 -218 -529t-552 -207zM984 1500q-102 0 -218 50q-54 26 -94 26q-60 0 -60 -60v-12h-200q0 149 49.5 222.5t162.5 73.5q96 0 210 -50q54 -26 92 -26q62 0 62 64v6h198q0 -294 -202 -294
zM806 354q112 0 200 90t88 258q0 160 -87 252t-201 92q-116 0 -208 -91t-92 -253q0 -160 92 -254t208 -94zM810 1882l-244 62l312 286l278 -162z" />
    <glyph glyph-name="uni1E4D" unicode="&#x1e4d;" horiz-adv-x="1296" 
d="M648 -16q-208 0 -344 75q-142 79 -208 208t-66 281q0 266 171 414t447 148t447 -148t171 -414q0 -150 -65 -279t-208 -210q-138 -75 -345 -75zM832 1198q-102 0 -218 50q-54 26 -94 26q-60 0 -60 -60v-12h-200q0 149 49.5 222.5t162.5 73.5q96 0 210 -50q54 -26 92 -26
q62 0 62 64v6h198q0 -294 -202 -294zM658 1580l-244 62l312 286l278 -162zM648 330q84 0 124 61t40 151t-40 151t-124 61q-80 0 -122 -61.5t-42 -150.5t42 -150.5t122 -61.5z" />
    <glyph glyph-name="uni1E4E" unicode="&#x1e4e;" horiz-adv-x="1600" 
d="M800 -32q-332 0 -551 207t-219 529q0 318 218 523t552 205t552 -206t218 -522q0 -322 -218 -529t-552 -207zM958 1500q-102 0 -218 50q-54 26 -94 26q-60 0 -60 -60v-12h-200q0 149 49.5 222.5t162.5 73.5q96 0 210 -50q54 -26 92 -26q62 0 62 64v6h198q0 -294 -202 -294
zM562 1882q-84 0 -130 53t-46 123q0 164 176 178q42 0 82.5 -16.5t67 -55.5t26.5 -106q0 -70 -46 -123t-130 -53zM806 354q112 0 200 90t88 258q0 160 -87 252t-201 92q-116 0 -208 -91t-92 -253q0 -160 92 -254t208 -94zM990 1882q-84 0 -130 53t-46 123q0 164 176 178
q42 0 82.5 -16.5t67 -55.5t26.5 -106q0 -70 -46 -123t-130 -53z" />
    <glyph glyph-name="uni1E4F" unicode="&#x1e4f;" horiz-adv-x="1296" 
d="M648 -16q-208 0 -344 75q-142 79 -208 208t-66 281q0 266 171 414t447 148t447 -148t171 -414q0 -150 -65 -279t-208 -210q-138 -75 -345 -75zM802 1198q-102 0 -218 50q-54 26 -94 26q-60 0 -60 -60v-12h-200q0 149 49.5 222.5t162.5 73.5q96 0 210 -50q54 -26 92 -26
q62 0 62 64v6h198q0 -294 -202 -294zM406 1580q-84 0 -130 53t-46 123q0 164 176 178q42 0 82.5 -16.5t67 -55.5t26.5 -106q0 -70 -46 -123t-130 -53zM648 330q84 0 124 61t40 151t-40 151t-124 61q-80 0 -122 -61.5t-42 -150.5t42 -150.5t122 -61.5zM834 1580
q-84 0 -130 53t-46 123q0 164 176 178q42 0 82.5 -16.5t67 -55.5t26.5 -106q0 -70 -46 -123t-130 -53z" />
    <glyph glyph-name="uni1E50" unicode="&#x1e50;" horiz-adv-x="1600" 
d="M800 -32q-332 0 -551 207t-219 529q0 318 218 523t552 205t552 -206t218 -522q0 -322 -218 -529t-552 -207zM798 1832l-346 186l278 162l312 -286zM806 354q112 0 200 90t88 258q0 160 -87 252t-201 92q-116 0 -208 -91t-92 -253q0 -160 92 -254t208 -94zM1146 1504h-640
v238h640v-238z" />
    <glyph glyph-name="uni1E51" unicode="&#x1e51;" horiz-adv-x="1296" 
d="M648 -16q-208 0 -344 75q-142 79 -208 208t-66 281q0 266 171 414t447 148t447 -148t171 -414q0 -150 -65 -279t-208 -210q-138 -75 -345 -75zM566 1530l-346 186l278 162l312 -286zM914 1202h-640v238h640v-238zM648 330q84 0 124 61t40 151t-40 151t-124 61
q-80 0 -122 -61.5t-42 -150.5t42 -150.5t122 -61.5z" />
    <glyph glyph-name="uni1E52" unicode="&#x1e52;" horiz-adv-x="1600" 
d="M800 -32q-332 0 -551 207t-219 529q0 318 218 523t552 205t552 -206t218 -522q0 -322 -218 -529t-552 -207zM1102 1504h-640v238h640v-238zM806 354q112 0 200 90t88 258q0 160 -87 252t-201 92q-116 0 -208 -91t-92 -253q0 -160 92 -254t208 -94zM790 1832l-244 62
l312 286l278 -162z" />
    <glyph glyph-name="uni1E53" unicode="&#x1e53;" horiz-adv-x="1296" 
d="M648 -16q-208 0 -344 75q-142 79 -208 208t-66 281q0 266 171 414t447 148t447 -148t171 -414q0 -150 -65 -279t-208 -210q-138 -75 -345 -75zM908 1202h-640v238h640v-238zM596 1530l-244 62l312 286l278 -162zM648 330q84 0 124 61t40 151t-40 151t-124 61
q-80 0 -122 -61.5t-42 -150.5t42 -150.5t122 -61.5z" />
    <glyph glyph-name="uni1E54" unicode="&#x1e54;" horiz-adv-x="1372" 
d="M564 0h-464v1402h658q257 0 408 -116q166 -127 166 -386q0 -150 -59 -272t-190 -195q-127 -69 -325 -69h-194v-364zM100 0zM798 1490l-284 20l270 358l338 -120zM734 716q150 0 158 170q0 156 -158 164h-170v-334h170z" />
    <glyph glyph-name="uni1E55" unicode="&#x1e55;" horiz-adv-x="1380" 
d="M120 0zM570 -388h-450v1482h450v-110q110 126 278 126q234 0 368 -155t134 -415q0 -104 -26.5 -203.5t-84.5 -179t-151.5 -126.5t-227.5 -47q-176 0 -290 128v-500zM818 1182l-284 20l270 358l338 -120zM732 340q84 0 124 61t40 151t-40 151t-124 61q-82 0 -122 -61
t-40 -151t40 -151t122 -61z" />
    <glyph glyph-name="uni1E56" unicode="&#x1e56;" horiz-adv-x="1372" 
d="M564 0h-464v1402h658q257 0 408 -116q166 -127 166 -386q0 -150 -59 -272t-190 -195q-127 -69 -325 -69h-194v-364zM100 0zM716 1504q-108 0 -168 66t-60 162q0 108 66 168t162 60q108 0 168 -66t60 -162q0 -108 -66 -168t-162 -60zM734 716q150 0 158 170
q0 156 -158 164h-170v-334h170z" />
    <glyph glyph-name="uni1E57" unicode="&#x1e57;" horiz-adv-x="1380" 
d="M120 0zM570 -388h-450v1482h450v-110q110 126 278 126q234 0 368 -155t134 -415q0 -104 -26.5 -203.5t-84.5 -179t-151.5 -126.5t-227.5 -47q-176 0 -290 128v-500zM736 1178q-108 0 -168 66t-60 162q0 108 66 168t162 60q108 0 168 -66t60 -162q0 -108 -66 -168
t-162 -60zM732 340q84 0 124 61t40 151t-40 151t-124 61q-82 0 -122 -61t-40 -151t40 -151t122 -61z" />
    <glyph glyph-name="uni1E58" unicode="&#x1e58;" horiz-adv-x="1450" 
d="M1430 0h-524l-168 364h-174v-364h-464v1402h678q168 0 304.5 -51t217.5 -166q76 -111 76 -285q0 -306 -222 -444zM100 0zM720 1504q-108 0 -168 66t-60 162q0 108 66 168t162 60q108 0 168 -66t60 -162q0 -108 -66 -168t-162 -60zM778 716q150 0 158 170q0 156 -158 164
h-214v-334h214z" />
    <glyph glyph-name="uni1E59" unicode="&#x1e59;" horiz-adv-x="914" 
d="M560 0h-450v1094h450v-160q124 180 334 180v-406q-48 6 -88 6q-94 0 -170 -42t-76 -150v-522zM110 0zM502 1178q-108 0 -168 66t-60 162q0 108 66 168t162 60q108 0 168 -66t60 -162q0 -108 -66 -168t-162 -60z" />
    <glyph glyph-name="uni1E5A" unicode="&#x1e5a;" horiz-adv-x="1450" 
d="M1430 0h-524l-168 364h-174v-364h-464v1402h678q168 0 304.5 -51t217.5 -166q76 -111 76 -285q0 -306 -222 -444zM718 -586q-108 0 -168 66t-60 162q0 108 66 168t162 60q108 0 168 -66t60 -162q0 -108 -66 -168t-162 -60zM778 716q150 0 158 170q0 156 -158 164h-214
v-334h214z" />
    <glyph glyph-name="uni1E5B" unicode="&#x1e5b;" horiz-adv-x="914" 
d="M336 -586q-96 0 -162 60t-66 168q0 96 60 162t168 66t168 -66t60 -162q0 -108 -66 -168t-162 -60zM560 0h-450v1094h450v-160q124 180 334 180v-406q-48 6 -88 6q-94 0 -170 -42t-76 -150v-522z" />
    <glyph glyph-name="uni1E5C" unicode="&#x1e5c;" horiz-adv-x="1450" 
d="M1430 0h-524l-168 364h-174v-364h-464v1402h678q168 0 304.5 -51t217.5 -166q76 -111 76 -285q0 -306 -222 -444zM100 0zM1100 1504h-760v256h760v-256zM718 -586q-108 0 -168 66t-60 162q0 108 66 168t162 60q108 0 168 -66t60 -162q0 -108 -66 -168t-162 -60zM778 716
q150 0 158 170q0 156 -158 164h-214v-334h214z" />
    <glyph glyph-name="uni1E5D" unicode="&#x1e5d;" horiz-adv-x="914" 
d="M108 0zM336 -586q-96 0 -162 60t-66 168q0 96 60 162t168 66t168 -66t60 -162q0 -108 -66 -168t-162 -60zM560 0h-450v1094h450v-160q124 180 334 180v-406q-48 6 -88 6q-94 0 -170 -42t-76 -150v-522zM822 1268h-640v256h640v-256z" />
    <glyph glyph-name="uni1E5E" unicode="&#x1e5e;" horiz-adv-x="1450" 
d="M1430 0h-524l-168 364h-174v-364h-464v1402h678q168 0 304.5 -51t217.5 -166q76 -111 76 -285q0 -306 -222 -444zM1038 -406h-640v256h640v-256zM778 716q150 0 158 170q0 156 -158 164h-214v-334h214z" />
    <glyph glyph-name="uni1E5F" unicode="&#x1e5f;" horiz-adv-x="914" 
d="M656 -406h-640v256h640v-256zM560 0h-450v1094h450v-160q124 180 334 180v-406q-48 6 -88 6q-94 0 -170 -42t-76 -150v-522z" />
    <glyph glyph-name="uni1E60" unicode="&#x1e60;" horiz-adv-x="1328" 
d="M718 -26q-168 0 -352 55t-350 173l172 350q152 -114 295 -168t239 -54q112 0 112 78q0 43 -54 73.5t-178 54.5q-128 28 -249 78t-197 168q-48 74 -48 194q0 224 170 343t430 119q334 0 610 -168l-168 -354q-112 67 -241 116.5t-241 49.5q-86 0 -86 -62q0 -50 56 -76
t168 -54q126 -26 252 -82t204 -176q46 -82 46 -200q0 -224 -168 -341t-422 -117zM718 1504q-108 0 -168 66t-60 162q0 108 66 168t162 60q108 0 168 -66t60 -162q0 -108 -66 -168t-162 -60z" />
    <glyph glyph-name="uni1E61" unicode="&#x1e61;" horiz-adv-x="1104" 
d="M558 -20q-302 0 -534 156l136 280q224 -136 404 -136q66 0 68 32q0 20 -32 35.5t-104 32.5q-202 54 -290 112q-130 90 -130 244q0 184 138 281t344 97q262 0 508 -138l-148 -278q-244 120 -370 120q-56 0 -62 -36q0 -38 156 -78q208 -38 340 -164q72 -68 72 -188
q0 -182 -141 -277t-355 -95zM578 1178q-108 0 -168 66t-60 162q0 108 66 168t162 60q108 0 168 -66t60 -162q0 -108 -66 -168t-162 -60z" />
    <glyph glyph-name="uni1E62" unicode="&#x1e62;" horiz-adv-x="1328" 
d="M718 -26q-168 0 -352 55t-350 173l172 350q152 -114 295 -168t239 -54q112 0 112 78q0 43 -54 73.5t-178 54.5q-128 28 -249 78t-197 168q-48 74 -48 194q0 224 170 343t430 119q334 0 610 -168l-168 -354q-112 67 -241 116.5t-241 49.5q-86 0 -86 -62q0 -50 56 -76
t168 -54q126 -26 252 -82t204 -176q46 -82 46 -200q0 -224 -168 -341t-422 -117zM690 -586q-108 0 -168 66t-60 162q0 108 66 168t162 60q108 0 168 -66t60 -162q0 -108 -66 -168t-162 -60z" />
    <glyph glyph-name="uni1E63" unicode="&#x1e63;" horiz-adv-x="1104" 
d="M558 -20q-302 0 -534 156l136 280q224 -136 404 -136q66 0 68 32q0 20 -32 35.5t-104 32.5q-202 54 -290 112q-130 90 -130 244q0 184 138 281t344 97q262 0 508 -138l-148 -278q-244 120 -370 120q-56 0 -62 -36q0 -38 156 -78q208 -38 340 -164q72 -68 72 -188
q0 -182 -141 -277t-355 -95zM550 -586q-96 0 -162 60t-66 168t66 168t162 60q108 0 168 -66t60 -162q0 -108 -66 -168t-162 -60z" />
    <glyph glyph-name="uni1E64" unicode="&#x1e64;" horiz-adv-x="1328" 
d="M718 -26q-168 0 -352 55t-350 173l172 350q152 -114 295 -168t239 -54q112 0 112 78q0 43 -54 73.5t-178 54.5q-128 28 -249 78t-197 168q-48 74 -48 194q0 224 170 343t430 119q334 0 610 -168l-168 -354q-112 67 -241 116.5t-241 49.5q-86 0 -86 -62q0 -50 56 -76
t168 -54q126 -26 252 -82t204 -176q46 -82 46 -200q0 -224 -168 -341t-422 -117zM664 1484l-244 62l312 286l278 -162zM716 1892q-84 0 -138 54t-54 138q0 94 57 143t135 49q86 0 139 -53t53 -139q0 -78 -49 -135t-143 -57z" />
    <glyph glyph-name="uni1E65" unicode="&#x1e65;" horiz-adv-x="1104" 
d="M558 -20q-302 0 -534 156l136 280q224 -136 404 -136q66 0 68 32q0 20 -32 35.5t-104 32.5q-202 54 -290 112q-130 90 -130 244q0 184 138 281t344 97q262 0 508 -138l-148 -278q-244 120 -370 120q-56 0 -62 -36q0 -38 156 -78q208 -38 340 -164q72 -68 72 -188
q0 -182 -141 -277t-355 -95zM526 1202l-244 62l312 286l278 -162zM578 1610q-84 0 -138 54t-54 138q0 94 57 143t135 49q86 0 139 -53t53 -139q0 -78 -49 -135t-143 -57z" />
    <glyph glyph-name="uni1E66" unicode="&#x1e66;" horiz-adv-x="1328" 
d="M718 -26q-168 0 -352 55t-350 173l172 350q152 -114 295 -168t239 -54q112 0 112 78q0 43 -54 73.5t-178 54.5q-128 28 -249 78t-197 168q-48 74 -48 194q0 224 170 343t430 119q334 0 610 -168l-168 -354q-112 67 -241 116.5t-241 49.5q-86 0 -86 -62q0 -50 56 -76
t168 -54q126 -26 252 -82t204 -176q46 -82 46 -200q0 -224 -168 -341t-422 -117zM942 1504h-406l-248 276h322l128 -142l130 142h320zM738 1890q-84 0 -138 54t-54 138q0 94 57 143t135 49q86 0 139 -53t53 -139q0 -78 -49 -135t-143 -57z" />
    <glyph glyph-name="uni1E67" unicode="&#x1e67;" horiz-adv-x="1104" 
d="M558 -20q-302 0 -534 156l136 280q224 -136 404 -136q66 0 68 32q0 20 -32 35.5t-104 32.5q-202 54 -290 112q-130 90 -130 244q0 184 138 281t344 97q262 0 508 -138l-148 -278q-244 120 -370 120q-56 0 -62 -36q0 -38 156 -78q208 -38 340 -164q72 -68 72 -188
q0 -182 -141 -277t-355 -95zM802 1202h-406l-248 276h322l128 -142l130 142h320zM598 1588q-84 0 -138 54t-54 138q0 94 57 143t135 49q86 0 139 -53t53 -139q0 -78 -49 -135t-143 -57z" />
    <glyph glyph-name="uni1E68" unicode="&#x1e68;" horiz-adv-x="1328" 
d="M718 -26q-168 0 -352 55t-350 173l172 350q152 -114 295 -168t239 -54q112 0 112 78q0 43 -54 73.5t-178 54.5q-128 28 -249 78t-197 168q-48 74 -48 194q0 224 170 343t430 119q334 0 610 -168l-168 -354q-112 67 -241 116.5t-241 49.5q-86 0 -86 -62q0 -50 56 -76
t168 -54q126 -26 252 -82t204 -176q46 -82 46 -200q0 -224 -168 -341t-422 -117zM690 -586q-108 0 -168 66t-60 162q0 108 66 168t162 60q108 0 168 -66t60 -162q0 -108 -66 -168t-162 -60zM690 1504q-108 0 -168 66t-60 162q0 108 66 168t162 60q108 0 168 -66t60 -162
q0 -108 -66 -168t-162 -60z" />
    <glyph glyph-name="uni1E69" unicode="&#x1e69;" horiz-adv-x="1104" 
d="M558 -20q-302 0 -534 156l136 280q224 -136 404 -136q66 0 68 32q0 20 -32 35.5t-104 32.5q-202 54 -290 112q-130 90 -130 244q0 184 138 281t344 97q262 0 508 -138l-148 -278q-244 120 -370 120q-56 0 -62 -36q0 -38 156 -78q208 -38 340 -164q72 -68 72 -188
q0 -182 -141 -277t-355 -95zM550 -586q-96 0 -162 60t-66 168t66 168t162 60q108 0 168 -66t60 -162q0 -108 -66 -168t-162 -60zM550 1178q-108 0 -168 66t-60 162q0 108 66 168t162 60q108 0 168 -66t60 -162q0 -108 -66 -168t-162 -60z" />
    <glyph glyph-name="uni1E6A" unicode="&#x1e6a;" horiz-adv-x="1282" 
d="M10 0zM872 0h-464v1036h-398v366h1262v-366h-400v-1036zM642 1504q-108 0 -168 66t-60 162q0 108 66 168t162 60q108 0 168 -66t60 -162q0 -108 -66 -168t-162 -60z" />
    <glyph glyph-name="uni1E6B" unicode="&#x1e6b;" horiz-adv-x="920" 
d="M16 0zM578 -20q-140 0 -231.5 49.5t-136 134t-44.5 188.5v398h-150v284h150v306h448v-306h256v-284h-256v-330q0 -86 88 -92q38 0 112 28l76 -308q-136 -68 -312 -68zM390 1442q-108 0 -168 66t-60 162q0 108 66 168t162 60q108 0 168 -66t60 -162q0 -108 -66 -168
t-162 -60z" />
    <glyph glyph-name="uni1E6C" unicode="&#x1e6c;" horiz-adv-x="1282" 
d="M872 0h-464v1036h-398v366h1262v-366h-400v-1036zM640 -586q-108 0 -168 66t-60 162q0 108 66 168t162 60q108 0 168 -66t60 -162q0 -108 -66 -168t-162 -60z" />
    <glyph glyph-name="uni1E6D" unicode="&#x1e6d;" horiz-adv-x="920" 
d="M578 -20q-140 0 -231.5 49.5t-136 134t-44.5 188.5v398h-150v284h150v306h448v-306h256v-284h-256v-330q0 -86 88 -92q38 0 112 28l76 -308q-136 -68 -312 -68zM564 -586q-96 0 -162 60t-66 168t66 168t162 60q108 0 168 -66t60 -162q0 -108 -66 -168t-162 -60z" />
    <glyph glyph-name="uni1E6E" unicode="&#x1e6e;" horiz-adv-x="1282" 
d="M872 0h-464v1036h-398v366h1262v-366h-400v-1036zM960 -406h-640v256h640v-256z" />
    <glyph glyph-name="uni1E6F" unicode="&#x1e6f;" horiz-adv-x="920" 
d="M578 -20q-140 0 -231.5 49.5t-136 134t-44.5 188.5v398h-150v284h150v306h448v-306h256v-284h-256v-330q0 -86 88 -92q38 0 112 28l76 -308q-136 -68 -312 -68zM884 -406h-640v256h640v-256z" />
    <glyph glyph-name="uni1E70" unicode="&#x1e70;" horiz-adv-x="1282" 
d="M10 0zM872 0h-464v1036h-398v366h1262v-366h-400v-1036zM1052 -440h-280l-130 144l-130 -144h-280l222 324h376zM974 -116z" />
    <glyph glyph-name="uni1E71" unicode="&#x1e71;" horiz-adv-x="920" 
d="M16 0zM578 -20q-140 0 -231.5 49.5t-136 134t-44.5 188.5v398h-150v284h150v306h448v-306h256v-284h-256v-330q0 -86 88 -92q38 0 112 28l76 -308q-136 -68 -312 -68zM998 -440h-280l-130 144l-130 -144h-280l222 324h376zM920 -116z" />
    <glyph glyph-name="uni1E72" unicode="&#x1e72;" horiz-adv-x="1482" 
d="M80 0zM746 -32q-179 0 -331 67t-247 210q-88 137 -88 337v820h464v-820q0 -116 65 -172t139 -56t132 57t58 171v820h464v-820q0 -272 -172 -443t-484 -171zM540 -482q-84 0 -130 53t-46 123q0 46 18 86.5t56.5 66t101.5 25.5q60 0 99 -25t58 -65.5t19 -87.5
q0 -70 -46 -123t-130 -53zM944 -482q-84 0 -130 53t-46 123q0 46 18 86.5t56.5 66t101.5 25.5q60 0 99 -25t58 -65.5t19 -87.5q0 -70 -46 -123t-130 -53z" />
    <glyph glyph-name="uni1E73" unicode="&#x1e73;" horiz-adv-x="1344" 
d="M80 0zM462 -20q-94 0 -181.5 42t-145.5 138q-55 92 -55 236v698h450v-568q0 -138 120 -150q126 0 134 176v542h450v-1094h-450v152q-112 -172 -322 -172zM456 -482q-84 0 -130 53t-46 123q0 46 18 86.5t56.5 66t101.5 25.5q60 0 99 -25t58 -65.5t19 -87.5q0 -70 -46 -123
t-130 -53zM860 -482q-84 0 -130 53t-46 123q0 46 18 86.5t56.5 66t101.5 25.5q60 0 99 -25t58 -65.5t19 -87.5q0 -70 -46 -123t-130 -53z" />
    <glyph glyph-name="uni1E74" unicode="&#x1e74;" horiz-adv-x="1482" 
d="M80 0zM746 -32q-179 0 -331 67t-247 210q-88 137 -88 337v820h464v-820q0 -116 65 -172t139 -56t132 57t58 171v820h464v-820q0 -272 -172 -443t-484 -171zM914 -458q-86 0 -184 54q-50 28 -82 28q-56 0 -58 -78h-234q0 356 204 356q96 0 196 -54q50 -28 80 -28
q60 0 60 76h232q0 -186 -52.5 -270t-161.5 -84zM1098 -98z" />
    <glyph glyph-name="uni1E75" unicode="&#x1e75;" horiz-adv-x="1344" 
d="M80 0zM462 -20q-94 0 -181.5 42t-145.5 138q-55 92 -55 236v698h450v-568q0 -138 120 -150q126 0 134 176v542h450v-1094h-450v152q-112 -172 -322 -172zM830 -458q-86 0 -184 54q-50 28 -82 28q-56 0 -58 -78h-234q0 356 204 356q96 0 196 -54q50 -28 80 -28q60 0 60 76
h232q0 -186 -52.5 -270t-161.5 -84zM1014 -98z" />
    <glyph glyph-name="uni1E76" unicode="&#x1e76;" horiz-adv-x="1482" 
d="M80 0zM746 -32q-179 0 -331 67t-247 210q-88 137 -88 337v820h464v-820q0 -116 65 -172t139 -56t132 57t58 171v820h464v-820q0 -272 -172 -443t-484 -171zM1152 -440h-280l-130 144l-130 -144h-280l222 324h376zM1074 -116z" />
    <glyph glyph-name="uni1E77" unicode="&#x1e77;" horiz-adv-x="1344" 
d="M80 0zM462 -20q-94 0 -181.5 42t-145.5 138q-55 92 -55 236v698h450v-568q0 -138 120 -150q126 0 134 176v542h450v-1094h-450v152q-112 -172 -322 -172zM1068 -440h-280l-130 144l-130 -144h-280l222 324h376zM990 -116z" />
    <glyph glyph-name="uni1E78" unicode="&#x1e78;" horiz-adv-x="1482" 
d="M746 -32q-179 0 -331 67t-247 210q-88 137 -88 337v820h464v-820q0 -116 65 -172t139 -56t132 57t58 171v820h464v-820q0 -272 -172 -443t-484 -171zM926 1500q-102 0 -218 50q-54 26 -94 26q-60 0 -60 -60v-12h-200q0 149 49.5 222.5t162.5 73.5q96 0 210 -50
q54 -26 92 -26q62 0 62 64v6h198q0 -294 -202 -294zM752 1882l-244 62l312 286l278 -162z" />
    <glyph glyph-name="uni1E79" unicode="&#x1e79;" horiz-adv-x="1344" 
d="M462 -20q-94 0 -181.5 42t-145.5 138q-55 92 -55 236v698h450v-568q0 -138 120 -150q126 0 134 176v542h450v-1094h-450v152q-112 -172 -322 -172zM856 1198q-102 0 -218 50q-54 26 -94 26q-60 0 -60 -60v-12h-200q0 149 49.5 222.5t162.5 73.5q96 0 210 -50
q54 -26 92 -26q62 0 62 64v6h198q0 -294 -202 -294zM682 1580l-244 62l312 286l278 -162z" />
    <glyph glyph-name="uni1E7A" unicode="&#x1e7a;" horiz-adv-x="1482" 
d="M746 -32q-179 0 -331 67t-247 210q-88 137 -88 337v820h464v-820q0 -116 65 -172t139 -56t132 57t58 171v820h464v-820q0 -272 -172 -443t-484 -171zM518 1832q-84 0 -130 53t-46 123q0 164 176 178q42 0 82.5 -16.5t67 -55.5t26.5 -106q0 -70 -46 -123t-130 -53z
M1052 1504h-640v238h640v-238zM946 1832q-84 0 -130 53t-46 123q0 164 176 178q42 0 82.5 -16.5t67 -55.5t26.5 -106q0 -70 -46 -123t-130 -53z" />
    <glyph glyph-name="uni1E7B" unicode="&#x1e7b;" horiz-adv-x="1344" 
d="M462 -20q-94 0 -181.5 42t-145.5 138q-55 92 -55 236v698h450v-568q0 -138 120 -150q126 0 134 176v542h450v-1094h-450v152q-112 -172 -322 -172zM432 1530q-84 0 -130 53t-46 123q0 164 176 178q42 0 82.5 -16.5t67 -55.5t26.5 -106q0 -70 -46 -123t-130 -53zM966 1202
h-640v238h640v-238zM860 1530q-84 0 -130 53t-46 123q0 164 176 178q42 0 82.5 -16.5t67 -55.5t26.5 -106q0 -70 -46 -123t-130 -53z" />
    <glyph glyph-name="uni1E7C" unicode="&#x1e7c;" horiz-adv-x="1528" 
d="M1002 0h-480l-532 1402h496l290 -920l288 920h474zM0 0zM936 1500q-84 0 -184 54q-50 28 -82 28q-56 0 -58 -78h-234q0 356 204 356q96 0 196 -54q50 -28 80 -28q60 0 60 76h232q0 -186 -52.5 -270t-161.5 -84z" />
    <glyph glyph-name="uni1E7D" unicode="&#x1e7d;" horiz-adv-x="1224" 
d="M840 0h-460l-400 1094h462l174 -686l178 686h450zM0 0zM784 1188q-84 0 -184 54q-50 28 -82 28q-56 0 -58 -78h-234q0 356 204 356q96 0 196 -54q50 -28 80 -28q60 0 60 76h232q0 -186 -52.5 -270t-161.5 -84z" />
    <glyph glyph-name="uni1E7E" unicode="&#x1e7e;" horiz-adv-x="1528" 
d="M1002 0h-480l-532 1402h496l290 -920l288 920h474zM0 0zM764 -586q-96 0 -162 60t-66 168t66 168t162 60t162 -60t66 -168t-66 -168t-162 -60z" />
    <glyph glyph-name="uni1E7F" unicode="&#x1e7f;" horiz-adv-x="1224" 
d="M840 0h-460l-400 1094h462l174 -686l178 686h450zM0 0zM612 -586q-96 0 -162 60t-66 168t66 168t162 60t162 -60t66 -168t-66 -168t-162 -60z" />
    <glyph glyph-name="Wgrave" unicode="&#x1e80;" horiz-adv-x="2302" 
d="M1838 0h-476l-210 838l-216 -838h-476l-470 1402h496l226 -920l224 920h452l228 -920l222 920h474zM1074 1490l-276 258l340 120l222 -358z" />
    <glyph glyph-name="wgrave" unicode="&#x1e81;" horiz-adv-x="1954" 
d="M1574 0h-440l-156 576l-162 -576h-440l-396 1094h456l174 -652l168 652h416l174 -652l172 652h434zM900 1182l-276 258l340 120l222 -358z" />
    <glyph glyph-name="Wacute" unicode="&#x1e82;" horiz-adv-x="2302" 
d="M1838 0h-476l-210 838l-216 -838h-476l-470 1402h496l226 -920l224 920h452l228 -920l222 920h474zM1212 1490l-284 20l270 358l338 -120z" />
    <glyph glyph-name="wacute" unicode="&#x1e83;" horiz-adv-x="1954" 
d="M1574 0h-440l-156 576l-162 -576h-440l-396 1094h456l174 -652l168 652h416l174 -652l172 652h434zM1038 1182l-284 20l270 358l338 -120z" />
    <glyph glyph-name="Wdieresis" unicode="&#x1e84;" horiz-adv-x="2302" 
d="M1838 0h-476l-210 838l-216 -838h-476l-470 1402h496l226 -920l224 920h452l228 -920l222 920h474zM950 1504q-84 0 -130 53t-46 123q0 46 18 86.5t56.5 66t101.5 25.5q60 0 99 -25t58 -65.5t19 -87.5q0 -70 -46 -123t-130 -53zM1354 1504q-84 0 -130 53t-46 123
q0 46 18 86.5t56.5 66t101.5 25.5q60 0 99 -25t58 -65.5t19 -87.5q0 -70 -46 -123t-130 -53z" />
    <glyph glyph-name="wdieresis" unicode="&#x1e85;" horiz-adv-x="1954" 
d="M1574 0h-440l-156 576l-162 -576h-440l-396 1094h456l174 -652l168 652h416l174 -652l172 652h434zM776 1210q-84 0 -130 53t-46 123q0 46 18 86.5t56.5 66t101.5 25.5q60 0 99 -25t58 -65.5t19 -87.5q0 -70 -46 -123t-130 -53zM1180 1210q-84 0 -130 53t-46 123
q0 46 18 86.5t56.5 66t101.5 25.5q60 0 99 -25t58 -65.5t19 -87.5q0 -70 -46 -123t-130 -53z" />
    <glyph glyph-name="uni1E86" unicode="&#x1e86;" horiz-adv-x="2302" 
d="M1838 0h-476l-210 838l-216 -838h-476l-470 1402h496l226 -920l224 920h452l228 -920l222 920h474zM0 0zM1152 1504q-108 0 -168 66t-60 162q0 108 66 168t162 60q108 0 168 -66t60 -162q0 -108 -66 -168t-162 -60z" />
    <glyph glyph-name="uni1E87" unicode="&#x1e87;" horiz-adv-x="1954" 
d="M1574 0h-440l-156 576l-162 -576h-440l-396 1094h456l174 -652l168 652h416l174 -652l172 652h434zM0 0zM978 1178q-108 0 -168 66t-60 162q0 108 66 168t162 60q108 0 168 -66t60 -162q0 -108 -66 -168t-162 -60z" />
    <glyph glyph-name="uni1E88" unicode="&#x1e88;" horiz-adv-x="2302" 
d="M1838 0h-476l-210 838l-216 -838h-476l-470 1402h496l226 -920l224 920h452l228 -920l222 920h474zM0 0zM1152 -586q-96 0 -162 60t-66 168t66 168t162 60t162 -60t66 -168t-66 -168t-162 -60z" />
    <glyph glyph-name="uni1E89" unicode="&#x1e89;" horiz-adv-x="1954" 
d="M1574 0h-440l-156 576l-162 -576h-440l-396 1094h456l174 -652l168 652h416l174 -652l172 652h434zM0 0zM978 -586q-96 0 -162 60t-66 168t66 168t162 60t162 -60t66 -168t-66 -168t-162 -60z" />
    <glyph glyph-name="uni1E8A" unicode="&#x1e8a;" horiz-adv-x="1546" 
d="M1556 0h-556l-236 362l-232 -362h-542l492 712l-462 690h540l204 -330l204 330h546l-454 -668zM0 0zM774 1504q-108 0 -168 66t-60 162q0 108 66 168t162 60q108 0 168 -66t60 -162q0 -108 -66 -168t-162 -60z" />
    <glyph glyph-name="uni1E8B" unicode="&#x1e8b;" horiz-adv-x="1308" 
d="M1318 0h-518l-146 284l-170 -284h-494l362 560l-340 534h516l126 -256l148 256h492l-340 -532zM0 0zM654 1178q-108 0 -168 66t-60 162q0 108 66 168t162 60q108 0 168 -66t60 -162q0 -108 -66 -168t-162 -60z" />
    <glyph glyph-name="uni1E8C" unicode="&#x1e8c;" horiz-adv-x="1546" 
d="M1556 0h-556l-236 362l-232 -362h-542l492 712l-462 690h540l204 -330l204 330h546l-454 -668zM0 0zM572 1504q-84 0 -130 53t-46 123q0 46 18 86.5t56.5 66t101.5 25.5q60 0 99 -25t58 -65.5t19 -87.5q0 -70 -46 -123t-130 -53zM976 1504q-84 0 -130 53t-46 123
q0 46 18 86.5t56.5 66t101.5 25.5q60 0 99 -25t58 -65.5t19 -87.5q0 -70 -46 -123t-130 -53z" />
    <glyph glyph-name="uni1E8D" unicode="&#x1e8d;" horiz-adv-x="1308" 
d="M1318 0h-518l-146 284l-170 -284h-494l362 560l-340 534h516l126 -256l148 256h492l-340 -532zM0 0zM452 1210q-84 0 -130 53t-46 123q0 46 18 86.5t56.5 66t101.5 25.5q60 0 99 -25t58 -65.5t19 -87.5q0 -70 -46 -123t-130 -53zM856 1210q-84 0 -130 53t-46 123
q0 46 18 86.5t56.5 66t101.5 25.5q60 0 99 -25t58 -65.5t19 -87.5q0 -70 -46 -123t-130 -53z" />
    <glyph glyph-name="uni1E8E" unicode="&#x1e8e;" horiz-adv-x="1438" 
d="M956 0h-464v426l-512 976h462l282 -540l272 540h462l-502 -966v-436zM720 1504q-108 0 -168 66t-60 162t60 162t168 66t168 -66t60 -162q0 -108 -66 -168t-162 -60z" />
    <glyph glyph-name="uni1E8F" unicode="&#x1e8f;" horiz-adv-x="1248" 
d="M338 -408q-218 0 -378 128l188 296q68 -64 146 -64q49 0 77 19.5t47 62.5l-454 1060h462l216 -624l178 624h448l-450 -1170q-128 -332 -480 -332zM624 1178q-108 0 -168 66t-60 162q0 108 66 168t162 60q108 0 168 -66t60 -162q0 -108 -66 -168t-162 -60z" />
    <glyph glyph-name="uni1E90" unicode="&#x1e90;" horiz-adv-x="1366" 
d="M1326 0h-1286v290l654 756h-630v356h1248v-290l-654 -756h668v-356zM40 0zM1094 1504h-280l-130 144l-130 -144h-280l222 324h376z" />
    <glyph glyph-name="uni1E91" unicode="&#x1e91;" horiz-adv-x="1136" 
d="M1094 0h-1044v262l456 496h-436v336h1004v-262l-456 -496h476v-336zM50 0zM982 1214h-280l-130 144l-130 -144h-280l222 324h376z" />
    <glyph glyph-name="uni1E92" unicode="&#x1e92;" horiz-adv-x="1366" 
d="M1326 0h-1286v290l654 756h-630v356h1248v-290l-654 -756h668v-356zM684 -586q-108 0 -168 66t-60 162q0 108 66 168t162 60q108 0 168 -66t60 -162q0 -108 -66 -168t-162 -60z" />
    <glyph glyph-name="uni1E93" unicode="&#x1e93;" horiz-adv-x="1136" 
d="M1094 0h-1044v262l456 496h-436v336h1004v-262l-456 -496h476v-336zM572 -586q-96 0 -162 60t-66 168t66 168t162 60q108 0 168 -66t60 -162q0 -108 -66 -168t-162 -60z" />
    <glyph glyph-name="uni1E94" unicode="&#x1e94;" horiz-adv-x="1366" 
d="M1326 0h-1286v290l654 756h-630v356h1248v-290l-654 -756h668v-356zM40 0zM1004 -406h-640v256h640v-256z" />
    <glyph glyph-name="uni1E95" unicode="&#x1e95;" horiz-adv-x="1136" 
d="M1094 0h-1044v262l456 496h-436v336h1004v-262l-456 -496h476v-336zM50 0zM892 -406h-640v256h640v-256z" />
    <glyph glyph-name="uni1E96" unicode="&#x1e96;" horiz-adv-x="1374" 
d="M1294 0h-450v568q0 138 -130 150q-132 0 -144 -176v-542h-450v1484h450v-546q116 176 332 176q69 0 138.5 -22t126.5 -71t92 -128.5t35 -194.5v-698zM120 0zM1028 -406h-640v256h640v-256z" />
    <glyph glyph-name="uni1E97" unicode="&#x1e97;" horiz-adv-x="920" 
d="M188 1456q-84 0 -130 53t-46 123q0 46 18 86.5t56.5 66t101.5 25.5q60 0 99 -25t58 -65.5t19 -87.5q0 -70 -46 -123t-130 -53zM578 -20q-140 0 -231.5 49.5t-136 134t-44.5 188.5v398h-150v284h150v306h448v-306h256v-284h-256v-330q0 -86 88 -92q38 0 112 28l76 -308
q-136 -68 -312 -68zM592 1456q-84 0 -130 53t-46 123q0 46 18 86.5t56.5 66t101.5 25.5q60 0 99 -25t58 -65.5t19 -87.5q0 -70 -46 -123t-130 -53z" />
    <glyph glyph-name="uni1E98" unicode="&#x1e98;" horiz-adv-x="1954" 
d="M1574 0h-440l-156 576l-162 -576h-440l-396 1094h456l174 -652l168 652h416l174 -652l172 652h434zM0 0zM978 1158q-107 0 -177.5 70.5t-70.5 177.5t70.5 177.5t177.5 70.5t177.5 -70.5t70.5 -177.5t-70.5 -177.5t-177.5 -70.5zM978 1328q44 0 61 24.5t17 53.5
q0 70 -78 78q-29 0 -53.5 -17t-24.5 -61q0 -32 23 -55t55 -23z" />
    <glyph glyph-name="uni1E99" unicode="&#x1e99;" horiz-adv-x="1248" 
d="M338 -408q-218 0 -378 128l188 296q68 -64 146 -64q49 0 77 19.5t47 62.5l-454 1060h462l216 -624l178 624h448l-450 -1170q-128 -332 -480 -332zM0 0zM614 1158q-107 0 -177.5 70.5t-70.5 177.5t70.5 177.5t177.5 70.5t177.5 -70.5t70.5 -177.5t-70.5 -177.5
t-177.5 -70.5zM614 1328q44 0 61 24.5t17 53.5q0 70 -78 78q-29 0 -53.5 -17t-24.5 -61q0 -32 23 -55t55 -23z" />
    <glyph glyph-name="uni1E9A" unicode="&#x1e9a;" horiz-adv-x="1226" 
d="M30 0zM396 -20q-192 0 -279 99t-87 245q0 324 424 334h250q-4 120 -170 120q-118 0 -332 -70l-100 300q300 106 540 106q139 0 254.5 -40.5t184.5 -132.5q65 -89 65 -233v-708h-442v118q-100 -138 -308 -138zM552 266q88 0 152 84v100h-156q-92 0 -96 -88q0 -90 100 -96z
M464 1158v170q44 0 61 24.5t17 53.5q0 70 -78 78v170q107 0 177.5 -70.5t70.5 -177.5t-70.5 -177.5t-177.5 -70.5z" />
    <glyph glyph-name="uni1E9B" unicode="&#x1e9b;" horiz-adv-x="852" 
d="M638 0h-448v1132q0 184 129 278t325 94q128 0 254 -38l-44 -332q-66 22 -112 22q-104 -2 -104 -92v-1064zM190 0zM544 1606q-108 0 -168 66t-60 162q0 108 66 168t162 60q108 0 168 -66t60 -162q0 -108 -66 -168t-162 -60z" />
    <glyph glyph-name="uni1E9E" unicode="&#x1e9e;" horiz-adv-x="1472" 
d="M860 0h-164v340h82q168 0 174 122q0 118 -193 118h-13v240l182 224q-50 10 -102 10q-158 0 -231 -89t-73 -227v-738h-462v698q0 354 196 539t528 185q296 0 520 -140v-318l-138 -180q266 -98 266 -368q0 -129 -62.5 -222.5t-189.5 -143.5t-320 -50z" />
    <glyph glyph-name="uni1EA0" unicode="&#x1ea0;" horiz-adv-x="1598" 
d="M1618 0h-494l-70 198h-526l-72 -198h-476l592 1402h476zM782 -586q-96 0 -162 60t-66 168t66 168t162 60q108 0 168 -66t60 -162q0 -108 -66 -168t-162 -60zM940 530l-144 410l-148 -410h292z" />
    <glyph glyph-name="uni1EA1" unicode="&#x1ea1;" horiz-adv-x="1226" 
d="M396 -20q-192 0 -279 99t-87 245q0 324 424 334h250q-4 120 -170 120q-118 0 -332 -70l-100 300q300 106 540 106q139 0 254.5 -40.5t184.5 -132.5q65 -89 65 -233v-708h-442v118q-100 -138 -308 -138zM570 -586q-96 0 -162 60t-66 168t66 168t162 60q108 0 168 -66
t60 -162q0 -108 -66 -168t-162 -60zM552 266q88 0 152 84v100h-156q-92 0 -96 -88q0 -90 100 -96z" />
    <glyph glyph-name="uni1EA2" unicode="&#x1ea2;" horiz-adv-x="1598" 
d="M1618 0h-494l-70 198h-526l-72 -198h-476l592 1402h476zM876 1482l-184 74q94 82 94 148q0 52 -56 54q-36 0 -78 -30l-108 166q136 88 278 88q128 0 185 -59t57 -145q0 -158 -188 -296zM940 530l-144 410l-148 -410h292z" />
    <glyph glyph-name="uni1EA3" unicode="&#x1ea3;" horiz-adv-x="1226" 
d="M396 -20q-192 0 -279 99t-87 245q0 324 424 334h250q-4 120 -170 120q-118 0 -332 -70l-100 300q300 106 540 106q139 0 254.5 -40.5t184.5 -132.5q65 -89 65 -233v-708h-442v118q-100 -138 -308 -138zM692 1174l-184 74q94 82 94 148q0 52 -56 54q-36 0 -78 -30
l-108 166q136 88 278 88q128 0 185 -59t57 -145q0 -158 -188 -296zM552 266q88 0 152 84v100h-156q-92 0 -96 -88q0 -90 100 -96z" />
    <glyph glyph-name="uni1EA4" unicode="&#x1ea4;" horiz-adv-x="1598" 
d="M1618 0h-494l-70 198h-526l-72 -198h-476l592 1402h476zM1248 1504h-322l-128 142l-130 -142h-320l246 276h406zM806 1842l-244 62l312 286l278 -162zM940 530l-144 410l-148 -410h292z" />
    <glyph glyph-name="uni1EA5" unicode="&#x1ea5;" horiz-adv-x="1226" 
d="M396 -20q-192 0 -279 99t-87 245q0 324 424 334h250q-4 120 -170 120q-118 0 -332 -70l-100 300q300 106 540 106q139 0 254.5 -40.5t184.5 -132.5q65 -89 65 -233v-708h-442v118q-100 -138 -308 -138zM1064 1202h-322l-128 142l-130 -142h-320l246 276h406zM622 1540
l-244 62l312 286l278 -162zM552 266q88 0 152 84v100h-156q-92 0 -96 -88q0 -90 100 -96z" />
    <glyph glyph-name="uni1EA6" unicode="&#x1ea6;" horiz-adv-x="1598" 
d="M1618 0h-494l-70 198h-526l-72 -198h-476l592 1402h476zM1248 1504h-322l-128 142l-130 -142h-320l246 276h406zM770 1842l-346 186l278 162l312 -286zM940 530l-144 410l-148 -410h292z" />
    <glyph glyph-name="uni1EA7" unicode="&#x1ea7;" horiz-adv-x="1226" 
d="M396 -20q-192 0 -279 99t-87 245q0 324 424 334h250q-4 120 -170 120q-118 0 -332 -70l-100 300q300 106 540 106q139 0 254.5 -40.5t184.5 -132.5q65 -89 65 -233v-708h-442v118q-100 -138 -308 -138zM1064 1202h-322l-128 142l-130 -142h-320l246 276h406zM586 1540
l-346 186l278 162l312 -286zM552 266q88 0 152 84v100h-156q-92 0 -96 -88q0 -90 100 -96z" />
    <glyph glyph-name="uni1EA8" unicode="&#x1ea8;" horiz-adv-x="1598" 
d="M1618 0h-494l-70 198h-526l-72 -198h-476l592 1402h476zM1268 1504h-322l-128 142l-130 -142h-320l246 276h406zM864 1842l-166 62q78 42 78 76q0 32 -38 32q-32 0 -66 -22l-98 140q122 76 246 76q114 0 158 -50t44 -102q0 -126 -158 -212zM940 530l-144 410l-148 -410
h292z" />
    <glyph glyph-name="uni1EA9" unicode="&#x1ea9;" horiz-adv-x="1226" 
d="M396 -20q-192 0 -279 99t-87 245q0 324 424 334h250q-4 120 -170 120q-118 0 -332 -70l-100 300q300 106 540 106q139 0 254.5 -40.5t184.5 -132.5q65 -89 65 -233v-708h-442v118q-100 -138 -308 -138zM1064 1202h-322l-128 142l-130 -142h-320l246 276h406zM660 1540
l-166 62q78 42 78 76q0 32 -38 32q-32 0 -66 -22l-98 140q122 76 246 76q114 0 158 -50t44 -102q0 -126 -158 -212zM552 266q88 0 152 84v100h-156q-92 0 -96 -88q0 -90 100 -96z" />
    <glyph glyph-name="uni1EAA" unicode="&#x1eaa;" horiz-adv-x="1598" 
d="M1618 0h-494l-70 198h-526l-72 -198h-476l592 1402h476zM1228 1504h-322l-128 142l-130 -142h-320l246 276h406zM960 1838q-102 0 -218 50q-54 26 -94 26q-60 0 -60 -60v-12h-200q0 149 49.5 222.5t162.5 73.5q96 0 210 -50q54 -26 92 -26q62 0 62 64v6h198
q0 -294 -202 -294zM940 530l-144 410l-148 -410h292z" />
    <glyph glyph-name="uni1EAB" unicode="&#x1eab;" horiz-adv-x="1226" 
d="M396 -20q-192 0 -279 99t-87 245q0 324 424 334h250q-4 120 -170 120q-118 0 -332 -70l-100 300q300 106 540 106q139 0 254.5 -40.5t184.5 -132.5q65 -89 65 -233v-708h-442v118q-100 -138 -308 -138zM1064 1202h-322l-128 142l-130 -142h-320l246 276h406zM796 1536
q-102 0 -218 50q-54 26 -94 26q-60 0 -60 -60v-12h-200q0 149 49.5 222.5t162.5 73.5q96 0 210 -50q54 -26 92 -26q62 0 62 64v6h198q0 -294 -202 -294zM552 266q88 0 152 84v100h-156q-92 0 -96 -88q0 -90 100 -96z" />
    <glyph glyph-name="uni1EAC" unicode="&#x1eac;" horiz-adv-x="1598" 
d="M1618 0h-494l-70 198h-526l-72 -198h-476l592 1402h476zM1192 1504h-280l-130 144l-130 -144h-280l222 324h376zM782 -586q-96 0 -162 60t-66 168t66 168t162 60q108 0 168 -66t60 -162q0 -108 -66 -168t-162 -60zM940 530l-144 410l-148 -410h292z" />
    <glyph glyph-name="uni1EAD" unicode="&#x1ead;" horiz-adv-x="1226" 
d="M396 -20q-192 0 -279 99t-87 245q0 324 424 334h250q-4 120 -170 120q-118 0 -332 -70l-100 300q300 106 540 106q139 0 254.5 -40.5t184.5 -132.5q65 -89 65 -233v-708h-442v118q-100 -138 -308 -138zM980 1214h-280l-130 144l-130 -144h-280l222 324h376zM570 -586
q-96 0 -162 60t-66 168t66 168t162 60q108 0 168 -66t60 -162q0 -108 -66 -168t-162 -60zM552 266q88 0 152 84v100h-156q-92 0 -96 -88q0 -90 100 -96z" />
    <glyph glyph-name="uni1EAE" unicode="&#x1eae;" horiz-adv-x="1598" 
d="M1618 0h-494l-70 198h-526l-72 -198h-476l592 1402h476zM800 1484q-146 0 -248 77t-122 239h250q20 -90 120 -90t120 90h250q-22 -162 -124 -239t-246 -77zM808 1820l-244 62l312 286l278 -162zM940 530l-144 410l-148 -410h292z" />
    <glyph glyph-name="uni1EAF" unicode="&#x1eaf;" horiz-adv-x="1226" 
d="M396 -20q-192 0 -279 99t-87 245q0 324 424 334h250q-4 120 -170 120q-118 0 -332 -70l-100 300q300 106 540 106q139 0 254.5 -40.5t184.5 -132.5q65 -89 65 -233v-708h-442v118q-100 -138 -308 -138zM616 1202q-146 0 -248 77t-122 239h250q20 -90 120 -90t120 90h250
q-22 -162 -124 -239t-246 -77zM624 1538l-244 62l312 286l278 -162zM552 266q88 0 152 84v100h-156q-92 0 -96 -88q0 -90 100 -96z" />
    <glyph glyph-name="uni1EB0" unicode="&#x1eb0;" horiz-adv-x="1598" 
d="M1618 0h-494l-70 198h-526l-72 -198h-476l592 1402h476zM772 1820l-346 186l278 162l312 -286zM800 1484q-146 0 -248 77t-122 239h250q20 -90 120 -90t120 90h250q-22 -162 -124 -239t-246 -77zM940 530l-144 410l-148 -410h292z" />
    <glyph glyph-name="uni1EB1" unicode="&#x1eb1;" horiz-adv-x="1226" 
d="M396 -20q-192 0 -279 99t-87 245q0 324 424 334h250q-4 120 -170 120q-118 0 -332 -70l-100 300q300 106 540 106q139 0 254.5 -40.5t184.5 -132.5q65 -89 65 -233v-708h-442v118q-100 -138 -308 -138zM588 1538l-346 186l278 162l312 -286zM616 1202q-146 0 -248 77
t-122 239h250q20 -90 120 -90t120 90h250q-22 -162 -124 -239t-246 -77zM552 266q88 0 152 84v100h-156q-92 0 -96 -88q0 -90 100 -96z" />
    <glyph glyph-name="uni1EB2" unicode="&#x1eb2;" horiz-adv-x="1598" 
d="M1618 0h-494l-70 198h-526l-72 -198h-476l592 1402h476zM800 1484q-146 0 -248 77t-122 239h250q20 -90 120 -90t120 90h250q-22 -162 -124 -239t-246 -77zM846 1820l-166 62q78 42 78 76q0 32 -38 32q-32 0 -66 -22l-98 140q122 76 246 76q114 0 158 -50t44 -102
q0 -126 -158 -212zM940 530l-144 410l-148 -410h292z" />
    <glyph glyph-name="uni1EB3" unicode="&#x1eb3;" horiz-adv-x="1226" 
d="M396 -20q-192 0 -279 99t-87 245q0 324 424 334h250q-4 120 -170 120q-118 0 -332 -70l-100 300q300 106 540 106q139 0 254.5 -40.5t184.5 -132.5q65 -89 65 -233v-708h-442v118q-100 -138 -308 -138zM616 1202q-146 0 -248 77t-122 239h250q20 -90 120 -90t120 90h250
q-22 -162 -124 -239t-246 -77zM662 1538l-166 62q78 42 78 76q0 32 -38 32q-32 0 -66 -22l-98 140q122 76 246 76q114 0 158 -50t44 -102q0 -126 -158 -212zM552 266q88 0 152 84v100h-156q-92 0 -96 -88q0 -90 100 -96z" />
    <glyph glyph-name="uni1EB4" unicode="&#x1eb4;" horiz-adv-x="1598" 
d="M1618 0h-494l-70 198h-526l-72 -198h-476l592 1402h476zM1002 1876q-102 0 -218 50q-54 26 -94 26q-60 0 -60 -60v-12h-200q0 149 49.5 222.5t162.5 73.5q96 0 210 -50q54 -26 92 -26q62 0 62 64v6h198q0 -294 -202 -294zM802 1484q-146 0 -248 77t-122 239h250
q22 -90 120 -90t120 90h250q-22 -162 -124 -239t-246 -77zM940 530l-144 410l-148 -410h292z" />
    <glyph glyph-name="uni1EB5" unicode="&#x1eb5;" horiz-adv-x="1226" 
d="M396 -20q-192 0 -279 99t-87 245q0 324 424 334h250q-4 120 -170 120q-118 0 -332 -70l-100 300q300 106 540 106q139 0 254.5 -40.5t184.5 -132.5q65 -89 65 -233v-708h-442v118q-100 -138 -308 -138zM800 1594q-102 0 -218 50q-54 26 -94 26q-60 0 -60 -60v-12h-200
q0 149 49.5 222.5t162.5 73.5q96 0 210 -50q54 -26 92 -26q62 0 62 64v6h198q0 -294 -202 -294zM600 1202q-146 0 -248 77t-122 239h250q20 -90 120 -90t120 90h250q-22 -162 -124 -239t-246 -77zM552 266q88 0 152 84v100h-156q-92 0 -96 -88q0 -90 100 -96z" />
    <glyph glyph-name="uni1EB6" unicode="&#x1eb6;" horiz-adv-x="1598" 
d="M1618 0h-494l-70 198h-526l-72 -198h-476l592 1402h476zM782 1504q-174 0 -265 96t-103 252h270q18 -100 98 -100q82 0 98 100h270q-12 -156 -103 -252t-265 -96zM782 -586q-96 0 -162 60t-66 168t66 168t162 60q108 0 168 -66t60 -162q0 -108 -66 -168t-162 -60z
M940 530l-144 410l-148 -410h292z" />
    <glyph glyph-name="uni1EB7" unicode="&#x1eb7;" horiz-adv-x="1226" 
d="M396 -20q-192 0 -279 99t-87 245q0 324 424 334h250q-4 120 -170 120q-118 0 -332 -70l-100 300q300 106 540 106q139 0 254.5 -40.5t184.5 -132.5q65 -89 65 -233v-708h-442v118q-100 -138 -308 -138zM570 1190q-174 0 -265 96t-103 252h270q18 -100 98 -100
q82 0 98 100h270q-12 -156 -103 -252t-265 -96zM570 -586q-96 0 -162 60t-66 168t66 168t162 60q108 0 168 -66t60 -162q0 -108 -66 -168t-162 -60zM552 266q88 0 152 84v100h-156q-92 0 -96 -88q0 -90 100 -96z" />
    <glyph glyph-name="uni1EB8" unicode="&#x1eb8;" horiz-adv-x="1380" 
d="M1304 0h-1204v1402h1186v-352h-722v-172h656v-352h-656v-174h740v-352zM702 -586q-108 0 -168 66t-60 162q0 108 66 168t162 60q108 0 168 -66t60 -162q0 -108 -66 -168t-162 -60z" />
    <glyph glyph-name="uni1EB9" unicode="&#x1eb9;" horiz-adv-x="1228" 
d="M626 -16q-201 0 -333 73q-138 79 -200.5 207t-62.5 278q0 272 163 420t421 148q199 0 329 -79q134 -86 194.5 -225t60.5 -304l-2 -56h-712q52 -130 182 -130q116 0 222 98l234 -230q-176 -200 -496 -200zM614 -586q-96 0 -162 60t-66 168t66 168t162 60q108 0 168 -66
t60 -162q0 -108 -66 -168t-162 -60zM746 654q0 148 -128 156q-114 0 -144 -156h272z" />
    <glyph glyph-name="uni1EBA" unicode="&#x1eba;" horiz-adv-x="1380" 
d="M1304 0h-1204v1402h1186v-352h-722v-172h656v-352h-656v-174h740v-352zM772 1482l-184 74q94 82 94 148q0 52 -56 54q-36 0 -78 -30l-108 166q136 88 278 88q128 0 185 -59t57 -145q0 -158 -188 -296z" />
    <glyph glyph-name="uni1EBB" unicode="&#x1ebb;" horiz-adv-x="1228" 
d="M626 -16q-201 0 -333 73q-138 79 -200.5 207t-62.5 278q0 272 163 420t421 148q199 0 329 -79q134 -86 194.5 -225t60.5 -304l-2 -56h-712q52 -130 182 -130q116 0 222 98l234 -230q-176 -200 -496 -200zM682 1174l-184 74q94 82 94 148q0 52 -56 54q-36 0 -78 -30
l-108 166q136 88 278 88q128 0 185 -59t57 -145q0 -158 -188 -296zM746 654q0 148 -128 156q-114 0 -144 -156h272z" />
    <glyph glyph-name="uni1EBC" unicode="&#x1ebc;" horiz-adv-x="1380" 
d="M1304 0h-1204v1402h1186v-352h-722v-172h656v-352h-656v-174h740v-352zM884 1500q-84 0 -184 54q-50 28 -82 28q-54 0 -58 -78h-234q0 356 204 356q96 0 196 -54q50 -28 80 -28q60 0 60 76h232q0 -186 -52.5 -270t-161.5 -84z" />
    <glyph glyph-name="uni1EBD" unicode="&#x1ebd;" horiz-adv-x="1228" 
d="M626 -16q-201 0 -333 73q-138 79 -200.5 207t-62.5 278q0 272 163 420t421 148q199 0 329 -79q134 -86 194.5 -225t60.5 -304l-2 -56h-712q52 -130 182 -130q116 0 222 98l234 -230q-176 -200 -496 -200zM794 1188q-86 0 -184 54q-50 28 -82 28q-56 0 -58 -78h-234
q0 356 204 356q96 0 196 -54q50 -28 80 -28q60 0 60 76h232q0 -186 -52.5 -270t-161.5 -84zM746 654q0 148 -128 156q-114 0 -144 -156h272z" />
    <glyph glyph-name="uni1EBE" unicode="&#x1ebe;" horiz-adv-x="1380" 
d="M1304 0h-1204v1402h1186v-352h-722v-172h656v-352h-656v-174h740v-352zM1144 1504h-322l-128 142l-130 -142h-320l246 276h406zM702 1842l-244 62l312 286l278 -162z" />
    <glyph glyph-name="uni1EBF" unicode="&#x1ebf;" horiz-adv-x="1228" 
d="M626 -16q-201 0 -333 73q-138 79 -200.5 207t-62.5 278q0 272 163 420t421 148q199 0 329 -79q134 -86 194.5 -225t60.5 -304l-2 -56h-712q52 -130 182 -130q116 0 222 98l234 -230q-176 -200 -496 -200zM1054 1202h-322l-128 142l-130 -142h-320l246 276h406zM612 1540
l-244 62l312 286l278 -162zM746 654q0 148 -128 156q-114 0 -144 -156h272z" />
    <glyph glyph-name="uni1EC0" unicode="&#x1ec0;" horiz-adv-x="1380" 
d="M1304 0h-1204v1402h1186v-352h-722v-172h656v-352h-656v-174h740v-352zM1144 1504h-322l-128 142l-130 -142h-320l246 276h406zM666 1842l-346 186l278 162l312 -286z" />
    <glyph glyph-name="uni1EC1" unicode="&#x1ec1;" horiz-adv-x="1228" 
d="M626 -16q-201 0 -333 73q-138 79 -200.5 207t-62.5 278q0 272 163 420t421 148q199 0 329 -79q134 -86 194.5 -225t60.5 -304l-2 -56h-712q52 -130 182 -130q116 0 222 98l234 -230q-176 -200 -496 -200zM1054 1202h-322l-128 142l-130 -142h-320l246 276h406zM576 1540
l-346 186l278 162l312 -286zM746 654q0 148 -128 156q-114 0 -144 -156h272z" />
    <glyph glyph-name="uni1EC2" unicode="&#x1ec2;" horiz-adv-x="1380" 
d="M1304 0h-1204v1402h1186v-352h-722v-172h656v-352h-656v-174h740v-352zM1164 1504h-322l-128 142l-130 -142h-320l246 276h406zM760 1842l-166 62q78 42 78 76q0 32 -38 32q-32 0 -66 -22l-98 140q122 76 246 76q114 0 158 -50t44 -102q0 -126 -158 -212z" />
    <glyph glyph-name="uni1EC3" unicode="&#x1ec3;" horiz-adv-x="1228" 
d="M626 -16q-201 0 -333 73q-138 79 -200.5 207t-62.5 278q0 272 163 420t421 148q199 0 329 -79q134 -86 194.5 -225t60.5 -304l-2 -56h-712q52 -130 182 -130q116 0 222 98l234 -230q-176 -200 -496 -200zM1054 1202h-322l-128 142l-130 -142h-320l246 276h406zM650 1540
l-166 62q78 42 78 76q0 32 -38 32q-32 0 -66 -22l-98 140q122 76 246 76q114 0 158 -50t44 -102q0 -126 -158 -212zM746 654q0 148 -128 156q-114 0 -144 -156h272z" />
    <glyph glyph-name="uni1EC4" unicode="&#x1ec4;" horiz-adv-x="1380" 
d="M1304 0h-1204v1402h1186v-352h-722v-172h656v-352h-656v-174h740v-352zM1124 1504h-322l-128 142l-130 -142h-320l246 276h406zM856 1838q-102 0 -218 50q-54 26 -94 26q-60 0 -60 -60v-12h-200q0 149 49.5 222.5t162.5 73.5q96 0 210 -50q54 -26 92 -26q62 0 62 64v6
h198q0 -294 -202 -294z" />
    <glyph glyph-name="uni1EC5" unicode="&#x1ec5;" horiz-adv-x="1228" 
d="M626 -16q-201 0 -333 73q-138 79 -200.5 207t-62.5 278q0 272 163 420t421 148q199 0 329 -79q134 -86 194.5 -225t60.5 -304l-2 -56h-712q52 -130 182 -130q116 0 222 98l234 -230q-176 -200 -496 -200zM1054 1202h-322l-128 142l-130 -142h-320l246 276h406zM786 1536
q-102 0 -218 50q-54 26 -94 26q-60 0 -60 -60v-12h-200q0 149 49.5 222.5t162.5 73.5q96 0 210 -50q54 -26 92 -26q62 0 62 64v6h198q0 -294 -202 -294zM746 654q0 148 -128 156q-114 0 -144 -156h272z" />
    <glyph glyph-name="uni1EC6" unicode="&#x1ec6;" horiz-adv-x="1380" 
d="M1304 0h-1204v1402h1186v-352h-722v-172h656v-352h-656v-174h740v-352zM1112 1504h-280l-130 144l-130 -144h-280l222 324h376zM702 -586q-108 0 -168 66t-60 162q0 108 66 168t162 60q108 0 168 -66t60 -162q0 -108 -66 -168t-162 -60z" />
    <glyph glyph-name="uni1EC7" unicode="&#x1ec7;" horiz-adv-x="1228" 
d="M626 -16q-201 0 -333 73q-138 79 -200.5 207t-62.5 278q0 272 163 420t421 148q199 0 329 -79q134 -86 194.5 -225t60.5 -304l-2 -56h-712q52 -130 182 -130q116 0 222 98l234 -230q-176 -200 -496 -200zM1024 1214h-280l-130 144l-130 -144h-280l222 324h376zM614 -586
q-96 0 -162 60t-66 168t66 168t162 60q108 0 168 -66t60 -162q0 -108 -66 -168t-162 -60zM746 654q0 148 -128 156q-114 0 -144 -156h272z" />
    <glyph glyph-name="uni1EC8" unicode="&#x1ec8;" horiz-adv-x="664" 
d="M408 1482l-184 74q94 82 94 148q0 52 -56 54q-36 0 -78 -30l-108 166q136 88 278 88q128 0 185 -59t57 -145q0 -158 -188 -296zM564 0h-464v1402h464v-1402z" />
    <glyph glyph-name="uni1EC9" unicode="&#x1ec9;" horiz-adv-x="670" 
d="M412 1174l-184 74q94 82 94 148q0 52 -56 54q-36 0 -78 -30l-108 166q136 88 278 88q128 0 185 -59t57 -145q0 -158 -188 -296zM560 0h-450v1094h450v-1094z" />
    <glyph glyph-name="uni1ECA" unicode="&#x1eca;" horiz-adv-x="664" 
d="M564 0h-464v1402h464v-1402zM332 -586q-108 0 -168 66t-60 162q0 108 66 168t162 60q108 0 168 -66t60 -162q0 -108 -66 -168t-162 -60z" />
    <glyph glyph-name="uni1ECB" unicode="&#x1ecb;" horiz-adv-x="670" 
d="M336 -586q-96 0 -162 60t-66 168q0 96 60 162t168 66t168 -66t60 -162q0 -108 -66 -168t-162 -60zM336 1178q-108 0 -168 66t-60 162t60 162t168 66t168 -66t60 -162t-60 -162t-168 -66zM560 0h-450v1094h450v-1094z" />
    <glyph glyph-name="uni1ECC" unicode="&#x1ecc;" horiz-adv-x="1600" 
d="M800 -32q-332 0 -551 207t-219 529q0 318 218 523t552 205t552 -206t218 -522q0 -322 -218 -529t-552 -207zM806 354q112 0 200 90t88 258q0 160 -87 252t-201 92q-116 0 -208 -91t-92 -253q0 -160 92 -254t208 -94zM800 -586q-96 0 -162 60t-66 168t66 168t162 60
q108 0 168 -66t60 -162q0 -108 -66 -168t-162 -60z" />
    <glyph glyph-name="uni1ECD" unicode="&#x1ecd;" horiz-adv-x="1296" 
d="M648 -16q-208 0 -344 75q-142 79 -208 208t-66 281q0 266 171 414t447 148t447 -148t171 -414q0 -150 -65 -279t-208 -210q-138 -75 -345 -75zM648 -586q-108 0 -168 66t-60 162q0 108 66 168t162 60q108 0 168 -66t60 -162q0 -108 -66 -168t-162 -60zM648 330
q84 0 124 61t40 151t-40 151t-124 61q-80 0 -122 -61.5t-42 -150.5t42 -150.5t122 -61.5z" />
    </font>
</defs>
</svg>
